/* XPM */
static char *_575043507134[] = {
/* columns rows colors chars-per-pixel */
"64 64 10 1 ",
"  c black",
". c #080000",
"X c #493936",
"o c #66504C",
"O c #A75552",
"+ c #856963",
"@ c #B97371",
"# c #CF9C9B",
"$ c #E3C6C5",
"% c white",
/* pixels */
"                                                                ",
"                                                                ",
"                                                                ",
"                                                                ",
"                                                                ",
"                                                                ",
"                                                                ",
"                                                                ",
"                                                                ",
"                                                                ",
"                                                                ",
"                                                                ",
"                                                                ",
"                                                                ",
"                                                                ",
"                                                                ",
"                                                                ",
"                                                                ",
"                                                                ",
"                                                                ",
"                                                                ",
"                                                                ",
"                                                                ",
"                                                                ",
"                                                                ",
"                                                                ",
"                                                                ",
"                                                                ",
"                                                                ",
"                                                                ",
"                                                                ",
"                                                                ",
"                                                                ",
"                                                                ",
"                                                                ",
"                                                                ",
"                              ........                          ",
"                            ............                        ",
"                           ...##$$$$##...                       ",
"                          ..##$$$$$$$$$#..                      ",
"                         ..#$$$$$$$$$$$$#..                     ",
"                        ..#$$$$$$$$$$$$$$#..                    ",
"                        ..#@#$$$$$$$$$$#@#..                    ",
"                       ..#...#$$$$$$$$#...#..                   ",
"                       ..@%..@$$$$$$$$@%..@..                   ",
"                       ..#...#$$$$$$$$#...#..                   ",
"                       ..##@#$$$$$$$$$$#@##..                   ",
"                       ..###$$$#...#$$$$$##..                   ",
"                       ..#....$.....$$$$###..                   ",
"                      ........$.###.$$$###..                    ",
"                  ........oo..#@$$$@$####@..                    ",
"              ........oo++++..##########@..                     ",
"              ....o++oX.Xo++o..######@@...                      ",
"              ..oo++oX...Xo+o...@@@@@....                       ",
"               ..+++X.XoX.o+o........O..                        ",
"               ..o++.Xo+oo++..$$..@@@@..                        ",
"              ....++.Xo+oo+..#$$#..@@@..                        ",
"             ..$$..+X.XoX.o..###@..#@@..                        ",
"            ..#$$#..oX...Xoo..@@..###..                         ",
"            ..###@..+oX.XooXX.........                          ",
"             ..@@..ooooXX............                           ",
"              .....XX........                                   ",
"               ..........                                       ",
"                 ....                                           "
};
