/* XPM */
static char *_574960843788[] = {
/* columns rows colors chars-per-pixel */
"64 64 113 2 ",
"   c black",
".  c #2A2121",
"X  c #2A272E",
"o  c #28282E",
"O  c #322523",
"+  c #312A2C",
"@  c #282F3E",
"#  c #302E36",
"$  c #2E313C",
"%  c #3F3232",
"&  c #3C363C",
"*  c #402F2C",
"=  c #40302D",
"-  c #4D3936",
";  c #4C3B3A",
":  c #523F34",
">  c #583F3B",
",  c #5D483D",
"<  c #1F3D5A",
"1  c #233447",
"2  c #2B3545",
"3  c #25364E",
"4  c #2C374A",
"5  c #2B384D",
"6  c #3A3942",
"7  c #243953",
"8  c #2A3C54",
"9  c #233C5A",
"0  c #3F4555",
"q  c #254161",
"w  c #24466C",
"e  c #2F4A6E",
"r  c #3C526B",
"t  c #264872",
"y  c #2E4C74",
"u  c #244B78",
"i  c #3D5873",
"p  c #35567C",
"a  c #3D5D7C",
"s  c #4C4544",
"d  c #544344",
"f  c #5A4B43",
"g  c #564C48",
"h  c #584C48",
"j  c #454A54",
"k  c #4B4853",
"l  c #4F5056",
"z  c #5C5456",
"x  c #684F43",
"c  c #64514B",
"v  c #715549",
"b  c #605350",
"n  c #655857",
"m  c #645A5C",
"M  c #4A5360",
"N  c #4D5A6D",
"B  c #525E6E",
"V  c #595C68",
"C  c #4B617D",
"Z  c #0B5393",
"A  c #234F82",
"S  c #305787",
"D  c #375C80",
"F  c #016DB6",
"G  c #046EBA",
"H  c #086EBE",
"J  c #126FC7",
"K  c #0B75C3",
"L  c #0D79C6",
"P  c #0E7ACA",
"I  c #1373CA",
"U  c #1970CF",
"Y  c #137ECB",
"T  c #1A6FD2",
"R  c #1E72D3",
"E  c #3E6BCB",
"W  c #2471C7",
"Q  c #2673CC",
"!  c #2976CE",
"~  c #3F6ED2",
"^  c #2172D7",
"/  c #2B77D0",
"(  c #2D7AD4",
")  c #2472D9",
"_  c #3F72DB",
"`  c #3E7BF5",
"'  c #426ECF",
"]  c #426FD1",
"[  c #4271D6",
"{  c #4374DB",
"}  c #4975D8",
"|  c #4276E2",
" . c #4077E8",
".. c #417AED",
"X. c #427DF5",
"o. c #1A82CC",
"O. c #038EEF",
"+. c #048EF0",
"@. c #0C8DF1",
"#. c #0190F0",
"$. c #2486F2",
"%. c #2985F3",
"&. c #89A3DB",
"*. c #89ADF4",
"=. c #85ADF9",
"-. c #89AFF8",
";. c #CED9EE",
":. c #D2D6E4",
">. c #D2D9E9",
",. c #CEDAF4",
"<. c #CDDDFD",
"1. c #D0DEFA",
"2. c #D1E0FD",
/* pixels */
"                                                                                                                                ",
"                                                                                                                                ",
"                                                                                                                                ",
"                                                                                                                                ",
"                                                                                                                                ",
"                                                                                                                                ",
"                                                                                                                                ",
"                                                                                                                                ",
"                                                                                                                                ",
"                                                                                                                                ",
"                                                                                                                                ",
"                                                                                                                                ",
"                                                                                                                                ",
"                                                                                                                                ",
"                                                                                                                                ",
"                                                                                                                                ",
"                                                                                                                                ",
"                                                                                                                                ",
"                                                                                                                                ",
"                                                                                                                                ",
"                                                                                                                                ",
"                                                                                                                                ",
"                                                                                                                                ",
"                                                                                                                                ",
"                                                                                                                                ",
"                                                                                                                                ",
"                                                                                                                                ",
"                                                                                                                                ",
"                                                                F                                                               ",
"                                                              F F                                                               ",
"                                                            F X.F                                                               ",
"                                                            #.X.#.                  F                                           ",
"                                                            O.X.+.                F +.                                          ",
"                                                              O.I                 #.                                            ",
"                                                    F     R U T R G                                                             ",
"                                                  G +.R R ^ H +.+.O.G T                                                         ",
"                                                G G +.) ) H @.+.@.#.@.G ^                                                       ",
"                                                G O.@.H H @.@.@.@.@.@.G G ^                                                     ",
"                                              G G #.@.@.K @.@.@.@.@.@.@.H G                                                     ",
"                                              G @.@.+.@.@.$.@.%.@.@.@.@.@.H )                                                   ",
"                                              G @.+.@.@.@.@.%.%.%.@.@.@.@.G )                                                   ",
"                                            U #.#.@.@.@.@.%.%.%.%.@.@.@.@.@.K T                                                 ",
"                                            U +.@.@.@.%.%.X.X.X.%.%.@.@.@.@.@.T R                                               ",
"                                          J F @.$.%.$.%.X.X.X.X.X.%.@.$.K @.K K R                                               ",
"                                          F $.X.X.$.$.%.X.X.2.X.X.X.@.@.@.@.%.%.O.F                                             ",
"                                        G $.X.X.X.X.X.%.X.X.*.X.X.X.%.@.%.%.X.X.X.$.+.F                                         ",
"                                        G X.X.X.X.X.X.X.%.X.X.X.X.X.%.%.X.X.X.X.X.X.X.$.F                                       ",
"                                        +.X.X.X.X._ |  ...%.X.X.X.%.X.X.X.X.X.X.X.X.X.X.F                                       ",
"                                        #.X.X.X.~ [ ` ` ....X.-.X.X.X.X.X.X.X.X.X.X.X.X.#.                                      ",
"                                        #.$.` E [ ` ` ` X...*.1.-.X.X... ._ [ X.X.X.X.%.#.                                      ",
"                                        #.+.$.E ~ [ ` ` X.*.1.<.<.....` ` | ` ~ X.X.X.$.#.                                      ",
"                                          #.+.$.Q ~ ~ |  .;.,.,.<.-.X.X.` { [ ' ' X.$.#.                                        ",
"                                          #.O.#.$.Q ~ _ _ <.<.<.<.<.=.{ { [ [ ' W O.+.                                          ",
"                                            O.K K Q Q $.` =.<.>.>.>.| { [ ~ Q W @.O.                                            ",
"                                            < a o.Y Y / ( { &.:.>.&.{ ~ ! ! L K O.                                              ",
"                                            2 B i D o.Y Y ( } &.&.~ Q P L L L Z                                                 ",
"                                          o n l V N C p S Y / ] E Q Y A u w q 7 1                                               ",
"                                          . c g z l M B r e y t t t w q 9 8 0 k 6 o                                             ",
"                                          . f v h b n m j 5 8 8 8 7 3 4 2 6 & & d % .                                           ",
"                                          . , x , f c h s $ $ @ @ $ 6 # & d ; ; = - .                                           ",
"                                          . : , x v , : + + X X X # + + % - % % > * .                                           ",
"                                            . : , , : . . .       . . O O % - > * O .                                           ",
"                                              . . . .                 . . O * * O .                                             ",
"                                                                          . . . .                                               "
};
