/* XPM */
static char *_574960847725[] = {
/* columns rows colors chars-per-pixel */
"64 64 15 1 ",
"  c black",
". c #272727",
"X c #432B23",
"o c #53352B",
"O c #603931",
"+ c #6A4814",
"@ c #7E5516",
"# c #6A4137",
"$ c #70443A",
"% c #A97601",
"& c #864B46",
"* c #CD9002",
"= c #F4AB02",
"- c #F8CA60",
"; c white",
/* pixels */
"                                                                ",
"                                                                ",
"                                                                ",
"                                                                ",
"                                                                ",
"                                                                ",
"                                                                ",
"                                                                ",
"                                                                ",
"                                                                ",
"                                                                ",
"                                                                ",
"                                                                ",
"                                                                ",
"                                                                ",
"                                                                ",
"                                                                ",
"                                                                ",
"                                                                ",
"                                                                ",
"                                                                ",
"                                                                ",
"                                                                ",
"                                                                ",
"                                                                ",
"                                                                ",
"                                                                ",
"                                                                ",
"                                                                ",
"                                                                ",
"                                                                ",
"                                                                ",
"                                                                ",
"                                                                ",
"                                                                ",
"                                                                ",
"                                                                ",
"                                                                ",
"                                                                ",
"                                                                ",
"                                                                ",
"                  ............................                  ",
"                 .*==*@#$$$$#@*==*@#$$$$#@*==*.                 ",
"                 .=-;=%$&&&&$%=;;=%$&&&&$%=;-=.                 ",
"                 .=-;=%$&&&&$%=;;=%$&&&&$%=;-=.                 ",
"                 .=--=%$&&&&$%=--=%$&&&&$%=--=.                 ",
"                 .*==*@#$$$$#@*==*@#$$$$#@*==*.                 ",
"                 .%**%+O####O+%**%+O####O+%**%.                 ",
"                 .%**%+O####O+%%%%+O####O+%**%.                 ",
"                 .@%%@+oOOOOo+@@@@+oOOOOo+@%%@.                 ",
"                 .@%%@+oOOOO+@;;-%@+OOOOo+@%%@.                 ",
"                 .+@@++Xoooo@-+..+%@ooooX++@@+.                 ",
"                 .%***%*;;;+%%....%%+;;;*%***%.                 ",
"                 .@%%%%%%%%+%%....%%+%%%%%%%%@.                 ",
"                 .@@@@@@@@@+@%+..+%@+@@@@@@@@@.                 ",
"                  .++Xoooooo+@%..%@+ooooooX++.                  ",
"                  .@+oooooooo@%..%@oooooooo+@.                  ",
"                  .%@oOOOOOOo+@%%@+OOOOOOOo@%.                  ",
"                  .%@oOO####OoooooO#####OOo@%.                  ",
"                  .%@oO##################Oo@%.                  ",
"                  .@+oOOOOOOOOOOOOOOOOOOOOo+@.                  ",
"                  .@@@@@@@@@@@@@@@@@@@@@@@@@@.                  ",
"                  .++++++++++++++++++++++++++.                  ",
"                   ..........................                   "
};
