/* XPM */
static char *_574960851244[] = {
/* columns rows colors chars-per-pixel */
"64 64 3 1 ",
"  c black",
". c #DFDFDF",
"X c white",
/* pixels */
"                            .                                   ",
"                           ..           .                       ",
"                   .      . ....        .                       ",
"                   .     .  ..  ...    ..                       ",
"                   ..   .   ..     ... .                        ",
"                    .  .    ...       ..                        ",
"                    ...   .. . ..    ..                         ",
"                     .. ..   .   .. ...                         ",
"                     ...     ..    .. .                         ",
"                     . ...   ..  ...   .                        ",
"                     . . ......... .   .                        ",
"                    .  .   ......  . ......                     ",
"                    .  .  ............ .                        ",
"                    . ...........  .  .                         ",
"                  .......   ...... .  .                         ",
"                     .   . .  .  ..  .                          ",
"                     .    ... .  ... .                          ",
"                     .   ..  ....  ...                          ",
"                      X ..    ..    ..                          ",
"                      X .      .    ....                        ",
"                       .....   .  ..   ..                       ",
"                      ..    ......      ...                     ",
"                     ..        .                                ",
"                    ..         .                                ",
"                   ..          .                                ",
"                  .                                             ",
"                                                                ",
"                                                                ",
"                                                                ",
"                                                                ",
"                                                                ",
"                                                                ",
"                                                                ",
"                                                                ",
"                                                                ",
"                                                                ",
"                                                                ",
"                                                                ",
"                                                                ",
"                                                                ",
"                                                                ",
"                                                                ",
"                                                                ",
"                                                                ",
"                                                                ",
"                                                                ",
"                                                                ",
"                                                                ",
"                                                                ",
"                                                                ",
"                                                                ",
"                                                                ",
"                                                                ",
"                                                                ",
"                                                                ",
"                                                                ",
"                                                                ",
"                                                                ",
"                                                                ",
"                                                                ",
"                                                                ",
"                                                                ",
"                                                                ",
"                                                                "
};
