/* XPM */
static char *_574956174877[] = {
/* columns rows colors chars-per-pixel */
"64 64 7 1 ",
"  c black",
". c #080000",
"X c #775422",
"o c #9E712E",
"O c #C68F3C",
"+ c gray75",
"@ c white",
/* pixels */
"                                                                ",
"                                                                ",
"                                                                ",
"                                                                ",
"                                                                ",
"                                                                ",
"                                                                ",
"                                                                ",
"                                                                ",
"                                                                ",
"                                                                ",
"                                                                ",
"                                                                ",
"                                                                ",
"                                                                ",
"                                                                ",
"                                                                ",
"                                                                ",
"                                                                ",
"                                                                ",
"                                                                ",
"                                                                ",
"                                                                ",
"                                                                ",
"                                                                ",
"                                                                ",
"                                                                ",
"                                                                ",
"                                                                ",
"                                                                ",
"                                                                ",
"                                                                ",
"                                                                ",
"                                                                ",
"                                                                ",
"                                                                ",
"                                                                ",
"                                                                ",
"                                                                ",
"                                                                ",
"                                                                ",
"                                                                ",
"                                                                ",
"                                                                ",
"                                                                ",
"                                                                ",
"                                                                ",
"                                                                ",
"                                                                ",
"                                                                ",
"                                                                ",
"                                                                ",
"                             ......                             ",
"                          ............                          ",
"                         ....oO.OOo....                         ",
"                        ..oOOo...oO+@@..                        ",
"                       ..oOOO.oOOO+@@Oo..                       ",
"                       ..oOOOo...+@@OOo..                       ",
"                       ...oOOOo.+@@OOo...                       ",
"                       ..X...oo+@@o...X..                       ",
"                        ..Xoo......ooX..                        ",
"                         ....XooooX....                         ",
"                          ............                          ",
"                             ......                             "
};
