/* XPM */
static char *_574960859037[] = {
/* columns rows colors chars-per-pixel */
"64 64 14 1 ",
"  c black",
". c #1B1216",
"X c #37231C",
"o c #3C2721",
"O c #4A3419",
"+ c #412B22",
"@ c #442D23",
"# c #422C26",
"$ c #4D3028",
"% c #51362E",
"& c #654239",
"* c #755331",
"= c #875B4E",
"- c #A78347",
/* pixels */
"                                                                ",
"                                                                ",
"                                                                ",
"                                                                ",
"                                                                ",
"                                                                ",
"                                                                ",
"                                                                ",
"                                                                ",
"                                                                ",
"                                                                ",
"                                                                ",
"                                                                ",
"                                                                ",
"                                                                ",
"                                                                ",
"                                                                ",
"                                                                ",
"                                                                ",
"                                                                ",
"                                                                ",
"                                                                ",
"                                                                ",
"                                                                ",
"                                                                ",
"                                                                ",
"                                                                ",
"                                                                ",
"                                                                ",
"                                                                ",
"                                                                ",
"                                                                ",
"                                                                ",
"                                                                ",
"                                                                ",
"                                                                ",
"                                                                ",
"                                                                ",
"                              .+                                ",
"                             .+. ..                             ",
"                            .+%+.-*.                            ",
"                            .+++#**.                            ",
"                           .o###o#++..                          ",
"                          .+#ooo#+%%++.                         ",
"                         .+%&&%&==&%++.                         ",
"                        .+%&==&&&&%+#oo.                        ",
"                        .+**+&%%++#oo#++..                      ",
"                        .*-*O++##oo#+%&&++.                     ",
"                       .o***O#ooo#+&%&=&%+.                     ",
"                      .++XOOXo#+%%&&+=&&%++.                    ",
"                     .++%&X$=&&%%==&++%%+++.                    ",
"                    .#+%%&&===&&%&&%+#++++#.                    ",
"                    .**##%&&&&&%#%%%######oo.                   ",
"                   .*--O##o####ooo#*-*oooo+#.                   ",
"                   .O--O#ooo##ooooo--OX%&%++.                   ",
"                   .XOOXoooooo+%&&%OOOX%%%+##.                  ",
"                   .+XX&%&==&%&==&%@XX%%#++##.                  ",
"                   .+%%&%&&&&%&&&&+%%%+##+###.                  ",
"                   .o####+++###+++######o##oo.                  ",
"                    .o##o####o#######o#oo#oo.                   ",
"                     .oooo##ooo#####ooooooo.                    ",
"                      ...oooooooooooooooo..                     ",
"                        .....oooooooo.....                      ",
"                            ..........                          "
};
