/* XPM */
static char *_575043527719[] = {
/* columns rows colors chars-per-pixel */
"64 64 11 1 ",
"  c black",
". c #080000",
"X c #111111",
"o c #252525",
"O c gray21",
"+ c #790000",
"@ c #493936",
"# c #464646",
"$ c #66504C",
"% c #856963",
"& c white",
/* pixels */
"                                                                ",
"                                                                ",
"                                                                ",
"                                                                ",
"                                                                ",
"                                                                ",
"                                                                ",
"                                                                ",
"                                                                ",
"                                                                ",
"                                                                ",
"                                                                ",
"                                                                ",
"                                                                ",
"                                                                ",
"                                                                ",
"                                                                ",
"                                                                ",
"                                                                ",
"                                                                ",
"                                                                ",
"                                                                ",
"                                                                ",
"                                                                ",
"                                                                ",
"                                                                ",
"                                                                ",
"                                                                ",
"                                                                ",
"                                                                ",
"                                                                ",
"                                                                ",
"                                                                ",
"                                                                ",
"                                                                ",
"                                                                ",
"                                                                ",
"                                                                ",
"                      ..     ........     ..                    ",
"                      .... ............ ....                    ",
"                      .......OO####OO.......                    ",
"                       ....OO#########O....                     ",
"                        ..O############O..                      ",
"                       ..O##############O..                     ",
"                       ..OoO##########OoO..                     ",
"                      ..O+++O########O+++O..                    ",
"                      ..o&++o########o&++o..                    ",
"                      ..O+++O########O+++O..                    ",
"                      ..OOoO##########OoOO..                    ",
"                      ..O....#O...O#####OO..                    ",
"                     ........#.....####OOO..                    ",
"                 ........$$..#.OOO.###OOO..                     ",
"             ........$%%%%%..Oo###o#OOOOo..                     ",
"             ....$%%%%%%%%%$..OOOOOOOOOo..                      ",
"             ..$$%$..$..$%%$...OOOOOoo...                       ",
"              ..%%.$$.++.%%$....oooo....                        ",
"              ..$%.$%+++.%$..##.....X..                         ",
"             ....$$.$%+.$%..O##O..ooo..                         ",
"            ..##..$$.+.$%%..OOOo..ooo..                         ",
"           ..O##O..%$.$%%%$..oo..OOoo..                         ",
"           ..OOOo..%%%%%$$@@....OOOO..                          ",
"            ..oo..$$$$@@.............                           ",
"             .....@@........ .......                            ",
"              ..........                                        "
};
