/* XPM */
static char *_574942837798[] = {
/* columns rows colors chars-per-pixel */
"64 64 9 1 ",
"  c black",
". c #281D19",
"X c #2E1F19",
"o c #30221D",
"O c #3A2720",
"+ c #422D25",
"@ c #54392F",
"# c #795041",
"$ c #B0735D",
/* pixels */
".oooooooooooooooooooooooooooooooooooooooooooooooooooooooooooooo.",
"o+#@@@@@@@@@@@@X@@@@@@@@@@@@@@@@@@@@@@@@@@@@@@@X@@@@@@@@@@X@@@#o",
"o+#$$$$$$$$$$$##@#####$$$$$$$$$$$$$$$$$$$$$$$$$$@$$$$$$$$$$$$$#o",
"o@#$$$$$$$$$$$$$$$$$$$$$$$$$$$$$$$$$$$$$$$$$$$$$#$$$$$$$$$$$$@#o",
"o+o#$$$$$$$$$$$$$$$$$$$$$$$$$$$$$$$$$$$$$$$$$$$+$$$$$$$$$$#$$#Oo",
"o##$$$$$$$$$$$$$$$$$$$$$$$$$$$$$$$$$$$$$$$$O###$$$$$$$$$$#$$$#+o",
"o@@@######@@@@##@@@@@@@@@###############@@@@@@@##############@@o",
"o+++++++++++++++++++++++++++++++++++++++++ooo++++++++++++++++++o",
".ooooooo.oooooooooooooooooooooooooooooooooooooooooooooo.ooooooo.",
"o+++++++o                                              o+++++++o",
"o@@@++++o                                              o++++@@@o",
"o@###+++o                                              o+++@@@@o",
"o#####++o                                              o++@@###o",
"o#####++o                                              o++@@###o",
"o#####++o                                              o++@@###o",
"o@####++o                                              o++@@###o",
"o@####++o                                              o++@@###o",
"o#####++o                                              o++@@###o",
"o#####++o                                              o++@@###o",
"o####@++o                                              o++@###@o",
"o####@++o                                              o++@###@o",
"o#####++o                                              o++@###@o",
"o#####++o                                              o++####@o",
"o#####++o                                              o++####@o",
"o@####++o                                              o++####@o",
"o@####++o                                              o++###@#o",
"o@###+++o                                              o++###@#o",
"o@###+++o                                              o++###@#o",
"o@####++o                                              o++###@#o",
"o@####++o                                              o++###@#o",
"o@####++o                                              o++#####o",
"o@####++o                                              o+++####o",
"o@####++o                                              o++#####o",
"o@####++o                                              o++#####o",
"o@####++o                                              o++#####o",
"o#####++o                                              o++#####o",
"o#####++o                                              o++####@o",
"o#####++o                                              o++####@o",
"o@####++o                                              o++#####o",
"o@####++o                                              o++@####o",
"o@####++o                                              o++@####o",
"o@####++o                                              o++@####o",
"o@####++o                                              o++@####o",
"o#####++o                                              o++@####o",
"o####@++o                                              o++@####o",
"o#####++o                                              o++@####o",
"o#####++o                                              o++@####o",
"o#####++o                                              o++@####o",
"o#####++o                                              o++@####o",
"o#####++o                                              o++@####o",
"o#####++o                                              o++@####o",
"o@####++o                                              o++#####o",
"o@####++o                                              o++@####o",
"o@@###++o                                              o++@####o",
"o@@###++o                                              o++#####o",
"o@@###++o                                              o++####@o",
"o@####++o                                              o++#####o",
"o@####++o                                              o++#####o",
"o#####++o                                              o++#####o",
"o#####++o                                              o++#####o",
"o####+++o                                              o+++@###o",
"o###++++o                                              o++++@@#o",
"o@##++++o                                              o++++@@@o",
".ooooooo                                                ooooooo."
};
