/* XPM */
static char *_574955715188[] = {
/* columns rows colors chars-per-pixel */
"64 64 9 1 ",
"  c #211714",
". c #281D19",
"X c #2E1F19",
"o c #30221D",
"O c #3A2720",
"+ c #422D25",
"@ c #54392F",
"# c #795041",
"$ c #B0735D",
/* pixels */
".oooooooooooooooooooooooooooooooooooooooooooooooooooooooooooooo.",
"o+#@@@@@@@@@@@@X@@@@@@@@@@@@@@@@@@@@@@@@@@@@@@@X@@@@@@@@@@X@@@#o",
"o+#$$$$$$$$$$$##@#####$$$$$$$$$$$$$$$$$$$$$$$$$$@$$$$$$$$$$$$$#o",
"o@#$$$$$$$$$$$$$$$$$$$$$$$$$$$$$$$$$$$$$$$$$$$$$#$$$$$$$$$$$$@#o",
"o+o#$$$$$$$$$$$$$$$$$$$$$$$$$$$$$$$$$$$$$$$$$$$+$$$$$$$$$$#$$#Oo",
"o##$$$$$$$$$$$$$$$$$$$$$$$$$$$$$$$$$$$$$$$$O###$$$$$$$$$$#$$$#+o",
"o@@@######@@@@##@@@@@@@@@###############@@@@@@@##############@@o",
"o+++++++++++++++++++++++++++++++++++++++++ooo++++++++++++++++++o",
".ooooooo.oooooooooooooooooooooooooooooooooooooooooooooo.ooooooo.",
"o+++++++o                                              o+++++++o",
"o@@@++++.ooooooooooooooooooooooo.oooooooooooooooooooooo.++++@@@o",
"o@###+++o.o+++++++++++++++++++++o+++++++++++++++o++++o.o+++@@@@o",
"o#####++oo++++++++++++++++++++++o+++++++++++++++++++++oo++@@###o",
"o#####++o+++++++++++++++++++++++o++++++++++++++++++++++o++@@###o",
"o#####++o+++++++++++++++++++++++o++++++++++++++++++++++o++@@###o",
"o@####++o++++@@@@@@@@@@@+@@@@@@@+@@@@@@@@@@@@@@@@@@++++o++@@###o",
"o@####++o++@@@@@@@@@@@@@@@@@@@@@+@@@@@@@@@@@@@@@@@@@@++o++@@###o",
"o#####++o+@@@@@@@@@@@@@@@@@@@@@@+@@@@@@@@@@@@@@@@@@@@@+o++@@###o",
"o#####++o+@@@@@@@@@@@@@@@@@@@@@@+@@@@@@@@@@@@@@@@@@@@@+o++@@###o",
"o####@++o@@@@@@@@@@@@@@@@@@@@@@@+@@@@@@@@@@@@@@@@@@@@@@o++@###@o",
"o####@++o@@@@@##################@#################@@@@@o++@###@o",
"o#####++o@@@####################@###################@@@o++@###@o",
"o#####++o@@#################@@@@@@@@@################@@o++####@o",
"o#####++o@@###############@@.........@@##############@@o++####@o",
"o@####++o@@##############@..@@@@@@@@@..@#############@@o++####@o",
"o@####++o@##############@.@@#########@@.@#############@o++###@#o",
"o@###+++o+#############@.@@#@.......@#@@.@############+o++###@#o",
"o@###+++o+#############@.@#@.........@#@.@############+o++###@#o",
"o@####++o+@###########@.@#@...........@#@.@###########@o++###@#o",
"o@####++o+@###########@.@#@...........@#@.@###########+o++###@#o",
"o@####++o+@###########@.@#.............#@.@###########@o++#####o",
"o@####++o+@###########@.@#.............#@.@###########@o+++####o",
"o@####++o+@###########@.@#.............#@.@###########@o++#####o",
"o@####++o+@###########@.@#.............#@.@###########@o++#####o",
"o@####++o+@###########@.@#.............#@.@###########@o++#####o",
"o#####++o+@###########@.@#.............#@.@###########+o++#####o",
"o#####++o+@###########@.@#@...........@#@.@###########+o++####@o",
"o#####++o+##############.@#@.........@#@.@###########@+o++####@o",
"o@####++o+###############.@@.........@@.@############@+o++#####o",
"o@####++o+###############@.#@.......@#.@#############@+o++@####o",
"o@####++o+###############@.@#@.....@#@.@##############+o++@####o",
"o@####++o@##############@.@#@.......@#@.@#############+o++@####o",
"o@####++o@##############@.@@.........@@.@#############+o++@####o",
"o#####++o@##############@.@@.........@@.@############@+o++@####o",
"o####@++o+##############@.o@.........@o.@#############+o++@####o",
"o#####++o@##############@.o@.........@o.@############@+o++@####o",
"o#####++o@##############@.o@o.......o@o.@############@+o++@####o",
"o#####++o+###############@.o@o.....o@o.@##############+o++@####o",
"o#####++o+###############@.oo@@@@@@@oo.@##############@o++@####o",
"o#####++o+################@..ooooooo..@###############@o++@####o",
"o#####++o+#################@@.......@@################@o++@####o",
"o@####++o+####################@@@@@###################@o++#####o",
"o@####++o+######################@#####################@o++@####o",
"o@@###++o+######################@#####################+o++@####o",
"o@@###++o+@#####################@#####################+o++#####o",
"o@@###++o+######################+@####################+o++####@o",
"o@####++o+######################+#####################+o++#####o",
"o@####++o+@####################@+@###################@+o++#####o",
"o#####++o+@####################@o@###################@+o++#####o",
"o#####++o+@@##################@+o+@#################@@+o++#####o",
"o####+++oo+@#################@++o++@################@+oo+++@###o",
"o###++++oo+@@##############@@+++o+++@@#############@@+oo++++@@#o",
"o@##++++oooo++++++++++++++++++++o+++++++++++++++++++oooo++++@@@o",
".ooooooo.oooooooooooooooooooooooooooooooooooooooooooooo.ooooooo."
};
