/* XPM */
static char *_574955586167[] = {
/* columns rows colors chars-per-pixel */
"64 64 109 2 ",
"   c black",
".  c #040101",
"X  c #050303",
"o  c #060202",
"O  c #070505",
"+  c #0E0303",
"@  c #080403",
"#  c #080404",
"$  c #090606",
"%  c #0D0506",
"&  c #0C0909",
"*  c #0E0D0D",
"=  c #180708",
"-  c #140A0A",
";  c #150C0C",
":  c #0C1E1C",
">  c #101111",
",  c #101717",
"<  c gray8",
"1  c #141919",
"2  c #171B1B",
"3  c #121C1C",
"4  c #181A1A",
"5  c #1F1919",
"6  c #210606",
"7  c #280606",
"8  c #3E0A0A",
"9  c #221717",
"0  c #271414",
"q  c #281515",
"w  c #2B1717",
"e  c #201818",
"r  c #331010",
"t  c #450707",
"y  c #4C0606",
"u  c #550303",
"i  c #570303",
"p  c #500505",
"a  c #510707",
"s  c #5E0303",
"d  c #540E0E",
"f  c #570E10",
"g  c #431313",
"h  c #531010",
"j  c #551011",
"k  c #5A1010",
"l  c #610202",
"z  c #600606",
"x  c #6B0202",
"c  c #6E0101",
"v  c #6A080A",
"b  c #730000",
"n  c #750000",
"m  c #7E0000",
"M  c #730A0A",
"N  c #750B0B",
"B  c #820000",
"V  c #870000",
"C  c #890000",
"Z  c #8D0000",
"A  c #8C0606",
"S  c #960506",
"D  c #9B0000",
"F  c #83100E",
"G  c #9D1B18",
"H  c #A30000",
"J  c #A50304",
"K  c #AE0000",
"L  c #A80304",
"P  c #B40000",
"I  c #BE0000",
"U  c #BA0906",
"Y  c #A73334",
"T  c #C20101",
"R  c #C70000",
"E  c #CC0000",
"W  c #D50000",
"Q  c #D60000",
"!  c #D90000",
"~  c #DE0000",
"^  c #E30000",
"/  c #E60000",
"(  c #EB0000",
")  c #ED0000",
"_  c #EF0000",
"`  c #EB0C07",
"'  c #E90D09",
"]  c #F20000",
"[  c #F30000",
"{  c #F60000",
"}  c #EF291F",
"|  c #ED3024",
" . c #ED3025",
".. c #EF382B",
"X. c #EF3C2E",
"o. c #F23127",
"O. c #EB3D31",
"+. c #EE4233",
"@. c #EF4C45",
"#. c #F0544E",
"$. c #F6696B",
"%. c #F66C6D",
"&. c #F37E6E",
"*. c #F38067",
"=. c #F79D7F",
"-. c #F7A281",
";. c #FAC9B8",
":. c #FBD3C3",
">. c white",
/* pixels */
"                                                                                                                                ",
"                                                                                                                                ",
"                                                                                                                                ",
"                                                                                                                                ",
"                                                                                                                                ",
"                                                                                                                                ",
"                                                                                                                                ",
"                                                                                                                                ",
"                                                                                                                                ",
"                                                                                                                                ",
"                                                                                                                                ",
"                                                                                                                                ",
"                                                                                                                                ",
"                                                                                                                                ",
"                                                                                                                                ",
"                                                                                                                                ",
"                                                                                                                                ",
"                                                                                                                                ",
"                                                                                                                                ",
"                                                                                                                                ",
"                                                                                                                                ",
"                                                                                                                                ",
"                                                                                                                                ",
"                                                                                                                                ",
"                                                                                                                                ",
"                                                                                                                                ",
"                                                                                                                                ",
"                                                                                                                                ",
"                                                                                                                                ",
"                                                                                                                                ",
"                                                                                                                                ",
"                                                                                                                                ",
"                                                                                                                                ",
"                                                                                                                                ",
"                                                                                                                                ",
"                                                                                                                                ",
"                                                                                                                                ",
"                                                                                                                                ",
"                                                                                                                                ",
"                                                                                                                                ",
"                                                                                                                                ",
"                                                                                                                                ",
"                                                      . .                 .                                                     ",
"                                                    .   .             . . . .                                                   ",
"                                                  & 1 1 1 X           1 1 1 *                                                   ",
"                                                X 7 f f k 6 .     . + d f k 8 . .                                               ",
"                                              . : v { ) ] z : . . , w / ) ] L : &                                               ",
"                                          . $ 7 N Y %.#.+.G M 6 % v F O. .( T N t $ .                                           ",
"                                          . 3 j ] %.>.:.-.o.) g 1 ! ` =.*./ ( { S 3 $                                           ",
"                                          . 1 h ) @.;.&.+.' / J S ~ ( X. .( / ) A 1 @                                           ",
"                                        . . 1 h ) ..-.+./ / / ) ] / / ( / ( ( ) A 3 . .                                         ",
"                                          . 4 t D U } ` ( / / / / ( / / ( ( Q D z 3 $                                           ",
"                                          . 4 r n H ( ( ( / ( / / / / ( ( ( T b y 2 $                                           ",
"                                            . % 0 p Z I ) / / / ( / / ( Q Z x w = .                                             ",
"                                              . 1 8 b K / / / ( ( / / ^ E n i 1 & .                                             ",
"                                                  % 5 u B R ) / / ( ~ V c e ;                                                   ",
"                                                  @ < t x P ! / / ! E b i < &                                                   ",
"                                                      & 4 s m Q ( C b 5 <                                                       ",
"                                                      % > t l P R c i ; -   .                                                   ",
"                                                          * 1 x n 9 1                                                           ",
"                                                          $ & t p - &                                                           ",
"                                                            . , 1                                                               ",
"                                                              $ %                                                               ",
"                                                                .                                                               "
};
