/* XPM */
static char *_574955592940[] = {
/* columns rows colors chars-per-pixel */
"64 64 110 2 ",
"   c black",
".  c #050101",
"X  c #060202",
"o  c #070505",
"O  c #0A0304",
"+  c #090606",
"@  c #0C0606",
"#  c #0C0809",
"$  c #100C0B",
"%  c #100D0C",
"&  c #100D11",
"*  c #131211",
"=  c #141213",
"-  c #171512",
";  c #171713",
":  c #121015",
">  c #181715",
",  c #191817",
"<  c #191917",
"1  c #141319",
"2  c #1A1A19",
"3  c #1A1B1C",
"4  c #1B1C1F",
"5  c #1B1C21",
"6  c #1B1E21",
"7  c #1C1F27",
"8  c #1E202A",
"9  c #1C212E",
"0  c #1C2230",
"q  c #1F2534",
"w  c #20212E",
"e  c #202736",
"r  c #242933",
"t  c #222938",
"y  c #222B3F",
"u  c #282D3C",
"i  c #282E3D",
"p  c #29303E",
"a  c #222C42",
"s  c #232D44",
"d  c #232E47",
"f  c #253046",
"g  c #2A3040",
"h  c #2A3140",
"j  c #23304A",
"k  c #24304A",
"l  c #24314C",
"z  c #27334F",
"x  c #2C3449",
"c  c #30384E",
"v  c #283552",
"b  c #2A3755",
"n  c #2B3856",
"m  c #2B3958",
"M  c #2C3A5A",
"N  c #313A50",
"B  c #313F61",
"V  c #38425B",
"C  c #324063",
"Z  c #374461",
"A  c #394564",
"S  c #354468",
"D  c #3D4C6D",
"F  c #394B70",
"G  c #3E4D70",
"H  c #3D4E75",
"J  c #3F517A",
"K  c #475270",
"L  c #41537E",
"P  c #47567D",
"I  c #455680",
"U  c #445784",
"Y  c #455885",
"T  c #475B89",
"R  c #475C8A",
"E  c #4A5E8C",
"W  c #4B5F8D",
"Q  c #4D6191",
"!  c #4C6192",
"~  c #4D6292",
"^  c #4C6294",
"/  c #4E6394",
"(  c #4C6296",
")  c #4F6497",
"_  c #4C6399",
"`  c #4F659A",
"'  c #506597",
"]  c #506598",
"[  c #536798",
"{  c #51679C",
"}  c #52699E",
"|  c #5B6D9D",
" . c #5C6D9D",
".. c #5B6EA0",
"X. c #6A7AA8",
"o. c #6C7CA8",
"O. c #737FAA",
"+. c #7180AD",
"@. c #7380AC",
"#. c #7481AD",
"$. c #7682AF",
"%. c #828EB4",
"&. c #8793B7",
"*. c #989EC3",
"=. c #9DA5C5",
"-. c #9CA8C5",
";. c #A8ACCD",
":. c #CFD0E4",
">. c #D6D7E8",
",. c white",
/* pixels */
"                                                                                                                                ",
"                                                                                                                                ",
"                                                                                                                                ",
"                                                                                                                                ",
"                                                                                                                                ",
"                                                                                                                                ",
"                                                                                                                                ",
"                                                                                                                                ",
"                                                                                                                                ",
"                                                                                                                                ",
"                                                                                                                                ",
"                                                                                                                                ",
"                                                                                                                                ",
"                                                                                                                                ",
"                                                                                                                                ",
"                                                                                                                                ",
"                                                                                                                                ",
"                                                                                                                                ",
"                                                                                                                                ",
"                                                                                                                                ",
"                                                                                                                                ",
"                                                                                                                                ",
"                                                                                                                                ",
"                                                                                                                                ",
"                                                                                                                                ",
"                                                                                                                                ",
"                                                                                                                                ",
"                                                                                                                                ",
"                                                                                                                                ",
"                                                                                                                                ",
"                                                                                                                                ",
"                                                                                                                                ",
"                                                                                                                                ",
"                                                                                                                                ",
"                                                                                                                                ",
"                                                                                                                                ",
"                                                                                                                                ",
"                                                                                                                                ",
"                                                                                                                                ",
"                                                                                                                                ",
"                                                                                                                                ",
"                                                                                                                                ",
"                                                      . .                                                                       ",
"                                                    . . .             . . . .                                                   ",
"                                                . O 2 2 2 o           > > > %   .                                               ",
"                                                . ; u g g : .     . + u u g 8 . .                                               ",
"                                              . - x _ ^ ` g > .   - 7 Q ] } D - @                                               ",
"                                          . + 1 N E -.&.$.K N & @ x V O.o.] I N w + .                                           ",
"                                        .   , p ^ -.,.>.;.o.] r 2 W ..;.*.) ] } Z 2 +                                           ",
"                                          . 2 u ^ %.:.=.O. .] D A Q [ #.o.) ' { V 2 X                                           ",
"                                        .   > u ] +.;.#.Q ] ' ' ] ] ^ Q ^ ) ' ] Z > . .                                         ",
"                                          . , w C P X. .^ ] ^ ' ^ ` ) ) ) ' Y C g > +                                           ",
"                                          . 2 7 j S ^ ^ ] ] ^ ' ] ' ' ^ ) ] L l e 2 +                                           ",
"                                              + 6 t m J ' ] ' ' ' ^ ' ' R M f 6 &                                               ",
"                                              . > 8 d F Q ^ ] ^ ' ' ' Q I k t > # .                                             ",
"                                                  @ 6 t v I ] ] ^ ] W b f 4 &                                                   ",
"                                                  + ; 9 d H E ^ ' E I k t > #                                                   ",
"                                                      # , y z T ' n k 4 *                                                       ",
"                                                      @ $ 0 y H L d t * $   .                                                   ",
"                                                      .   % 2 a k 4 ;                                                           ",
"                                                          + # 9 e % #                                                           ",
"                                                              ; 2 .                                                             ",
"                                                              + +                                                               ",
"                                                                .                                                               "
};
