/* XPM */
static char *_574955599375[] = {
/* columns rows colors chars-per-pixel */
"64 64 25 1 ",
"  c black",
". c #040404",
"X c gray3",
"o c #0C0C0C",
"O c gray7",
"+ c gray8",
"@ c #181818",
"# c gray11",
"$ c gray13",
"% c gray14",
"& c gray16",
"* c #2F2F2F",
"= c #313131",
"- c #343434",
"; c gray23",
": c gray24",
"> c #4B4B4B",
", c gray30",
"< c #515151",
"1 c #5A5A5A",
"2 c DimGray",
"3 c gray53",
"4 c gray61",
"5 c gray66",
"6 c white",
/* pixels */
"                                                                ",
"                                                                ",
"                                                                ",
"                                                                ",
"                                                                ",
"                                                                ",
"                                                                ",
"                                                                ",
"                                                                ",
"                                                                ",
"                                                                ",
"                                                                ",
"                                                                ",
"                                                                ",
"                                                                ",
"                                                                ",
"                                                                ",
"                                                                ",
"                                                                ",
"                                                                ",
"                                                                ",
"                                                                ",
"                                                                ",
"                                                                ",
"                                                                ",
"                                                                ",
"                                                                ",
"                                                                ",
"                                                                ",
"                                                                ",
"                                                                ",
"                                                                ",
"                                                                ",
"                                                                ",
"                                                                ",
"                                                                ",
"                                                                ",
"                                                                ",
"                                                                ",
"                                                                ",
"                                                                ",
"                                                                ",
"                          ...      ....                         ",
"                          XXX      XXXX                         ",
"                        .O#$$o.   X#$#@..                       ",
"                        o+%%$+o  oo$%%#XX                       ",
"                      .X$$*==%$X.#$*==&$+                       ",
"                     XO+$,31:*%+O%&::=*%#Oo                     ",
"                    .X$%*365,:*$$*-<>**=&$O                     ",
"                    .X#$*142;-=&&*=:;=*=&$o.                    ",
"                    .X#%*:,;**=*=****=*=%$o.                    ",
"                    .X$$#&;=*=*=*==*=**$#$O.                    ",
"                    .X$#@%=*=*=*=*=*=*&@#$O                     ",
"                      Xo$##&==*=*=*=*###+X.                     ",
"                      .o##@%*=***==*&@##O..                     ",
"                        .O$#@&====*@#$+..                       ",
"                        .o#@@%*****@@#+                         ",
"                          .O$#+*=@@$#..                         ",
"                          .O@##%&#@@+ .                         ",
"                           ..+$#@$#..                           ",
"                            .O+@#+O..                           ",
"                               #$..                             ",
"                               Oo..                             ",
"                                .                               "
};
