/* XPM */
static char *_574955596351[] = {
/* columns rows colors chars-per-pixel */
"64 64 89 1 ",
"  c black",
". c #050101",
"X c #060303",
"o c #070404",
"O c #0A0304",
"+ c #080404",
"@ c #080505",
"# c #0B0606",
"$ c #06050C",
"% c #0B0808",
"& c #0D0B0A",
"* c #0E0B0B",
"= c #0F0D0D",
"- c #100C0C",
"; c #110D0D",
": c #12100E",
"> c #0E0E12",
", c #0B0D17",
"< c #111010",
"1 c #131111",
"2 c #131212",
"3 c #171512",
"4 c #121015",
"5 c #151414",
"6 c #181717",
"7 c #191817",
"8 c #141319",
"9 c #1A1A19",
"0 c #1A1B1B",
"q c #1A1B1C",
"w c #1B1C1C",
"e c #101120",
"r c #1B1C21",
"t c #1B1E20",
"y c #171A2B",
"u c #181B2E",
"i c #1C212B",
"p c #1C222E",
"a c #1C2230",
"s c #1C2236",
"d c #202736",
"f c #242933",
"g c #222939",
"h c #222B3F",
"j c #282D3C",
"k c #29303E",
"l c #222C42",
"z c #232D44",
"x c #232E47",
"c c #2A3140",
"v c #263049",
"b c #24314C",
"n c #27334F",
"m c #30384E",
"M c #283552",
"N c #2B3958",
"B c #36425F",
"V c #354468",
"C c #3D4C6D",
"Z c #394B70",
"A c #3D4E75",
"S c #475270",
"D c #42547F",
"F c #47567D",
"G c #435480",
"H c #475A87",
"J c #465B88",
"K c #4A5D8B",
"L c #4A5E8D",
"P c #4A6093",
"I c #4E6394",
"U c #4E6496",
"Y c #4C6399",
"T c #4F6599",
"R c #506598",
"E c #51679B",
"W c #5B6D9D",
"Q c #5C6D9D",
"! c #6A7AA8",
"~ c #6F7EAC",
"^ c #7582AF",
"/ c #828EB4",
"( c #8793B7",
") c #9BA7C4",
"_ c #9DA5C5",
"` c #AAACCE",
"' c #CFD0E4",
"] c #D6D7E8",
"[ c white",
/* pixels */
"                                                                ",
"                                                                ",
"                                                                ",
"                                                                ",
"                                                                ",
"                                                                ",
"                                                                ",
"                                                                ",
"                                                                ",
"                                                                ",
"                                                                ",
"                                                                ",
"                                                                ",
"                                                                ",
"                                                                ",
"                                                                ",
"                                                                ",
"                                                                ",
"                                                                ",
"                                                                ",
"                                                                ",
"                                                                ",
"                                                                ",
"                                                                ",
"                                                                ",
"                                                                ",
"                                                                ",
"                                                                ",
"                                                                ",
"                                                                ",
"                                                                ",
"                                                                ",
"                                                                ",
"                                                                ",
"                                                                ",
"                                                                ",
"                                                                ",
"                                                                ",
"                                                                ",
"                                                                ",
"                                                                ",
"                                                                ",
"                          .                                     ",
"                          ...      ....                         ",
"                        .+679o     999- .                       ",
"                        +3jkc4.  ..:11-..                       ",
"                       .3mYYTc6. 66   #w*.                      ",
"                     .#8mK)(^Sm4#-&    -##.                     ",
"                     .7kU)[]`~Ef5       &w#                     ",
"                    . 7jI/'_~QICV#   .  %9+                     ",
"                     .9jT~`^PIREU$.  .  %9o                     ",
"                     .7pVF!WIRIbu.      %q#                     ",
"                    . 5ixVUIUUU8        %q#                     ",
"                      .#tsNDUUUHF$  . .9&                       ",
"                       .5ixZUIIPK$ .  #9&.                      ",
"                        .#wgMFRy.    9=                         ",
"                         #1plAKs,  .o5=                         ",
"                          .*9lnJI$.91                           ",
"                           #:ahAG>#-- .                         ",
"                             -9lbt5                             ",
"                            .#&ps-*                             ",
"                               19.                              ",
"                               ##.                              ",
"                                                                "
};
