/* XPM */
static char *_574955590114[] = {
/* columns rows colors chars-per-pixel */
"64 64 97 2 ",
"   c black",
".  c #040101",
"X  c #060202",
"o  c #050402",
"O  c #070505",
"+  c #0C0000",
"@  c #080403",
"#  c #080404",
"$  c #0A0506",
"%  c #0D0505",
"&  c #0A0909",
"*  c #0E0B0B",
"=  c #0F0D0D",
"-  c #130000",
";  c #1A0000",
":  c #140A0A",
">  c #100C0C",
",  c #110D0D",
"<  c #11100F",
"1  c #0C1C1C",
"2  c #101111",
"3  c #131111",
"4  c #111313",
"5  c #121515",
"6  c #151414",
"7  c #181717",
"8  c #171919",
"9  c #141A1A",
"0  c #181818",
"q  c #1E1919",
"w  c #181C1C",
"e  c #1B1C1C",
"r  c #210000",
"t  c #210606",
"y  c #2B0000",
"u  c #280606",
"i  c #3B0000",
"p  c #3D0A0A",
"a  c #271414",
"s  c #241717",
"d  c #331010",
"f  c #3D1010",
"g  c #440606",
"h  c #4E0000",
"j  c #500505",
"k  c #550505",
"l  c #5B0000",
"z  c #5E0303",
"x  c #5F0C0D",
"c  c #570E10",
"v  c #431313",
"b  c #531010",
"n  c #5A1010",
"m  c #610202",
"M  c #6A0101",
"N  c #6D0708",
"B  c #720000",
"V  c #770000",
"C  c #7E0000",
"Z  c #730A0A",
"A  c #740B0B",
"S  c #820000",
"D  c #8C0000",
"F  c #8F0506",
"G  c #990000",
"H  c #9D1B18",
"J  c #A30000",
"K  c #A50304",
"L  c #AE0000",
"P  c #B40000",
"I  c #BE0000",
"U  c #BA0906",
"Y  c #A73334",
"T  c #C70000",
"R  c #D20000",
"E  c #D90000",
"W  c #E10000",
"Q  c #E50000",
"!  c #EB0000",
"~  c #EC0000",
"^  c #E90D09",
"/  c #F00000",
"(  c #F30000",
")  c #EF291F",
"_  c #EF382B",
"`  c #F23127",
"'  c #EE3E30",
"]  c #EE4233",
"[  c #EF4C45",
"{  c #F0544E",
"}  c #F6696B",
"|  c #F66C6D",
" . c #F37E6E",
".. c #F7A281",
"X. c #FAC9B8",
"o. c #FBD3C3",
"O. c white",
/* pixels */
"                                                                                                                                ",
"                                                                                                                                ",
"                                                                                                                                ",
"                                                                                                                                ",
"                                                                                                                                ",
"                                                                                                                                ",
"                                                                                                                                ",
"                                                                                                                                ",
"                                                                                                                                ",
"                                                                                                                                ",
"                                                                                                                                ",
"                                                                                                                                ",
"                                                                                                                                ",
"                                                                                                                                ",
"                                                                                                                                ",
"                                                                                                                                ",
"                                                                                                                                ",
"                                                                                                                                ",
"                                                                                                                                ",
"                                                                                                                                ",
"                                                                                                                                ",
"                                                                                                                                ",
"                                                                                                                                ",
"                                                                                                                                ",
"                                                                                                                                ",
"                                                                                                                                ",
"                                                                                                                                ",
"                                                                                                                                ",
"                                                                                                                                ",
"                                                                                                                                ",
"                                                                                                                                ",
"                                                                                                                                ",
"                                                                                                                                ",
"                                                                                                                                ",
"                                                                                                                                ",
"                                                                                                                                ",
"                                                                                                                                ",
"                                                                                                                                ",
"                                                                                                                                ",
"                                                                                                                                ",
"                                                                                                                                ",
"                                                                                                                                ",
"                                                    .                   .                                                       ",
"                                                    .   .             . . . .                                                   ",
"                                                  $ 9 9 9 .         . 0 0 0 ,   .                                               ",
"                                                O u n c n t O     . . < 3 6 , . .                                               ",
"                                              . 1 N / Q / N 1   . 7 7       $ e *                                               ",
"                                          . % u A Y | { ] H Z t $ * *         , % % .                                           ",
"                                        . . 9 b ~ } O.o...` ~ v 9     .         * e $                                           ",
"                                          . w b ~ [ X. .' ^ ! K F -       .     & 0 @                                           ",
"                                          . 0 b / _ ..] Q Q Q ~ ! r     .       & e $                                           ",
"                                        . . 0 f G U ) ^ ! Q ! V h .   .         & 0 $                                           ",
"                                          . 0 d V J ! ! ! Q ! i           .     * 0 $                                           ",
"                                            . + a j D I ! ! Q R T ;         o 7 *                                               ",
"                                              . 0 p B L Q Q Q W E r         $ 0 * .                                             ",
"                                                  % q k S T ~ h +   .   . 0 ,                                                   ",
"                                                  @ 5 g M P E l y     . % 6 *                                                   ",
"                                                      = e z C R Q r   0 6                                                       ",
"                                                      % 2 g m P T r O , ,                                                       ",
"                                                          = w M V s 9                                                           ",
"                                                          $ * g j : *   .                                                       ",
"                                                              3 9                                                               ",
"                                                              $ %                                                               ",
"                                                                .                                                               "
};
