/* XPM */
static char *_574960882468[] = {
/* columns rows colors chars-per-pixel */
"64 64 5 1 ",
"  c black",
". c #272727",
"X c #9B0000",
"o c #CB0000",
"O c white",
/* pixels */
"                                                                ",
"                                                                ",
"                                                                ",
"                                                                ",
"                                                                ",
"                                                                ",
"                                                                ",
"                                                                ",
"                                                                ",
"                                                                ",
"                                                                ",
"                                                                ",
"                                                                ",
"                                                                ",
"                                                                ",
"                                                                ",
"                                                                ",
"                                                                ",
"                                                                ",
"                                                                ",
"                                                                ",
"                                                                ",
"                                                                ",
"                                                                ",
"                                                                ",
"                                                                ",
"                                                                ",
"                                                                ",
"                                                                ",
"                                                                ",
"                                                                ",
"                                                                ",
"                                                                ",
"                                                                ",
"                                                                ",
"                                                                ",
"                                                                ",
"                                                                ",
"                                                                ",
"                                                                ",
"                                                                ",
"                                                                ",
"                                                                ",
"                                                                ",
"                                                                ",
"                                                                ",
"                                      ..                        ",
"                                     ....                       ",
"                                ..  ..o..                       ",
"                               .oo...oX..                       ",
"                              .o..o..oX..                       ",
"                              .X. ..oXX..                       ",
"                              .X. ..oXX..                       ",
"                           ..  .X..oX.X..                       ",
"                          ......X..oX.X..                       ",
"                         ..o......oX..X..                       ",
"                        ..oo.....ooX..X..                       ",
"                       ..ooooooooOX...X..                       ",
"                      ..ooooooOOOXX...X..                       ",
"                     ..XXoOoOOOOXX....X..                       ",
"                     ..XXXXXXXXXX.. ..X..                       ",
"                      ...XXXXX....  ..X..                       ",
"                       ..........    ....                       ",
"                         .....        ..                        "
};
