/* XPM */
static char *_575043545081[] = {
/* columns rows colors chars-per-pixel */
"64 64 9 1 ",
"  c black",
". c #080000",
"X c gray20",
"o c #493936",
"O c #434343",
"+ c #66504C",
"@ c gray39",
"# c #856963",
"$ c gray53",
/* pixels */
"                                                                ",
"                                                                ",
"                                                                ",
"                                                                ",
"                                                                ",
"                                                                ",
"                                                                ",
"                                                                ",
"                                                                ",
"                                                                ",
"                                                                ",
"                                                                ",
"                                                                ",
"                                                                ",
"                                                                ",
"                                                                ",
"                                                                ",
"                                                                ",
"                                                                ",
"                                                                ",
"                                                                ",
"                                                                ",
"                                                                ",
"                                                                ",
"                                                                ",
"                                                                ",
"                                                                ",
"                                                                ",
"                                                                ",
"                                                                ",
"                                                                ",
"                                                                ",
"                                                                ",
"                                                                ",
"                                                                ",
"                                                                ",
"                              ........                          ",
"                            ............                        ",
"                           ...@@$$$O@@...                       ",
"                          ..@$$$$$$@$$@@..                      ",
"                         ..@$$$$$$O$$$$$@..                     ",
"                        ..@@@$$$$$O@$$$@@@..                    ",
"                        .....@$$$$@$@$@.....                    ",
"                       .......$$$$$$$@.......                   ",
"                       .......$$$$$$$$.......                   ",
"                       .......@$$$$$$@.......                   ",
"                       ..O...@@.....@@@...O..                   ",
"                       ..@@O@@.......@@@@@@..                   ",
"                       .....@...OOO...@@@@@..                   ",
"                    ........@..O@@@O..@@@@..                    ",
"                ........++..@O@O@@@@@O@O@O..                    ",
"            ........++####..@@@@O@@@@@@@O..                     ",
"            ....+#########+..OO@@O@@@OO...                      ",
"            ..++##+...+###+....OOOOOO....                       ",
"             ..###.o+o.###+..........XO..                       ",
"             ..+##+...+##+..$$..OOOOOOO..                       ",
"            ....+##+.+###..@$$@..OOOOOO..                       ",
"           ..$$..+##..o++..@@@O..@@O@OO..                       ",
"          ..@$$@..##.+##++..OO..@@O@@@...                       ",
"          ..@@@O..##..o++oo.............                        ",
"           ..OO..++++oo................                         ",
"            .....oo........                                     ",
"             ..........                                         ",
"               ....                                             "
};
