/* XPM */
static char *_574960922675[] = {
/* columns rows colors chars-per-pixel */
"64 64 10 1 ",
"  c black",
". c #331111",
"X c #57100E",
"o c #4A1210",
"O c #650F0E",
"+ c #7D1816",
"@ c #921C1A",
"# c #A02220",
"$ c #B46F6F",
"% c #DAB7B7",
/* pixels */
"                                                                ",
"                                                                ",
"                                                                ",
"                                                                ",
"                                                                ",
"                                                                ",
"                                                                ",
"                                                                ",
"                                                                ",
"                                                                ",
"                                                                ",
"                                                                ",
"                                                                ",
"                                                                ",
"                                                                ",
"                                                                ",
"                                                                ",
"                                                                ",
"                                                                ",
"                                                                ",
"                                                                ",
"                                                                ",
"                                                                ",
"                                                                ",
"                                                                ",
"                                                                ",
"                                                                ",
"                                                                ",
"                                                                ",
"                                                                ",
"                                                                ",
"                                                                ",
"                                                                ",
"                                                                ",
"                                                                ",
"                                                                ",
"                                                                ",
"                                                                ",
"                                                                ",
"                                                                ",
"                          .....    ...                          ",
"                        ..O$%%$....++O..                        ",
"                       .O+++++O+Ooo..o++.                       ",
"                      .OOOo...oOo...o+OOO.                      ",
"                      .O+$+Oo..o......o++O.                     ",
"                      .+$%@+Oo...oOOo..o++O.                    ",
"                      .@%$#+O.oO+@#$+Oo.+++.                    ",
"                      .#$#@+OoO+@#%#@+OoO++.                    ",
"                     .O##@++OOO+@#$##@+OO++.                    ",
"                     .+@@++OOOO++@###@++O+O.                    ",
"                     .+++++OOXXO++@@@++OOOX.                    ",
"                     .O+++OOXXXXO+++++OXXXX.                    ",
"                      .OOOOXXXOOOOOOOOXOOOO.                    ",
"                      .O++OXXO++++OXXXO+++.                     ",
"                      .+%@+OO+%$@@+OXXO++O+.                    ",
"                     .+$@@+OO+$###@+OXOO+O+.                    ",
"                     .+@@+OXO+@#+#@+OXoXOOO.                    ",
"                     .O+++OoOO+@+@++OOooXOXo.                   ",
"                     .XOOOXoOOO+X++XOOXooXoo.                   ",
"                     .oXXOooXOOOOXXOOOXooooo.                   ",
"                      .ooXoooXOOOOXOOXoooooo.                   ",
"                       ..ooooooXXXXoooooo...                    ",
"                         ...oooooooooo...                       ",
"                            ..........                          "
};
