/* XPM */
static char *_574960932537[] = {
/* columns rows colors chars-per-pixel */
"64 64 8 1 ",
"  c black",
". c #1B1216",
"X c #271916",
"o c #3E2920",
"O c #4F2F27",
"+ c #59352C",
"@ c #643B31",
"# c #8A5340",
/* pixels */
"                                                                ",
"                                                                ",
"                                                                ",
"                                                                ",
"                                                                ",
"                                                                ",
"                                                                ",
"                                                                ",
"                                                                ",
"                                                                ",
"                                                                ",
"                                                                ",
"                                                                ",
"                                                                ",
"                                                                ",
"                                                                ",
"                                                                ",
"                                                                ",
"                                                                ",
"                                                                ",
"                                                                ",
"                                                                ",
"                                                                ",
"                                                                ",
"                                                                ",
"                                                                ",
"                                                                ",
"                                                                ",
"                                                                ",
"                                                                ",
"                                                                ",
"                                                                ",
"                                                                ",
"                                                                ",
"                                                                ",
"                                                                ",
"                                                                ",
"                                                                ",
"                              .O                                ",
"                             .O.                                ",
"                            .O+O.                               ",
"                            .OOOo...                            ",
"                           .XoooXoOO..                          ",
"                          .OoXXXoO++OO.                         ",
"                         .O+@@+@##@+OO.                         ",
"                        .O+@##@@@@+OoXX.                        ",
"                        .O++@@++OOoXXoOO..                      ",
"                        .OOOOOOooXXoO+@@OO.                     ",
"                       .XXooooXXXoO@+@#@+O.                     ",
"                      .OOoXXXXoO++@@O#@@+OO.                    ",
"                     .OO+@#@@@@++##@OO++OOO.                    ",
"                     .O++@@###@@+@@+OoOOOOo.                    ",
"                     .O+o+@@@@@+o+++ooooooXX.                   ",
"                     .ooooXooooXXXooXXXXXXOo.                   ",
"                    .XXooXXXooXXXXXXoO++@+OO.                   ",
"                   .oOoXXXXXXXO+@@+##@@+++Ooo.                  ",
"                   .O+@#+@##@+@##@+@@@++oOOoo.                  ",
"                   .O++@+@@@@+@@@@O+++OooOooo.                  ",
"                   .XooooOOOoooOOOooooooXooXX.                  ",
"                    .XooXooooXoooooooXoXXoXX.                   ",
"                     .XXXXooXXXoooooXXXXXXX.                    ",
"                      ...XXXXXXXXXXXXXXXX..                     ",
"                        .....XXXXXXXX.....                      ",
"                            ..........                          "
};
