/* XPM */
static char *_574960936593[] = {
/* columns rows colors chars-per-pixel */
"64 64 123 2 ",
"   c black",
".  c #321F2D",
"X  c #371D38",
"o  c #2C2122",
"O  c #332425",
"+  c #312129",
"@  c #362132",
"#  c #3E2435",
"$  c #3B2039",
"%  c #422F2D",
"&  c #452E34",
"*  c #4A2D3C",
"=  c #543F36",
"-  c #52373B",
";  c #5A3E3E",
":  c #5F473F",
">  c #421B4A",
",  c #4C1E53",
"<  c #492247",
"1  c #4C2A42",
"2  c #4D224D",
"3  c #522B4B",
"4  c #533540",
"5  c #5C3C42",
"6  c #5A324D",
"7  c #5F384E",
"8  c #512153",
"9  c #5D2F55",
"0  c #59255B",
"q  c #683E57",
"w  c #65335B",
"e  c #5E1F68",
"r  c #631F6F",
"t  c #621E71",
"y  c #5C2362",
"u  c #602467",
"i  c #6B3465",
"p  c #6C306B",
"a  c #763B6E",
"s  c #682472",
"d  c #712B7A",
"f  c #773577",
"g  c #793A73",
"h  c #604642",
"j  c #6C4A4D",
"k  c #654050",
"l  c #774F55",
"z  c #744065",
"x  c #813A7D",
"c  c #6F1D82",
"v  c #772D80",
"b  c #7B2987",
"n  c #7401B6",
"m  c #7501B8",
"M  c #7B05BB",
"N  c #863687",
"B  c #8209BE",
"V  c #840AC3",
"C  c #890DC5",
"Z  c #870AC8",
"A  c #890BC9",
"S  c #8F11CB",
"D  c #9412C7",
"F  c #9214CB",
"G  c #9D16CD",
"H  c #9F18CE",
"J  c #9514D0",
"K  c #A219CF",
"L  c #A51BD2",
"P  c #AC1FD5",
"I  c #9F23C6",
"U  c #A423CA",
"Y  c #A824CF",
"T  c #AD2BCF",
"R  c #BF3CCC",
"E  c #AC23D4",
"W  c #AD29D1",
"Q  c #B122D7",
"!  c #B22DD4",
"~  c #B324D9",
"^  c #9A03EF",
"/  c #9700F0",
"(  c #9B03F0",
")  c #A007F1",
"_  c #A40BF1",
"`  c #A90EF1",
"'  c #BC28E7",
"]  c #BE22F2",
"[  c #C23CCE",
"{  c #C63DD3",
"}  c #C93FD6",
"|  c #CC3EDA",
" . c #D33FE2",
".. c #C226F3",
"X. c #C629F3",
"o. c #D33DF5",
"O. c #DA3EF5",
"+. c #CC42D7",
"@. c #CE41DA",
"#. c #D041DC",
"$. c #D541E4",
"%. c #DB41EC",
"&. c #DE41F4",
"*. c #E342F5",
"=. c #D184D6",
"-. c #D684DC",
";. c #DA87DF",
":. c #DC87E2",
">. c #E087E7",
",. c #E688F0",
"<. c #EB88F6",
"1. c #E987F9",
"2. c #ED89F9",
"3. c #E3CCE4",
"4. c #EBCFEB",
"5. c #EBD1EB",
"6. c #EECFF0",
"7. c #F2CFF5",
"8. c #F4CEFD",
"9. c #EED0F0",
"0. c #F3D0F6",
"q. c #F6D0FB",
"w. c #F8D1FD",
/* pixels */
"                                                                                                                                ",
"                                                                                                                                ",
"                                                                                                                                ",
"                                                                                                                                ",
"                                                                                                                                ",
"                                                                                                                                ",
"                                                                                                                                ",
"                                                                                                                                ",
"                                                                                                                                ",
"                                                                                                                                ",
"                                                                                                                                ",
"                                                                                                                                ",
"                                                                                                                                ",
"                                                                                                                                ",
"                                                                                                                                ",
"                                                                                                                                ",
"                                                                                                                                ",
"                                                                                                                                ",
"                                                                                                                                ",
"                                                                                                                                ",
"                                                                                                                                ",
"                                                                                                                                ",
"                                                                                                                                ",
"                                                                                                                                ",
"                                                                                                                                ",
"                                                                                                                                ",
"                                                                                                                                ",
"                                                                                                                                ",
"                                                                                                                                ",
"                                                                                                                                ",
"                                                                  n                                                             ",
"                                                                n n                                                             ",
"                                                              m *.n                                                             ",
"                                                              / *./                   n                                         ",
"                                                              ( *.(                 n /                                         ",
"                                                                ( D                 /                                           ",
"                                                      M     L L K L M                                                           ",
"                                                    M ^ L E E M ) ) ) M L                                                       ",
"                                                  M M ^ ~ ~ B _ ) _ ) ) M P                                                     ",
"                                                  M ) ) B B _ _ _ _ _ ) V B E                                                   ",
"                                                M M ( _ _ V _ _ _ _ _ _ _ B M                                                   ",
"                                                M ) _ _ _ _ ` ` X.` ` ` _ _ B Q                                                 ",
"                                                M _ _ _ _ _ ` X.X.X.` _ _ _ B ~                                                 ",
"                                              H ( ) _ _ ` ` X.X.X.X.` ` _ _ _ M E                                               ",
"                                              G ( _ _ _ X.X.*.*.*.X.X.` ` _ _ ) P L                                             ",
"                                            D M ) ......X.*.*.*.*.*.X.` _ C _ B M L                                             ",
"                                            M ] *.*.....X.*.*.w.*.*.*.` _ _ _ ....( M                                           ",
"                                          m ] *.*.*.| $.' %.*.<.*.*.*.X.` X.X.*.*.*...^ n                                       ",
"                                          m *.*.*.{ #.&.&.' *.&.*.*.*.X.X.*.*.*.*.*.*.*.] m                                     ",
"                                          ^ *.*.{ +.o.O.&.&...*.*.*.X.*.&. . .} *.*.*.*.*.m                                     ",
"                                          ( *.*.[ { | O.&.&.&.&.2.*.*.&.*.O.$.o.} *.*.*.*.(                                     ",
"                                          / ] *.*.{ }  .$.%.%.1.q.2.*.*.&.O.$.#.} R *.*.*./                                     ",
"                                          / ^ ] *.*.{ |  . .1.8.q.8.*.&.%.$.@.} { R *.*.] /                                     ",
"                                            ^ ^ I U { } O.O.8.q.0.7.,.%.$. .| { { *.*.] (                                       ",
"                                            / V F T T +.@.$.5.9.6.6.5.>. .| { { R ] / /                                         ",
"                                              V F S T ! ~ @.:.5.4.4.4.| | { { I ' ( (                                           ",
"                                            > g d F F J T W +.;.3.3.-.} { E U V V V                                             ",
"                                            @ z i f v F F S E +.=.=.{ Y A A Z C d y >                                           ",
"                                            + 7 z k a x N b V U R [ U Z c s s y 0 w 1 .                                         ",
"                                            + h l k k a i p e r e t t s e u i 9 6 1 4 +                                         ",
"                                            o = h j l k q < 2 , , , 8 8 2 3 6 * & 5 & o                                         ",
"                                              o = : : ; @ @ X       $ $ # # & - ; % O o                                         ",
"                                                o o o o                 + + O % % O o                                           ",
"                                                                            o o o o                                             "
};
