/* XPM */
static char *_574960940073[] = {
/* columns rows colors chars-per-pixel */
"64 64 32 1 ",
"  c black",
". c #1B1216",
"X c #370505",
"o c #122B13",
"O c #10142C",
"+ c #570808",
"@ c #6D0A0A",
"# c #194520",
"$ c #1D5820",
"% c #216324",
"& c #257029",
"* c #5E5400",
"= c #161847",
"- c #1A235B",
"; c #1E2867",
": c #212C74",
"> c #561E5C",
", c #7D187F",
"< c #2F9B3A",
"1 c #A0A500",
"2 c #C7BD00",
"3 c #D8CF00",
"4 c #5077A0",
"5 c #4977C7",
"6 c #8F109C",
"7 c #9C0CAC",
"8 c #AB08BD",
"9 c #EB00F4",
"0 c #38B2FB",
"q c #4696DB",
"w c #419DE4",
"e c #41A5EB",
/* pixels */
"                                                                ",
"                                                                ",
"                                                                ",
"                                                                ",
"                                                                ",
"                                                                ",
"                                                                ",
"                                                                ",
"                                                                ",
"                                                                ",
"                                                                ",
"                                                                ",
"                                                                ",
"                                                                ",
"                                                                ",
"                                                                ",
"                                                                ",
"                                                                ",
"                                                                ",
"                                                                ",
"                                                                ",
"                                                                ",
"                                                                ",
"                                                                ",
"                                                                ",
"                                                                ",
"                                                                ",
"                                                                ",
"                                                                ",
"                                                                ",
"                                                                ",
"                                                                ",
"                                                                ",
"                                                                ",
"                                                                ",
"                                                                ",
"                                                                ",
"                                                                ",
"                              .2                                ",
"                             .2.                                ",
"                            .232.                               ",
"                            .2221...                            ",
"                           .*111*#$$..                          ",
"                          .$#***#$%%$$.                         ",
"                         .$%&&%&<<&%$$.                         ",
"                        .$%&<<&&&&%$#o4.                        ",
"                        .$%%&&%%$$#oo5qq..                      ",
"                        .$$$$$$##oo5qweeqq.                     ",
"                       .oo####ooo5qewe0ewq.                     ",
"                      .qq5oooo#qwweeq0e:;--.                    ",
"                     .qqwe0eeeeww00e--;;---.                    ",
"                     .-wwee000ee;::;-=----=.                    ",
"                     .-;=;:::::;=;;;======OO.                   ",
"                     .====O====OOO==OOOOOO6,.                   ",
"                    .OO==OOO==OOOOOO,6778766.                   ",
"                   .,6,OOOOOOO6788799887776,,.                  ",
"                   .67897899878998788877,66,+.                  ",
"                   .@778788887888867776,,6+++.                  ",
"                   .X+,,,666,,,666,,,,,,X++XX.                  ",
"                    .X++X+,,,>,,,,,++X+XX+XX.                   ",
"                     .XXXX++XXX+++++XXXXXXX.                    ",
"                      ...XXXXXXXXXXXXXXXX..                     ",
"                        .....XXXXXXXX.....                      ",
"                            ..........                          "
};
