/* XPM */
static char *_575043559686[] = {
/* columns rows colors chars-per-pixel */
"64 64 17 1 ",
"  c black",
". c #080000",
"X c #322F2F",
"o c #3B3636",
"O c #542A2A",
"+ c #6B3636",
"@ c #733F3F",
"# c #434343",
"$ c #474242",
"% c #484343",
"& c gray39",
"* c #924A4A",
"= c #B56B6B",
"- c #2B5397",
"; c #8D8080",
": c #AEA5A5",
"> c #D7BFBF",
/* pixels */
"                                                                ",
"                                                                ",
"                                                                ",
"                                                                ",
"                                                                ",
"                                                                ",
"                                                                ",
"                                                                ",
"                                                                ",
"                                                                ",
"                                                                ",
"                                                                ",
"                                                                ",
"                                                                ",
"                                                                ",
"                                                                ",
"                              ...                               ",
"                            .......                             ",
"                           ...:::...                            ",
"                          ..::@@@::..                           ",
"                         ..:@**@**@:..                          ",
"                        ..:@**@X@**@:..                         ",
"                        ..;**@XXX@**;..                         ",
"                  .......:@**X@*****@:.......                   ",
"                 ........;@**X@*****@;........                  ",
"                ..;;;;;;.;@**@XXX@**@;.::;;;;..                 ",
"                ..$$$$$$.;@@**@X@**@@;.$$$$$$..                 ",
"               ..$+====+.;O@@@*@*@@@O;.+====+$..                ",
"              ..$+=====+.;OOOO@@@OOOO;.+=====+$..   ...         ",
"             ..$+=======+.............+=======+$.. .....        ",
"            ..$+++++++++++++++++++++++++++++++++$...+++..       ",
"            .......................................++==+..      ",
"            ..;;;;;;;;;;;;;;;;;;;;;:;:::::;;;;;;;..O++=+..      ",
"             ..$$$$$$$$$$$$$$$$$$$$;$;;;;;$;$$$$...OO++O..      ",
"             ...+++++++++++++++++++++++++++++++.....OOO..       ",
"             ..X.OOOOOOOOOOOOOOOOOOOOOOOOOOOOO.X.. .....        ",
"             ..XX.XXXXXXXXXXXXXXXXXXXXXXXXXXX.XX.. ..;..        ",
"             ..;$.XX>>>>>XXXX>>>>>XXXX>>>>>XX.;$.. ..:..        ",
"             ..;$.X>>XX>>>XX>>>X>>>XX>>>X>>>X.;$.. ..:..        ",
"             ..;$.X>X>>X>>XX>>X>>>>XX>>X-X>>X.;$.. ..:..        ",
"             ..;$.X>X>X>X>XX>>>XX>>XX>>XXX>>X.;$.. ..;..        ",
"             ..;$.X>XX>>X>XX>>X&&X>XX>>X-X>>X.;$.. ..;..        ",
"             ..;$.X>XXXX>>XX>>X##X>XX>>>X>>>X.;$.. ..;..        ",
"             ..$$.X>XXX>>>XX>>>XX>>XX>>>>>>>X.$$.. ..;..        ",
"             ..$$.XX>>>>>XXXX>>>>>XXXX>>>>>XX.$$.....;..        ",
"             ..$$.XXXXXXXXXXXXXXXXXXXXXXXXXXX.$$........        ",
"             ..$X.++OOOO+===+OOOOO+===+OOOO++.X$..$;;...        ",
"            ...XX+=O++++O==O+++++++O==O++++O=+XX...;:;.         ",
"           ..XXX+==+O++O+==+O+++++O+==+O++O+==+XXX..;;.         ",
"           ..:;X++==+OO+====+OOOOO+====+OO+==++X:;..$$.         ",
"           ..;;X;;;;;;;;;;;;;;;;;;:;::::;;;;;;;X;;..$..         ",
"           ..$$$$$$$$$$$$$$$$$$$$$;$;;;;$;$$$$$$$$....          ",
"           ..XX.OOOOOOOOOOOOOOOOOOOOOOOOOOOOOOO.XX...           ",
"           ..;;.+++++++++++++++++++++++++++++++.;;..            ",
"           ..::.+++++++O...............O+++++++.::..            ",
"           ..;;.+++++++.................+++++++.;;..            ",
"           ..$$.+++++++.................+++++++.$$..            ",
"           ..$;.+++++++.................+++++++.;$..            ",
"           ..$;.+++++++.................+++++++.;$..            ",
"           ..$;.+++++++.................+++++++.;$..            ",
"            ..;OOOOOOOO.ooooooooooooooo.OOOOOOOO;..             ",
"             ...........%%%%%%%%%%%%%%%...........              ",
"              ...................................               ",
"                       .................                        "
};
