/* XPM */
static char *_574940331951[] = {
/* columns rows colors chars-per-pixel */
"64 64 11 1 ",
"  c black",
". c #10131B",
"X c #240D0D",
"o c #1D2434",
"O c #252F44",
"+ c #323F58",
"@ c #394765",
"# c #445477",
"$ c #445679",
"% c #4D628B",
"& c #5F78A9",
/* pixels */
"                                                                ",
"                                                                ",
"                                                                ",
"                                                                ",
"                                                                ",
"                                                                ",
"                                                                ",
"                                                                ",
"                                                                ",
"                                                                ",
"                                                                ",
"                                                                ",
"                                                                ",
"                                                                ",
"                                                                ",
"                                                                ",
"                                                                ",
"                                                                ",
"                                                                ",
"                                                                ",
"                                                                ",
"                                                                ",
"                                                                ",
"                                                                ",
"                                                                ",
"                                                                ",
"                                                                ",
"                                                                ",
"                                                                ",
"                                                                ",
"                                                                ",
"                                                                ",
"                                                                ",
"                                                                ",
"                                                                ",
"                                                                ",
"                                                                ",
"                                                                ",
"                                  .......                       ",
"                                ..+++OOOO.                      ",
"                         ...   .++@@@++OOO.                     ",
"                       ..++O. .++#&$@++OOO.                     ",
"                      .+@@+OO.O+@&%@++OOOOO.                    ",
"                     .+@&$@+OOoO+@@++OOOOOO.                    ",
"                     .++@@++OOooO+++O+++OOOo.                   ",
"                    .O+++++OOoooOOOOO++OOOoo.                   ",
"                    .OO++OOOOooOO++OOOOOOOoo.                   ",
"                    .OOOOOO++OOO+@@+OoOOOOooo.                  ",
"                    .OOOOO+@@+O+@$@@+OoOOoooo.                  ",
"                    .OOOO+#&@@O+@@@@+OOoooooo.                  ",
"                     XOO+@&%@@+++++++OOOo....                   ",
"                      .+@$$@@+++O++++OOOOo.                     ",
"                      .@@@@++++++O++OOOOOOo.                    ",
"                     .++@@+++++++OOOOoOOOOOO.                   ",
"                     .+++++++++++OOOOOoOOOOOO.                  ",
"                    .O++++++++++OOOOOOOoOOOOO.                  ",
"                    .O++++++++OOOOOOOOOooOOOO.                  ",
"                    .O+++OOOoooOOOOOOOOOoOOOO.                  ",
"                    .O+++++++OOOoOOOOOOOooOOo.                  ",
"                    .OO++++++OOOooOOOOOoooooo.                  ",
"                     .OOO+++OOOOoooooOoooooo.                   ",
"                     .OOOOOOOOOoooooooooooo.                    ",
"                      ..oooooo.......oooo..                     ",
"                        ......       ....                       "
};
