/* XPM */
static char *_574940338569[] = {
/* columns rows colors chars-per-pixel */
"64 64 9 1 ",
"  c black",
". c #3A241B",
"X c #4F3327",
"o c #644537",
"O c #92695A",
"+ c #B48170",
"@ c #CA9A84",
"# c #D0B190",
"$ c #D6C79C",
/* pixels */
"                                                                ",
"                                                                ",
"                                                                ",
"                                                                ",
"                                                                ",
"                                                                ",
"                                                                ",
"                                                                ",
"                                                                ",
"                                                                ",
"                                                                ",
"                                                                ",
"                                                                ",
"                                                                ",
"                                                                ",
"                                                                ",
"                                                                ",
"                                                                ",
"                                                                ",
"                                                                ",
"                                                                ",
"                                                                ",
"                                                                ",
"                                                                ",
"                                                                ",
"                                                                ",
"                                                                ",
"                                                                ",
"                                                                ",
"                                                                ",
"                                                                ",
"                                                                ",
"                                                                ",
"                                                                ",
"                                                                ",
"                                                                ",
"                                                                ",
"                                                                ",
"                                 ...                            ",
"                                .OOO.                           ",
"                              ..+$$O.                           ",
"                            ..++$@+OO..                         ",
"                           .O+@@++OOOOo.                        ",
"                           .O+++OOOOO+O.                        ",
"                           .oooOoOOO+++o.                       ",
"                         ..O+++OOO++++OO.                       ",
"                        .oO#$+OO+#@+++oOo.                      ",
"                       .O+#$+OO$$@@++ooOO.                      ",
"                      .O++++OO$$#@++oooOO.                      ",
"                      .++++OOO#@@++OoXoOO.                      ",
"                     .OO++OOOOOO+++ooXoOO.                      ",
"                     .OOOOOo+@@+++OoXoooOo.                     ",
"                    .oOOOOoO$@@++OooXoooOO.                     ",
"                    .OOOOoO@@@++OOooooOOXOo.                    ",
"                    .OOOoO+@@+++OOoXooOOOoO.                    ",
"                    .OOOo++++++OOOoXooOOOXOo.                   ",
"                    .OOoO++++++OOooXoooOOOoO.                   ",
"                    .ooo++++++OOOooXoooOOOXOo.                  ",
"                    .XoO++++OOOOOooXoooOOOXOO.                  ",
"                    .oOOO++OOOOOOoX.oooOOOOXo.                  ",
"                    .OOOOOOOOOOOoXX.oooOOOOXo.                  ",
"                    .XooooOOooooXX.XooooooooX.                  ",
"                     .XXooooooXXX. .XXXooooX.                   ",
"                      ...........   ........                    "
};
