/* XPM */
static char *_575043563933[] = {
/* columns rows colors chars-per-pixel */
"64 64 4 1 ",
"  c #3E2B1C",
". c #4A3323",
"X c #523827",
"o c #523E26",
/* pixels */
"XXXXXXXXXXXXXXXXXXXXXXXXXXXXXXXXXXXXXXXXXXXXXXXX XXXXXXXXXXXXXXX",
"XXXXXXXXXXXXXXXXXXXXXXXXXXXXXXXX......XXXXXXXXXX XXXXXXXXXXXXXXX",
"XXXXX....................XXXX...XXXXX....XXX.XXX XXXXX.XXXXXXXXX",
"XXXXXXXXXXXXXXXXXXXXXXXXXXXXXXXXX....XXXXXXXXXXX XXXXXXXX..XX.XX",
"XXXXXXXXXXXXXXXXXXXXXXXXXXXXXXXXXXXXXXXXXXXXXXXX oXXXXXXXXXXXXXX",
"XXXXXXXXXXXXXXXXXXXXXXXXXXXooooXXXXXXXXXXXXXXXX. .oXXXXXXXXXXXXX",
"XXXXXXXXX     .XXXXXXXXXXooooo..        XXXXX... .ooXXXXXXXXXXXX",
"                          ......                .     .         ",
".ooo.XXXXXXXXXXXXXXXXXXXXXXX...XXXXXXXXXXXXXXXXXXXXX.. oooo.....",
"ooooo.XXXXXXXXXXXXXXXXXXXXXXXXXXXXXXXXXXXXXXXXXXXXXXX. ooooooooo",
"ooooo..XXXXXXXXXXXXXXXXXXXXXXXXXXXXXXXXXXXXXXXXXXXXXXX ooooooooo",
"oooooo.XXXXXXXXXXXXXXXXXXXXXXXXXXXXXXXXXXXXXXXXXXXXXXX ooooooooo",
"oooooo.XXXXXXXXXXXXXXXXXXXXXXXXXXXXXXXXXXXXXXXXXXXXXXX .oooooooo",
"..oooo.XXXXXXXXXXXXXXXXXXXXXXXXXXXXXXXXX...........XXX o........",
".oo.oo.XXXXXXXXXXXXXXXXXXXXXXXXXXXXXXXXXXXXXXXXXXXXXXX ooo......",
"oooooo..XXXXXX..XXX......XXXXXXXXXXXXXXXXXXXXXXXXXXXXX ooooooooo",
"ooooooo.XXXXXXXXXXXXXXXXX........XXXXXXXXXXXXXXXXXXXXX ooooooooo",
"ooooooo.XXXXXXXXXXXXXXXXXXXXXXXXXXXXXXXXXXXXXXXXXXXXXX ooooooooo",
"ooooooo.XXXXXXXXXXXXXXXXXXXXXXXXXXXXXXXXXXXXXXXXXXXXX. ooooooooo",
"ooooooo.XXXXXXXXXXXXXXXXXXXXXXXXXXXXXXXXXXXXXXXXXXXX.. ooooooooo",
"         .                       ............         .         ",
"     XX.. ..           ..                            .XXXXXXX   ",
"XXXXXXXXX XXXXXXXXooooooXoooXXXXXXXXXXXXXXXXXXXXXXXXX.XXXXXXXXXX",
"XXXXXXXXX XXXXXXXXooooooooooXXXXXXXXXXXXXXXXXXXXXXXXX.XXXXXXXXXX",
"XXXXXXXXX .XXXXXXooooooooooXXXXXXXXXXXXXXXXXXXXXXXXXXX.XXXXXXXXX",
"XXXXXXXXX XXXXXXXooooooooooXXXXXXXXXXXXXXXXXXXXXXXXXXXXXXXXXXXXX",
"XXXX.XXXX XXXXXXoooo..oo......XXXXXXXXXXXXXXXXXXXXXXXXXXXXXXXXXX",
"XXXXX.... XXXXXoooooooooooXXXX.....XXXXXXXXXXXXXXXXXXXXXXXXXXXXX",
"XXXXXXXXX XXXXoooooooooooXXXXXXXXXXXXXXXXXXXXXXXXXXXXXXXXXXXXXXX",
"XXXXXXXXX XXXoooooooooXooXXXXXXXXXXXXXXXXXXXXXXXXXXXXXXXXXXXXXXX",
"XXXXXXXXX XXooooooooooooXXXXXXXXXXXXXXXXXXX.XXXXXXXXXXXXXXXXXXXX",
"XXXXXXXXX XooooooooooooXXXXXXXXXXXXXXXXXXX.X...X..XX.XXXXXXXXXXX",
"XXXXXXXXX oooooooooooooXXXXXXXXXXXXXXXXXXXX.XXXXXXXXXXXXXXXXXXXX",
"XXXXXXXXX ooooooooooooXXXXXXXXXXXXXXXXXXXXX.XXXXXXXXXXXXXooXXXXX",
"XX....... .ooooooooooXXXXXXXXXXXXXXXXXXXXXX.XXXXXXXXXXXXooooXXXX",
"XXXXXXXXX ..ooooooooXXXXXXXXXXXXXXXXXXXXXXX.XXXXXXXXXXXoooooooXX",
"         .                     .            .....               ",
"XXXXXXXX.XXXXXXXXXXX     XXXXXX ....ooooooo.XXXXXXXX   XXXXXXXXX",
"XXXXXXXXXXXXXXXXXXXXXXXXXX.XX.. ..oooooooo..XXXXXXXXXXXXXXXXXXXX",
"XXXXXXXXXXXXXXXXXXXXXXXXXXXXXXX .oooooooo..XXXXXXXXXXXXXXXXXXXXX",
"XXXXXXXXXXXXXXX.....XXXXXXXXXXX ooooooo...XXXXX......X..XXXXXXXX",
"XXXXXXXX.X......XXXX..XXXXXXXXX oooooo.o..XXX..XXXXXXXXXXXXXXXXX",
"XXX.X......X..XXXXX.......X.XXX oooooooo.XXXXXXXXXXXXXXXXXXXXXXX",
"XXXXXXXXXXXXXX.X.....XXXXXXXXX. oooooooo.XXXXXXXXXXXXXXXXXXXXXXX",
"XXXXXXXXXXXXXXXXXXXXXXXXXXXXXX. ooooooo.XXXXXXXXXXXXXXXXXXXXXXXX",
"..XXXXXXXXXXXXXXXXXXXXXXXXXX... .oooooo.XXXXXXXXXXXXXXXXXXX.....",
"         .....    .            .                   ..           ",
"   .XXXXXXXXXXXXX. ..       XXXXXXXXXXXXXXXXXXXXXXXXXXXXXX.     ",
" .XXXXXXXXXXXXXXXX XXXXXXXXXXXXXXXXXXXXXXXXXXXXXXXXXXXXXXXXX... ",
"XXXXXXXXXXXXXXXXXX XXXXXXXXXXXXXXXXXXXXXXXXooXXXXXXXXXXXXXXXXXXX",
"XXXXXXXXXXXXXXXXXX XXXXXXXXXXXXXXXXXXXXXXooooooXXXXXXXXXXXXXXXXX",
"XXXXXXXXXXXXXXXXXX XXXXXXXXXXXXXXXXXXXXXXXXoooXoXXXXXXXXXXXXXXXX",
"XXXXXXXXXX........ .XXXXXXXXXXXXXXXXXXXXXXXXXoooXXXX..X.....XXXX",
".X..X..........XXX ...X.X...XX........X.XXXXXXXooXXXXXXXXXXXXXXX",
"XXXXXXXXXXXXXXXXXX .XXXXXXXXXXXXXXXXXXXXXXXXXXXXXXXXXXXXXXXXXXXX",
"XXXXXXXXXXXXXXXXXX XXXXXXXXXXXXXXXXXXXXXXXXXXXXXXXXXXXXXXXXXXXXX",
"XXXXXXXXXXXXXXXXXX XXXXXXXXXXXXXXXXXXXXXXXXXXXXXXXXXXXXXXXXXXXXX",
"XXXXXXXXXXXXXXXXXX XXXXXXXXXXXXXXXXXXXXXXXXX...........XXXXXXXXX",
"XXXXXXX   XXXXXXX.   XXXXXXXXXXXXXXXXXXXXX..XXXXXXXXXXXXXXXXXXXX",
"....              .               .                            .",
"XXXXXXXXXXX .ooooooooooooooooooooX ...                 ..XXXXXXX",
"XXXXXXXXXXXXXXXXooooooooooooooXXXX .XXXXXXXXXXXXXXXXXXXXXoXXXXXX",
"XXXXXXXXXXXXXXXXXXoooooooXXXXXXXXX XXXXXXXXXXXXXXXXXXXXXXXXXXXXX",
"XXX..XXXXXXXXXXXXXXXXXXXXXXXXXXXXX XXXXXXXXXXXXXXXXXXXXXXXXXXXXX"
};
