/* XPM */
static char *_574960952066[] = {
/* columns rows colors chars-per-pixel */
"64 64 7 1 ",
"  c black",
". c #25241F",
"X c #202020",
"o c #38372E",
"O c #575648",
"+ c #6D6B5A",
"@ c #82806B",
/* pixels */
"                                                                ",
"                                                                ",
"                                                                ",
"                                                                ",
"                                                                ",
"                                                                ",
"                                                                ",
"                                                                ",
"                                                                ",
"                                                                ",
"                                                                ",
"                                                                ",
"                                                                ",
"                                                                ",
"                                                                ",
"                                                                ",
"                                                                ",
"                                                                ",
"                                                                ",
"                                                                ",
"                                                                ",
"                                                                ",
"                                                                ",
"                                                                ",
"                                                                ",
"                                                                ",
"                                                                ",
"                                                                ",
"                                                                ",
"                                                                ",
"                                                                ",
"                                                                ",
"                                                                ",
"                                                                ",
"                                                                ",
"                                                                ",
"                                                                ",
"                                                                ",
"                                                                ",
"                                                                ",
"                             XXXXX                              ",
"                          XXX+@@@+XXX                           ",
"                         X+@@@@@@@O@+XX                         ",
"                        X++@@@@@@@@O@@+X                        ",
"                       X+@@+@@@@@@@@+@@+X                       ",
"                       X@@@+@@@@@@@@O@@@+X                      ",
"                      X+@@@@+@@@@@@@@+@@@+X                     ",
"                      X+@@@@@+++@@@@@OO+@@X                     ",
"                     XOO@@@@++OO+@@@@O@@+++X                    ",
"                    XOoo@@@@+OooO+@@@+@@@@+X                    ",
"                    XoXX@@@++oXXoO+@@+@++@@X                    ",
"                     XXX@@@+OXXXXoO@@++o@@@+X                   ",
"                     XX+@@@+oXXXXXo@@+oo@@@+X                   ",
"                     XX@@@@OXXXXXXX@+.oO@@@OX                   ",
"                     X+@@@@OXXXXXXX@..oO@@@OX                   ",
"                    X++++@@+XXXXXXX@..oO@@@oX                   ",
"                   X+@XXO@@@@+XXXX+@..ooO@OoX                   ",
"                    X+XXo@@@@@+XX+@@..oooOoX                    ",
"                     XOXX@@@@@@++++@+.oooooX                    ",
"                     X+XX@@+@@+oooO++..ooo.X                    ",
"                    XOO+O++O++OXXXoOOOOoo.X                     ",
"                    XooXXOOXXOOOX Xooooo.X                      ",
"                     XX XooXXXooX  XX...X                       ",
"                         XX   XX     XXX                        "
};
