/* XPM */
static char *_574940363765[] = {
/* columns rows colors chars-per-pixel */
"64 64 6 1 ",
"  c black",
". c #21150E",
"X c #2F1E13",
"o c #3B2517",
"O c #472C1C",
"+ c #583622",
/* pixels */
"                                                                ",
"                                                                ",
"                                                                ",
"                                                                ",
"                                                                ",
"                                                                ",
"                                                                ",
"                                                                ",
"                                                                ",
"                                                                ",
"                                                                ",
"                                                                ",
"                                                                ",
"                                                                ",
"                                                                ",
"                                                                ",
"                                                                ",
"                                                                ",
"                                                                ",
"                                                                ",
"                                                                ",
"                                                                ",
"                                                                ",
"                                                                ",
"                                                                ",
"                                                                ",
"                                                                ",
"                                                                ",
"                                                                ",
"                                                                ",
"                                                                ",
"                                                                ",
"                                                                ",
"                                                                ",
"                                                                ",
"                                                                ",
"                                                                ",
"                                                                ",
"                                                                ",
"                                                                ",
"                                                                ",
"                               ...                              ",
"                          .....XOO..                            ",
"                        ..XOOOOO+OOO.                           ",
"                      ..XOOOOOO+O+++O.                          ",
"                     .XOOOOOOOOO+O+O+O.                         ",
"                    .XOOOOOOOOOOO+O+++X.                        ",
"                    .OOOOOOOOOOO+X+O+XXX.                       ",
"                    .OOOOOOOOOOOO+O+XXXXX.                      ",
"                    .OOOOOOOOOOOOO+XXXXXX.                      ",
"                   .XOOOOOOOOOOO++XXXXXXXX.                     ",
"                   .XOOOOoOOOO+XXXXXXXXXXX.                     ",
"                   .OOoOoOOOO+XXXXXXXXXXXX.                     ",
"                   .OOOoOOOO+XXXXXXXXXXXXXX.                    ",
"                   .OOoOoOO+XXXXXXXXXXXXXXX.                    ",
"                  .OOoOOOO+XXXXXXXXXXXXXXXX.                    ",
"                  .+OOOOO+XXXXXXXXXXXXXXXXX.                    ",
"                  .X+OOO+XXXXXXXXXXXXXXXXXX.                    ",
"                  .XX+O+XXXXXXXXXXOOOXXXXXX.                    ",
"                  .XXXXXXXXXXXXXXOOOOXXXXXX.                    ",
"                   .XXXXXXXXXXXXXXOOXXXXXX.                     ",
"                    ..XXXXXXXXXXXXXXXXXX..                      ",
"                      ....XXXXXXXXXXXX..                        ",
"                          ............                          "
};
