/* XPM */
static char *_574940372462[] = {
/* columns rows colors chars-per-pixel */
"64 64 5 1 ",
"  c black",
". c #272120",
"X c #362926",
"o c #59403B",
"O c #70514A",
/* pixels */
"                                                                ",
"                                                                ",
"                                                                ",
"                                                                ",
"                                                                ",
"                                                                ",
"                                                                ",
"                                                                ",
"                                                                ",
"                                                                ",
"                                                                ",
"                                                                ",
"                                                                ",
"                                                                ",
"                                                                ",
"                                                                ",
"                                                                ",
"                                                                ",
"                                                                ",
"                                                                ",
"                                                                ",
"                                                                ",
"                                                                ",
"                                                                ",
"                                                                ",
"                                                                ",
"                                                                ",
"                                                                ",
"                                                                ",
"                                                                ",
"                                                                ",
"                                                                ",
"                                                                ",
"                                                                ",
"                                                                ",
"                                                                ",
"                                                                ",
"                                                                ",
"                                                                ",
"                                                                ",
"                                                                ",
"                                ...                             ",
"                           .....Xoo..                           ",
"                         ..XoooooOooo.                          ",
"                       ..XooooooOoOOOo.                         ",
"                      .XoooooooooOoOoOo.                        ",
"                     .XoooooooooooOoOOOX.                       ",
"                     .oooooooooooOXOoOXXX.                      ",
"                     .ooooooooooooOoOXXXXX.                     ",
"                     .oooooooooooooOXXXXXX.                     ",
"                    .XoooooooooooOOXXXXXXXX.                    ",
"                    .XoooooooooOXXXXXXXX.XX.                    ",
"                    .oooooooooOXXXXXX.X.XXX.                    ",
"                    .oooooOooOXXXXXXXX..XXXX.                   ",
"                    .oooooooOXXXXXXXXX.X.XXX.                   ",
"                   .oooooooOXXXXXXXXX.XXXXXX.                   ",
"                   .OoooooOXXXXXXXXXXXXXXXXX.                   ",
"                   .XOoooOXXXXXXXXXXXXXXXXXX.                   ",
"                   .XXOoOXXXXXXXXXXoooXXXXXX.                   ",
"                   .XXXXXXXXXXXXXXooooXXXXXX.                   ",
"                    .XXXXXXXXXXXXXXooXXXXXX.                    ",
"                     ..XXXXXXXXXXXXXXXXXX..                     ",
"                       ....XXXXXXXXXXXX..                       ",
"                           ............                         "
};
