/* XPM */
static char *_574940377708[] = {
/* columns rows colors chars-per-pixel */
"64 64 6 1 ",
"  c black",
". c #202020",
"X c #252020",
"o c #312C2B",
"O c #3D3534",
"+ c #4B4140",
/* pixels */
"                                                                ",
"                                                                ",
"                                                                ",
"                                                                ",
"                                                                ",
"                                                                ",
"                                                                ",
"                                                                ",
"                                                                ",
"                                                                ",
"                                                                ",
"                                                                ",
"                                                                ",
"                                                                ",
"                                                                ",
"                                                                ",
"                                                                ",
"                                                                ",
"                                                                ",
"                                                                ",
"                                                                ",
"                                                                ",
"                                                                ",
"                                                                ",
"                                                                ",
"                                                                ",
"                                                                ",
"                                                                ",
"                                                                ",
"                                                                ",
"                                                                ",
"                                                                ",
"                                                                ",
"                                                                ",
"                                                                ",
"                                                                ",
"                                                                ",
"                                                                ",
"                                                                ",
"                                                                ",
"                                                                ",
"                                ...                             ",
"                           .....XOO..                           ",
"                         ..XOOOOO+OOO.                          ",
"                       ..XOOOOOO+O+++O.                         ",
"                      .XOOOOOOOOO+O+O+O.                        ",
"                     .XOOOOOOOOOOO+O+++X.                       ",
"                     .OOOOOOOOOOO+.+O+XXX.                      ",
"                     .OOOOOOOOOOOO+O+XXXXX.                     ",
"                     .OOOOOOOOOOOOO+XXXXXX.                     ",
"                    .XOOOOOOOOOOO++XXXXXXXX.                    ",
"                    .XOOOOOOOOO+XXXXXXXXXXX.                    ",
"                    .OOOOOOOOO+XXXXXXXXXXXX.                    ",
"                    .OOOOO+OO+XXXXXXXXXXXXXX.                   ",
"                    .OOOOOOO+XXXXXXXXXXXXXXX.                   ",
"                   .OOOOOOO+XXXXXXXXXXXXXXXX.                   ",
"                   .+OOOOO+XXXXXXOXXXXOXXXXX.                   ",
"                   .X+OOO+XXXXXXXXOoXOoXXXXX.                   ",
"                   .XX+O+XXXXXXXXXXOOOXXXXXX.                   ",
"                   .XXXXXXXXXXXXXXXOoooXXXXX.                   ",
"                    .XXXXXXXXXXXXXOoXXXoXXX.                    ",
"                     ..XXXXXXXXXXoXXXXXXX..                     ",
"                       ....XXXXXXXXXXXX..                       ",
"                           ............                         "
};
