/* XPM */
static char *_574940381948[] = {
/* columns rows colors chars-per-pixel */
"64 64 12 1 ",
"  c black",
". c #240D0D",
"X c #331111",
"o c #57100E",
"O c #4A1210",
"+ c #650F0E",
"@ c #7D1816",
"# c #921C1A",
"$ c #A02220",
"% c #BB6766",
"& c #B46F6F",
"* c #DAB7B7",
/* pixels */
"                                                                ",
"                                                                ",
"                                                                ",
"                                                                ",
"                                                                ",
"                                                                ",
"                                                                ",
"                                                                ",
"                                                                ",
"                                                                ",
"                                                                ",
"                                                                ",
"                                                                ",
"                                                                ",
"                                                                ",
"                                                                ",
"                                                                ",
"                                                                ",
"                                                                ",
"                                                                ",
"                                                                ",
"                                                                ",
"                                                                ",
"                                                                ",
"                                                                ",
"                                                                ",
"                                                                ",
"                                                                ",
"                                                                ",
"                                                                ",
"                                                                ",
"                                                                ",
"                                                                ",
"                                                                ",
"                                                                ",
"                                                                ",
"                                                                ",
"                                                                ",
"                                 XXXXXXX                        ",
"                               XX@@@++++X                       ",
"                        XXX   X@@###@@+++X                      ",
"                      XX@@+X X@@&*%#@@+++X                      ",
"                     X@##@++X+@#*%#@@+++++X                     ",
"                    X@#*$#@++O+@##@@++++++X                     ",
"                    X@@&#@@++OO+@@@+@@@+++OX                    ",
"                   X+@@@@@++OOO+++++@@+++OOX                    ",
"                   X++@@++++OO++@@+++++++OOX                    ",
"                   X++++++@@+++@##@+O++++OOOX                   ",
"                   X+++++@##@+@#$##@+O++OOOOX                   ",
"                   X++++@&*##+@####@++OOOOOOX                   ",
"                    .++@#*%##@@@@@@@+++OXXXX                    ",
"                     X@#$$##@@@+@@@@++++OX                      ",
"                     X####@@@@@@+@@++++++OX                     ",
"                    X@@##@@@@@@@++++o++++++X                    ",
"                    X@@@@@@@@@@@+++++o+++++OX                   ",
"                   X+@@@@@@@@@@++++++oOoOo++X                   ",
"                   X+@@@@@@@@+++++++oOO+++++X                   ",
"                   X+@@@+++OOO+++++oO+oO++++X                   ",
"                   X+@@@@@@@+++O++o++++Oo++OX                   ",
"                   X++@@@@@@+++OO++++++OO+OOX                   ",
"                    X+++@@@++++OOOOO++OOOOOX                    ",
"                    XO++++++++OOOOOOOOOOOOX                     ",
"                     XXOOOOOOXXXXXXXOOOOXX                      ",
"                       XXXXXX       XXXX                        "
};
