/* XPM */
static char *_574940387119[] = {
/* columns rows colors chars-per-pixel */
"64 64 5 1 ",
"  c black",
". c #1F150F",
"X c #2C1D14",
"o c #422B1D",
"O c #523523",
/* pixels */
"                                                                ",
"                                                                ",
"                                                                ",
"                                                                ",
"                                                                ",
"                                                                ",
"                                                                ",
"                                                                ",
"                                                                ",
"                                                                ",
"                                                                ",
"                                                                ",
"                                                                ",
"                                                                ",
"                                                                ",
"                                                                ",
"                                                                ",
"                                                                ",
"                                                                ",
"                                                                ",
"                                                                ",
"                                                                ",
"                                                                ",
"                                                                ",
"                                                                ",
"                                                                ",
"                                                                ",
"                                                                ",
"                                                                ",
"                                                                ",
"                                                                ",
"                                                                ",
"                                                                ",
"                                                                ",
"                                                                ",
"                                                                ",
"                                                                ",
"                                                                ",
"                                   .....                        ",
"                                ...XooXX.                       ",
"                             ...XooooooXX.                      ",
"                           ..XooooooooOXX.                      ",
"                          .XooooooOOOOXXXX.                     ",
"                          .oooooOOXXXXXXXX.                     ",
"                          .XOooOXXXXXXXXXXX.                    ",
"                       ...XoXXOXXXooXXXXXXX.                    ",
"                      .XoooooXXXoooooXXXXXX.                    ",
"                     .XooooOOXXXXooooXXXXXXX.                   ",
"                     .ooooOXXXooXoooOXXXXXXX.                   ",
"                    .XooooXXoooooXooXXXXXXXX.                   ",
"                    .ooooXooooXooooOXXXXXXoX.                   ",
"                   .XooooooooOXoooOXXXXXXoXX.                   ",
"                   .ooooooooooXXOOXXXXXXXXoXX.                  ",
"                   .oooooooooOXXXXXXXXXXXXXXX.                  ",
"                   .oooooooooOXXXXXXXXXXXXXXX.                  ",
"                   .oooooooooOXXXXXXXXXXXXXXX.                  ",
"                   .oOoooooooXXXXXXXXXXXXXXXX.                  ",
"                   .ooooooooOXXXXXXXXXXXXXXXX.                  ",
"                   .oooOoooOXoXXXXXXXXXXXXXXX.                  ",
"                    .OooooOXXXXXXXXXXXXXXXXXX.                  ",
"                    .XOoOXXoXXXXXXXXXXXXXXXX.                   ",
"                     .XXXXoXoXXXXXXXXXXXXX..                    ",
"                      ..XXXXXXXXXXXXXX....                      ",
"                        ..............                          "
};
