/* XPM */
static char *_574960960317[] = {
/* columns rows colors chars-per-pixel */
"64 64 12 1 ",
"  c black",
". c #321D1C",
"X c #282020",
"o c #332120",
"O c #3F2423",
"+ c #4B2425",
"@ c #54292A",
"# c #5F2D2D",
"$ c #613F2A",
"% c #694B3A",
"& c #7B563E",
"* c #836250",
/* pixels */
"                                                                ",
"                                                                ",
"                                                                ",
"                                                                ",
"                                                                ",
"                                                                ",
"                                                                ",
"                                                                ",
"                                                                ",
"                                                                ",
"                                                                ",
"                                                                ",
"                                                                ",
"                                                                ",
"                                                                ",
"                                                                ",
"                                                                ",
"                                                                ",
"                                                                ",
"                                                                ",
"                                                                ",
"                                                                ",
"                                                                ",
"                                                                ",
"                                                                ",
"                                                                ",
"                                                                ",
"                                                                ",
"                                                                ",
"                                                                ",
"                                                                ",
"                                                                ",
"                                                                ",
"                                                                ",
"                                                                ",
"                                                                ",
"                                                                ",
"                                                                ",
"                                                                ",
"                           XXXXXXXXXX                           ",
"                         XX&%%%%%%%%&XX                         ",
"                       XX%%$+@####@+$%%XX                       ",
"                      X*%++++++@@@@@@+++%X                      ",
"                     X%*+@@###########@@+%X                     ",
"                     X$%*++++@@@++++++++%$X                     ",
"                     XO$$%&+@#####@#+&%$$OX                     ",
"                    XO+++$$%%%&&&&%%%$$+++OX                    ",
"                    X+@++++$$$$$$$$$$++++@+X                    ",
"                    X+@@++++++++++++++++@@+X                    ",
"                   XO+@@++@++++@@++++@++@@+OX                   ",
"                   XoO@@+@O..O.##.O..O@+@@OoX                   ",
"                   X%O@@+@@.O@..O.@O.@@+@@O%X                   ",
"                   X%oO@+@@.+@.O..@+.@@+@Oo%X                   ",
"                   X$%oO+@@O+@O##O@+O@@+Oo%$X                   ",
"                    X$%*O@@@O@####@O@@@O*%$X                    ",
"                    Xo$$%**@o@@@@@@o@**%$$oX                    ",
"                    XOoO$$$%********%$$$OoOX                    ",
"                    XOo+OoO$$$$$$$$$$OoO+oOX                    ",
"                    XOO++oOOoOOOOOOoOOo++OOX                    ",
"                     XoOOOo++O++++O++oOOOoX                     ",
"                      X%oOoOOOOOOOOOOoOo%X                      ",
"                       XX%&oooooooooo&%XX                       ",
"                         XX%%%&&&&%%%XX                         ",
"                           XXXXXXXXXX                           "
};
