/* XPM */
static char *_574872212243[] = {
/* columns rows colors chars-per-pixel */
"64 64 6 1 ",
"  c black",
". c #080000",
"X c #272727",
"o c #846E58",
"O c #AE9072",
"+ c #D6BA9B",
/* pixels */
"                                                                ",
"                                                                ",
"                                                                ",
"                                                                ",
"                                                                ",
"                                                                ",
"                                                                ",
"                                                                ",
"                                                                ",
"                                                                ",
"                                                                ",
"                                                                ",
"                                                                ",
"                                                                ",
"                                                                ",
"                                                                ",
"                                                                ",
"                                                                ",
"                                                                ",
"                                                                ",
"                                                                ",
"                                                                ",
"                                                                ",
"                                                                ",
"                                                                ",
"                                                                ",
"                                                                ",
"                                                                ",
"                                                                ",
"                                                                ",
"                                                                ",
"                                                                ",
"                                                                ",
"                                                                ",
"                                                                ",
"                                                                ",
"                                                                ",
"                                                                ",
"                                                                ",
"                                                                ",
"                                                                ",
"                                                                ",
"                                                                ",
"                                                                ",
"                                XXX  XX                         ",
"                         XXXXXXXXXXXXXXX                        ",
"                        XXXXXXXXO+OXXOXX                        ",
"                        XX+++++++++OO+XX                        ",
"                        XX+XX+XX++++++XX                        ",
"                        XX+XXXXX+XX+++XX                        ",
"                        XX++XXX+++++X+XX                        ",
"                        XX+XXXXX++++XOXX                        ",
"                        XXOXX+XX+++++OXX                        ",
"                        XXO++++++++X+OXX                        ",
"                        XXo++++++++X+oXX                        ",
"                         XXO++++XX+++XX                         ",
"                         XXOOXX+++++OXX                         ",
"                         XXOOOO++OOOOXX                         ",
"                         XXOOXOOOOOOOXX                         ",
"                         XXoOXOOOooOOXX                         ",
"                         XXooOOOoXXoOXX                         ",
"                         XXXXXXoXXXXoXX                         ",
"                          XXXXXXXX.XXXX                         ",
"                               XX...XX                          "
};
