/* XPM */
static char *_574960967538[] = {
/* columns rows colors chars-per-pixel */
"64 64 8 1 ",
"  c black",
". c gray12",
"X c #222222",
"o c #282A2A",
"O c #292B2B",
"+ c #373939",
"@ c gray28",
"# c #535353",
/* pixels */
"                                                                ",
"                                                                ",
"                                                                ",
"                                                                ",
"                                                                ",
"                                                                ",
"                                                                ",
"                                                                ",
"                                                                ",
"                                                                ",
"                                                                ",
"                                                                ",
"                                                                ",
"                                                                ",
"                                                                ",
"                                                                ",
"                                                                ",
"                                                                ",
"                                                                ",
"                                                                ",
"                                                                ",
"                                                                ",
"                                                                ",
"                                                                ",
"                                                                ",
"                                                                ",
"                                                                ",
"                                                                ",
"                                                                ",
"                                                                ",
"                                                                ",
"                                                                ",
"                                                                ",
"                                                                ",
"                                                                ",
"                                                                ",
"                                                                ",
"                             XXXXXX                             ",
"                          XXX@@@@@@XXX                          ",
"                        XX@@@######@@@XX                        ",
"                       X@@####@@@@####@@X                       ",
"                      X@###@@++++++@@###@X                      ",
"                     X@##@++++++++++++@##@X                     ",
"                     X@##+++OOOOOOOO+++##@X                     ",
"                     X+##++OOO....OOO++##+X                     ",
"                     X+##@OO........OO@##+X                     ",
"                    XX+@###@+......+@###@+XX                    ",
"                   XOO++@##############@++OOX                   ",
"                   XO+@@++@@########@@++@@+oX                   ",
"                  XO+@@@@@+++@@@@@@++++@@@@+OX                  ",
"                  Xo+@@@@@@@@++++++@@@+@@@@+OX                  ",
"                  Xo+@@@@@@@@@@@@@+@@@+@@@@+oX                  ",
"                  XO++@@@@@@@@@@@@@+@@+@@@++OX                  ",
"                  XO++@@@@@@@@@@@@@@++@@@@++OX                  ",
"                   Xo++@@@@@@@@@@@@@@+@@@++oX                   ",
"                   Xo+++@@@@@@@@@@@@@+@@+++oX                   ",
"                    XO++++@@@@@@@@@@@+++++oX                    ",
"                    XOoo+++++@@@@@@+++++oooX                    ",
"                     XOooo++++++++++++ooOoX                     ",
"                      XOoooo++++++++ooooOX                      ",
"                       XooooooooooooooooX                       ",
"                        XXoooOoooooOooXX                        ",
"                          XXXOooooOXXX                          ",
"                             XXXXXX                             "
};
