/* XPM */
static char *_574960971898[] = {
/* columns rows colors chars-per-pixel */
"64 64 8 1 ",
"  c black",
". c #11171B",
"X c #1B242B",
"o c #222222",
"O c #202B33",
"+ c #46423D",
"@ c #2F3E46",
"# c #3C4E58",
/* pixels */
"                                                                ",
"                                                                ",
"                                                                ",
"                                                                ",
"                                                                ",
"                                                                ",
"                                                                ",
"                                                                ",
"                                                                ",
"                                                                ",
"                                                                ",
"                                                                ",
"                                                                ",
"                                                                ",
"                                                                ",
"                                                                ",
"                                                                ",
"                                                                ",
"                                                                ",
"                                                                ",
"                                                                ",
"                                                                ",
"                                                                ",
"                                                                ",
"                                                                ",
"                                                                ",
"                                                                ",
"                                                                ",
"                                                                ",
"                                                                ",
"                                                                ",
"                                                                ",
"                                                                ",
"                                                                ",
"                                                                ",
"                                                                ",
"                                                                ",
"                             oooooo                             ",
"                          ooo@@@@@@ooo                          ",
"                        oo@@@######@@@oo                        ",
"                       o@@####@@@@####@@o                       ",
"                      o@###@@OOOOOO@@###@o                      ",
"                     o@##@OOOOOOOOOOOO@##@o                     ",
"                     o@##OOOXXXXXXXXOOO##@o                     ",
"                     oO##OOXXX....XXXOO##Oo                     ",
"                     oO##@XX........XX@##Oo                     ",
"                     oO@###@O......O@###@Oo                     ",
"                    oXOO@##############@OOXo                    ",
"                    oO@@OO@@########@@OO@@Oo                    ",
"                    o+@@@@OOO@@@@@@OOO@@@@+o                    ",
"                    o+@@@@@@@OOOOOO@@@@@@@+o                    ",
"                    o@+@@@@@@@@@@@@@@@@@@+@o                    ",
"                    o@++@@@@@@@@@@@@@@@@++@o                    ",
"                    oO@+++@@@@@@@@@@@@+++@Oo                    ",
"                    oO@@+++++@@@@@@+++++@@Oo                    ",
"                    oOO@@@++++++++++++@@@OOo                    ",
"                    oXOO@@@@@++++++@@@@@OOXo                    ",
"                     oOOOO@@@@@@@@@@@@OOOOo                     ",
"                     oXOOOOOO@@@@@@OOOOOOXo                     ",
"                      oXXOOOOOOOOOOOOOOXXo                      ",
"                       oXXXXOOOOOOOOXXXXo                       ",
"                        ooXXXXXXXXXXXXoo                        ",
"                          oooXXXXXXooo                          ",
"                             oooooo                             "
};
