/* XPM */
static char *_575047503752[] = {
/* columns rows colors chars-per-pixel */
"64 64 7 1 ",
"  c #21140F",
". c #241611",
"X c #2E1C17",
"o c #3D251E",
"O c #4C2F25",
"+ c #553529",
"@ c #6B4234",
/* pixels */
"XXXXXXXXXXXXXXXXXXXXXXXooXXXXXoXXXXXX XXXXXXXXXXXXXoXXXXXXXXXooX",
"oooooooooooooooooooooooooooooooooooooXXooooooooooooooooooooooooo",
"oOOOOOOOOOOoOOOoOOOOOOOOOOOOOOOOOOOOoXooOOOOOOOOOooOOOOOOOOOOOOo",
"OO@@@@@@@@@O@OOO@@@@@@@@@@@@@@@@@@@OOXO@@@@@@@@@@@OO@@@@@@@@@@O@",
"@@@@@@@@@@@@O@@@@@@@@@@@@@@@@@@@@@@@@X@@@@@@@@@@@@@@@@@@@@@@@@@@",
"@+@+@@+@+@+@+O@@+@@+@@+@+@+@++@@+++@+X+@+@@+@+@+@@+@@@@@@+@+@@@+",
"+@+@++@+@+@+++++@++@++@+@+@+++++++++@X++@++@+@+@++@++++++@+@+++@",
"+++++++@+++++++++++++++++@+++++++++++X++++++@+@+++++++++++@+++++",
"+++++++++++++++++++++++++++++++++++++X++++++++++++++++++++++++++",
"+++++++++++++++++++++++++++++++++++++XO+++++++++++++++++++++++++",
"+++++++++++++++++++++++++++++++++++++XO+++++++++++++++++O+++++++",
"+++++++++++++++++++++++++++++++++++++XO+++++++++++++++++@+++++++",
"+++++++++++++++++++++++++++++++++++++XO+++++++++++++++++++++++++",
"++++++++++++++++++++++++++++++++++++oXO+++++++++++++++++++++++++",
"++++++++++++++++++++++++++++O++++++OOXO+++++++++++++++++++++++++",
"++++++++++++++++++++++++++++@+++++++OXO+++++++++++++++++++++++++",
"++++++++++++++++++++++++++++++++++++OXO+++++++++++++++++++++++++",
"++++++++++++++++++++++++++++++++++++OXO+++++++++++++++++++++++++",
"++++++++++++++++++++++++++++++++++++OXO+++++++++++++++++++++++++",
"++++++++++++++++++++++++++++++++++++OXO+++++++++++++++++++++++++",
"++++++++O+++++++++++++++++++++++++++OXO+++++++++++++++++++++++++",
"++++++++@+++++++++++++@+++++++++++++OXO+++++++++++++++++++++++++",
"+++++++++++++++++@+++@++++++++++++++OXO+++++OO++++++++++++++++++",
"++++++++++++++++++@+@+++++++++++++++OXO+++++@@++++++++++++++++++",
"+++++++++++++++++++@++++++++++++++++OX++++++++++++++++++++++++++",
"++++++++++++++++++@+@++++++++O++++++OX++++++++++++++++++++++++++",
"+++++++++++++++++@+++@+++++++@++++++OXO+++++++++++++++++++++++++",
"++++++++++++++++@+++++++++++++++++++OXO+++++++++++++++++++++++++",
"++++++++++++++++++++++++++++++++++++OX++++++++++++++++++++++++++",
"++++++++++++++++++++++++++++++++++++OX++++++++++++++++++++++++++",
"+++++++++++++++++++++++++++++++++++++X++++++++++++++++++++++++++",
"+++++++++++++++++++++++++++++++++++++XO+++++++++++++++++++++++++",
"+++++O++++++++++++++++++O++++++++++++X++++++++++++++++++++++++++",
"O+O+O+O+++O+O++O+O+O+++O+O+O+O++++++OX+O+O++O++O+O+O+O++O+O+O+++",
"+O+O+O+OOO+O+OO+O+O+OOO+O+O+O+OOO+OOOXO+O+OO+OO+O+O+OOOO+O+O++@O",
"OOOOOOOOOOOOOOOOOOOOOOOOOOOOOOOOOOOOOXOOOOOOOOOOOOOOOOOOOOOOOOOO",
"OOOOOOOOOOOOOOOOOOOOOOOOOOOOOOOOOOOOOXOOOOOOOOOOOOOOOOOOOOOOOOOO",
"OOOOOOOOOOOOOOOOOOOOOOOOOOOOOOOOOOOOOXOOOOOOOOOOOOOOOOOOOOOOOOOO",
"XXXXXXXXXXXXXXXOXXXXXXXXXXXXXXXXXXXXXoXXXXXXXXXXXXXXXXXXXXXXXXXX",
"@@@@@@@@@@@@+OXXO@@@@@@@@@@@@@@@@@@@@@@@@@@@@@@@@@@@@@@@@@@@@@@@",
"++++++++++++++OX++++++++++++++++++++++++++++++++++++++++++++++++",
"+O+++++++++++++X++++++++++++++++++++++++++++++++++++++++++++++++",
"+@+++++++++++++XO++++++OOO++++++++++++++++++++++++++++++++++++++",
"++++++++++++++OXO++++++@@@++++++++++++++++++++++++++++++++++++++",
"++++++++++++++OXO+++++++++++++++++++++++++++++++++++++++++++++++",
"++++++++++++++OXO+++++++++++++++++++++++++++++++OO++++++++++++++",
"++++++++++++++OXO+++++++++++++++++++++++++++++++@@++++++++++++++",
"+++++++++++++++XO+++++++++++++++++++++++++++++++++++++++++++++++",
"++++++++++++O++XO+++++++++++++++++++++++++++++++++++++++++++++++",
"++++++++++++@++XO+++++++++++++++++++++++++++++++++++++++++++++++",
"++++++++++++++OXO+++++++++++++++++++++++++++++++++++++++++++++++",
"++++++++++++++OXO+++++++++++++++++++++++++++++++++++++++++++++++",
"++++++++++++++OXO+++++++++++++++++++++++++++++++++++++++++++++++",
"O+O+O++O++O+O+OX+O+++++++++++++++++++O+O++O+++++++++++O+++O+++++",
"+O+O+OO+OO+O+OOXOO+O+O++++++O+O++O++O+O+O++O+O+OOOO++O+O++++O+OO",
"OOOOOO+O+OOOOOOXOOO+OOOOOOOOOOOOO+OOOOOOOOO+OOOOOOOOO+O+O++O+OOO",
"OOOOOOOOOOOOOOOXOOOOOOOOOOOOOOOOOOOOOOOOOOOOOOOOOOOOOOOOOOOOOOOO",
"OOoOOOOOOOOOoooXXOOOOOOOOOOOOOOOooooooooooOOOOOOOOOOOOOooooOOOOO",
"oooooooooooooooXoooooooooooooooooooooooooooooooooooooooooooooooo",
"XXoooooXoooooooXooooXXXXoXooooooooooXXooooooooooooooXooooooXXXXX",
"XXXXXXXXXXXXXXX XXXXXXXXXXXXXXXXXXXXXXXXXXXXXXXXXXXXXXXXXXXXXXXX",
"XXX XXXXXXX   X XXXXXXXXXXX XX XXXXXXXXX XX       XXXXXXXXXXX   ",
"............... ................................................",
"                                                                "
};
