/* XPM */
static char *_574960956353[] = {
/* columns rows colors chars-per-pixel */
"64 64 12 1 ",
"  c black",
". c #32211C",
"X c #272727",
"o c #332420",
"O c #3F2923",
"+ c #322D2D",
"@ c #3A3636",
"# c #4B2A24",
"$ c #543029",
"% c #5F362D",
"& c #433E3E",
"* c #4B4747",
/* pixels */
"                                                                ",
"                                                                ",
"                                                                ",
"                                                                ",
"                                                                ",
"                                                                ",
"                                                                ",
"                                                                ",
"                                                                ",
"                                                                ",
"                                                                ",
"                                                                ",
"                                                                ",
"                                                                ",
"                                                                ",
"                                                                ",
"                                                                ",
"                                                                ",
"                                                                ",
"                                                                ",
"                                                                ",
"                                                                ",
"                                                                ",
"                                                                ",
"                                                                ",
"                                                                ",
"                                                                ",
"                                                                ",
"                                                                ",
"                                                                ",
"                                                                ",
"                                                                ",
"                                                                ",
"                                                                ",
"                                                                ",
"                                                                ",
"                                                                ",
"                           XXXXXXXXXX                           ",
"                        XXX&@@@@@@@@&XXX                        ",
"                      XX@@@+#$%%%%$#+@@@XX                      ",
"                     X*@#######$$$$$$$###@X                     ",
"                    X@*#$$%%%%%%%%%%%%%$$#@X                    ",
"                    X+@*#####$$$#########@+X                    ",
"                    XO++@&@#$%%%%%$%#@&@++OX                    ",
"                   XO###+++@@@&&&&@@@+++###OX                   ",
"                   X#$#####++++++++++#####$#X                   ",
"                   X#$$##################$$#X                   ",
"                  XO#$$##$$####$$####$$##$$#OX                  ",
"                  XoO$$#$O...O.%%.O...O$#$$OoX                  ",
"                  X@O$$#$$O.O$..O.$O.O$$#$$O@X                  ",
"                  X@oO$#$$$.#$.O..$#.$$$#$Oo@X                  ",
"                  X+@oO#$$$O#$O%%O$#O$$$#Oo@+X                  ",
"                   X+@*O$$$$O$%%%%$O$$$$O*@+X                   ",
"                   Xo++@**O$o$$$$$$o$O**@++oX                   ",
"                   XOoO+++@@********@@+++OoOX                   ",
"                   XOo#OoO++++++++++++OoO#oOX                   ",
"                   XOO##oOOOoOOOOOOoOOOo##OOX                   ",
"                   XOO##O#$#O#$$$$#O#$#O##OOX                   ",
"                    XOO#O#$$##$$$$##$$#O#OOX                    ",
"                    XoOOOo###O####O###oOOOoX                    ",
"                     X@oOoOOOOOOOOOOOOoOo@X                     ",
"                      XX@&oooooooooooo&@XX                      ",
"                        XXX@@@&&&&@@@XXX                        ",
"                           XXXXXXXXXX                           "
};
