/* XPM */
static char *_575290282795[] = {
/* columns rows colors chars-per-pixel */
"64 64 16 1 ",
"  c black",
". c #0C0C0C",
"X c #202020",
"o c #432B23",
"O c #53352B",
"+ c #603931",
"@ c #6A4814",
"# c #7E5516",
"$ c #6A4137",
"% c #70443A",
"& c #A97601",
"* c #864B46",
"= c #CD9002",
"- c #F4AB02",
"; c #F8CA60",
": c white",
/* pixels */
"                                                                ",
"                                                                ",
"                                                                ",
"                                                                ",
"                                                                ",
"                                                                ",
"                                                                ",
"                                                                ",
"                                                                ",
"                                                                ",
"                                                                ",
"                                                                ",
"                                                                ",
"                                                                ",
"                                                                ",
"                                                                ",
"                                                                ",
"                                                                ",
"                                                                ",
"                                                                ",
"                                                                ",
"                                                                ",
"                                                                ",
"                                                                ",
"                                                                ",
"                                                                ",
"                                                                ",
"                                                                ",
"                                                                ",
"                                                                ",
"                                                                ",
"                                                                ",
"                                                                ",
"                                                                ",
"                                                                ",
"                                                                ",
"                                                                ",
"                                                                ",
"                                                                ",
"                                                                ",
"                                                                ",
"                   XXXXXXXXXXXXXXXXXXXXXXXXXXXX                 ",
"                  X=--=#$%%%%$#=--=#$%%%%$#=--=X                ",
"                  X-;:-&%****%&-::-&%****%&-:;-X                ",
"                  X-;:-&%****%&-::-&%****%&-:;-X                ",
"                  X-;;-&%****%&-;;-&%****%&-;;-X                ",
"                  X=--=#$%%%%$#=--=#$%%%%$#=--=X                ",
"                  X&==&@+$$$$+@&==&@+$$$$+@&==&X                ",
"                  X&==&@+$$$$+@&&&&@+$$$$+@&==&X                ",
"                  X#&&#@O++++O@####@O++++O@#&&#X                ",
"                  X#&&#@O++++@#::;&#@++++O@#&&#X                ",
"                  X@##@@oOOOO#;@..@&#OOOOo@@##@X                ",
"                  X&===&=:::@&&....&&@:::=&===&X                ",
"                  X#&&&&&&&&@&&....&&@&&&&&&&&#X                ",
"                  X#########@#&@..@&#@#########X                ",
"                   X@@oOOOOOO@#&..&#@OOOOOOo@@X                 ",
"                   X#@OOOOOOOO#&..&#OOOOOOOO@#X                 ",
"                   X&#O++++++O@#&&#@O++++++O#&X                 ",
"                   X&#O++$$$$+OOOOOO+$$$$++O#&X                 ",
"                   X&#O+$$$$$$$$$$$$$$$$$$+O#&X                 ",
"                   X#@O++++++++++++++++++++O@#X                 ",
"                   X##########################X                 ",
"                   X@@@@@@@@@@@@@@@@@@@@@@@@@@X                 ",
"                    XXXXXXXXXXXXXXXXXXXXXXXXXX                  "
};
