/* XPM */
static char *_575043517901[] = {
/* columns rows colors chars-per-pixel */
"64 64 15 1 ",
"  c black",
". c #0C0C0C",
"X c #202020",
"o c #2D2522",
"O c #352C28",
"+ c gray22",
"@ c #413632",
"# c #4D3F3A",
"$ c #464646",
"% c gray30",
"& c #5A4943",
"* c #5F4D47",
"= c #5D5D5D",
"- c #6D6D6D",
"; c #8D8989",
/* pixels */
"                                                                ",
"                                                                ",
"                                                                ",
"                                                                ",
"                                                                ",
"                                                                ",
"                                                                ",
"                                                                ",
"                                                                ",
"                                                                ",
"                                                                ",
"                                                                ",
"                                                                ",
"                                                                ",
"                                                                ",
"                                                                ",
"                                                                ",
"                                                                ",
"                                                                ",
"                                                                ",
"                                                                ",
"                                                                ",
"                                                                ",
"                                                                ",
"                                                                ",
"                                                                ",
"                                                                ",
"                                                                ",
"                                                                ",
"                                                                ",
"                                                                ",
"                                                                ",
"                                                                ",
"                                                                ",
"                                                                ",
"                                                                ",
"                                                                ",
"                                                                ",
"                                                                ",
"                                                                ",
"                                                                ",
"                  XXXXXXXXXXXXXXXXXXXXXXXXXXXX                  ",
"                 X=--=$#&&&&#$=--=$#&&&&#$=--=X                 ",
"                 X-;;-%&****&%-;;-%&****&%-;;-X                 ",
"                 X-;;-%&****&%-;;-%&****&%-;;-X                 ",
"                 X-;;-%&****&%-;;-%&****&%-;;-X                 ",
"                 X=--=$#&&&&#$=--=$#&&&&#$=--=X                 ",
"                 X%==%+@####@+%==%+@####@+%==%X                 ",
"                 X%==%+@####@+%==%+@####@+%==%X                 ",
"                 X$%%$+O@@@@O+$%%$+O@@@@O+$%%$X                 ",
"                 X$%%$+O@@@@O+$%%$+O@@@@O+$%%$X                 ",
"                 X+$$++oOOOOo++$$++oOOOOo++$$+X                 ",
"                 X%===%======%====%======%===%X                 ",
"                 X$%%%%%%%%%%%%%%%%%%%%%%%%%%$X                 ",
"                 X$$$$$$$$$$$$$$$$$$$$$$$$$$$$X                 ",
"                  X++oOOOOOO+++..+++OOOOOOo++X                  ",
"                  X$+OOOOOOO+$$..$$+OOOOOOO+$X                  ",
"                  X%$O@@@@@@+$$==$$+@@@@@@O$%X                  ",
"                  X%$O@@####OOOOOOOO####@@O$%X                  ",
"                  X%$O@##################@O$%X                  ",
"                  X$+O@@@@@@@@@@@@@@@@@@@@O+$X                  ",
"                  X$$$$$$$$$$$$$$$$$$$$$$$$$$X                  ",
"                  X++++++++++++++++++++++++++X                  ",
"                   XXXXXXXXXXXXXXXXXXXXXXXXXX                   "
};
