/* XPM */
static char *_575043524579[] = {
/* columns rows colors chars-per-pixel */
"64 64 17 1 ",
"  c black",
". c #0C0C0C",
"X c #241614",
"o c #2A1B18",
"O c #33211F",
"+ c #202020",
"@ c #3B2824",
"# c gray22",
"$ c #591C1C",
"% c #47312C",
"& c #602323",
"* c #632626",
"= c #464646",
"- c gray30",
"; c #5D5D5D",
": c #6D6D6D",
"> c #8E888B",
/* pixels */
"                                                                ",
"                                                                ",
"                                                                ",
"                                                                ",
"                                                                ",
"                                                                ",
"                                                                ",
"                                                                ",
"                                                                ",
"                                                                ",
"                                                                ",
"                                                                ",
"                                                                ",
"                                                                ",
"                                                                ",
"                                                                ",
"                                                                ",
"                                                                ",
"                                                                ",
"                                                                ",
"                                                                ",
"                                                                ",
"                                                                ",
"                                                                ",
"                                                                ",
"                                                                ",
"                                                                ",
"                                                                ",
"                                                                ",
"                                                                ",
"                                                                ",
"                                                                ",
"                                                                ",
"                                                                ",
"                                                                ",
"                                                                ",
"                                                                ",
"                                                                ",
"                                                                ",
"                                                                ",
"                                                                ",
"                   ++++++++++++++++++++++++++                   ",
"                  +;::;=@%%%@=;::;=@%%%@=;::;+                  ",
"                  +:>>:-%%%%%-:>>:-%%%%%-:>>:+                  ",
"                  +:>>:-%%%%%-:>>:-%%%%%-:>>:+                  ",
"                  +:>>:-%%%%%-:>>:-%%%%%-:>>:+                  ",
"                  +;::;=@%%%@=;::;=@%%%@=;::;+                  ",
"                  +-;;-#O@@@O#-;;-#O@@@O#-;;-+                  ",
"                  +-;;-#O@@@O#-;;-#O@@@O#-;;-+                  ",
"                  +=--=#oOOOo#=--=#oOOOo#=--=+                  ",
"                  +=--=#oOOOo#=--=#oOOOo#=--=+                  ",
"                 ++#==##XoooX##==##XoooX##==#++                 ",
"                +;+-;;;-;;;;;-;;;;-;;;;;-;;;-+;+                ",
"                 ++=------------------------=++                 ",
"                  ++========================++                  ",
"                 +:>+#Xo++oo###..###oo++XX#+>:+                 ",
"                 +>:;+o+:>+o#==..==#o+>:+o+;:>+                 ",
"                +::;-++:>:;+#==;;==#+;:>:++-;::+                ",
"                +;-++#+>:;-+oooooooo+-;:>+#++*;+                ",
"                ++++#+::;-+o@@@@@@@@o+-;::+#++++                ",
"                   +=+;-++oOOOOOOOOOOo++-;+=+                   ",
"                   +=+++#==============#+++&+                   ",
"                   +##################$$$$$$+                   ",
"                    ++++++++++++++++++++++++                    "
};
