/* XPM */
static char *_575043514141[] = {
/* columns rows colors chars-per-pixel */
"64 64 18 1 ",
"  c black",
". c #060606",
"X c gray10",
"o c #494949",
"O c #606E7B",
"+ c #6B7E92",
"@ c #7491A6",
"# c #7C9BB4",
"$ c #848484",
"% c #80A0BB",
"& c #A4A4A4",
"* c #91B8D0",
"= c #C1C1C1",
"- c #D0D0D0",
"; c #D8D8D8",
": c gray86",
"> c #FBFBFB",
", c white",
/* pixels */
"                                                                ",
"                                                                ",
"                                                                ",
"                                                                ",
"                                                                ",
"                                                                ",
"                                                                ",
"                                                                ",
"                                                                ",
"                                                                ",
"                                                                ",
"                                                                ",
"                                                                ",
"                                                                ",
"                                                                ",
"                                                                ",
"                                                                ",
"                                                                ",
"                                                                ",
"                                                                ",
"                                                                ",
"                                                                ",
"                                                                ",
"                                                                ",
"                                                                ",
"                                                                ",
"                                                                ",
"                                                                ",
"                                                                ",
"                                                                ",
"                                                                ",
"                                                                ",
"                                                                ",
"                                                                ",
"                                                                ",
"                                                                ",
"                                                                ",
"                                                                ",
"                                                                ",
"                                                                ",
"                                                                ",
"                  XXXXXXXXXXXXXXXXXXXXXXXXXXXX                  ",
"                 X::::=#%%%%#=::::=#%%%%#=::::X                 ",
"                 X:>,:-%****%-:,,:-%****%-:,>:X                 ",
"                 X:>,:-#****#-:,,:-%****%-:,>:X                 ",
"                 X:>>:-%****%-:>>:-%****%-:>>:X                 ",
"                 X;:::=#%%%%#=;::;&%%%%%#=:::;X                 ",
"                 X-;:-&@####@&-;:-&#%###@&-;;-X                 ",
"                 X-::-&@@###@&----&@####%&-::-X                 ",
"                 X=-:&&+@@@@+&====&+@@@@@&&--=X                 ",
"                 X-::=&@@@@@&=,,>-=&@@@@+&=:-&X                 ",
"                 X&&=&&O++++=>&..&-=++++O&&=-&X                 ",
"                 X-:;:-:,,,&--....--&>>,;-;;:-X                 ",
"                 X=--------&--....--&;-------=X                 ",
"                 X=========&=-&..&-=&=====&-==X                 ",
"                  X&&o$$$$$$&=-..-=&$$$$$$o&&X                  ",
"                  X=&+++++++$=-..-=$+++++++&=X                  ",
"                  X-=+@@@@@@$&=--=&$@@@@@@+=-X                  ",
"                  X-=+@@####@$$$$$$@####@@+=-X                  ",
"                  X-=+@##################@+=-X                  ",
"                  X=&+@@@@@@@@@@@@@@@@@@@@+&=X                  ",
"                  X==========================X                  ",
"                  X&&&&&&&&&&&&&&&&&&&&&&&&&&X                  ",
"                   XXXXXXXXXXXXXXXXXXXXXXXXXX                   "
};
