/* XPM */
static char *_575290279221[] = {
/* columns rows colors chars-per-pixel */
"64 64 16 1 ",
"  c black",
". c #0C0C0C",
"X c #202020",
"o c #432B23",
"O c #53352B",
"+ c #603931",
"@ c #6A4814",
"# c #7E5516",
"$ c #6A4137",
"% c #70443A",
"& c #A97601",
"* c #864B46",
"= c #CD9002",
"- c #F4AB02",
"; c #F8CA60",
": c white",
/* pixels */
"                                                                ",
"                                                                ",
"                                                                ",
"                                                                ",
"                                                                ",
"                                                                ",
"                                                                ",
"                                                                ",
"                                                                ",
"                                                                ",
"                                                                ",
"                                                                ",
"                                                                ",
"                                                                ",
"                                                                ",
"                                                                ",
"                                                                ",
"                                                                ",
"                                                                ",
"                                                                ",
"                                                                ",
"                                                                ",
"                                                                ",
"      XXXXXXXXXX          XXXXXXXXXXXX          XXXXXXXXXX      ",
"     X&=----=&#@XXXXXXXXXX&=--------=&XXXXXXXXXX@#&=----=&X     ",
"     X=-;;;;-=&#+$%%%%%%%$=-;;;;;;;;-=$%%%%%%%$+#&=-;;;;-=X     ",
"     X-;;;;;;-&#$%%*****%%-;;;;;;;;;;-%%*****%%$#&-;;;;;;-X     ",
"     X-;:::::;-&%%*******%-;::::::::;-%*******%%&-;:::::;-X     ",
"     X-;:::::;-&%%*******%-;::::::::;-%*******%%&-;:::::;-X     ",
"     X-;:::::;-&%%*******%-;::::::::;-%*******%%&-;:::::;-X     ",
"     X-;;::::;-&%%*******%-;;::::::;;-%*******%%&-;::::;;-X     ",
"     X-;;;;;;-&#%%*******%-;;;;;;;;;;-%*******%%#&-;;;;;;-X     ",
"     X=-;;;;-=&#$%*******$=-;;;;;;;;-=$*******%$#&=-;;;;-=X     ",
"     X=------=##+$%*****%$=----------=$%*****%$+##=------=X     ",
"     X&=----=&#@+$%%%%%%%+&=--------=&+%%%%%%%$+@#&=----=&X     ",
"     X&======&#@++$%%%%%$+&==========&+$%%%%%$++@#&======&X     ",
"     X&&====&&@@O+$$$$$$$+&&========&&+$$$$$$$+O@@&&====&&X     ",
"     X&&&&&&&&@@O++$$$$$$O&&&&&&&&&&&&O$$$$$$++O@@&&&&&&&&X     ",
"     X#&&&&&&#@@OO+$$$$$+O#&&&&&&&&&&#O+$$$$$+OO@@#&&&&&&#X     ",
"     X#&&&&&&#@@OO+++++++O#&&&&&&&&&&#O+++++++OO@@#&&&&&&#X     ",
"     X##&&&&##@@OOO+++++OO##&&&&&&&&##OO+++++OOO@@##&&&&##X     ",
"     X@######@@@oOOOOOOOOo@##########@oOOOOOOOOo@@@######@X     ",
"     X@@####@@@@ooOOOOOOoo@@########@@ooOOOOOOoo@@@@####@@X     ",
"     X##&&&&&&&&&=======&&&&&&&&&&&&&&&&=======&&&&&&&&&##X     ",
"     X#&================================================&#X     ",
"     X#&&==============================================&&#X     ",
"     X#&&&&&&&&&&&&&&&&&&&&&&&&&&&&&&&&&&&&&&&&&&&&&&&&&&#X     ",
"     X####################################################X     ",
"     X@##################################################@X     ",
"      XX@@@@ooOOOOOOOOOOo@@@@@....@@@@@oOOOOOOOOOOoo@@@@XX      ",
"       X##@@oOOOOOOOOOOOO@@###....###@@OOOOOOOOOOOOo@@##X       ",
"       X##@@OOOOOOOOOOOOO@###&####&###@OOOOOOOOOOOOO@@##X       ",
"       X&&##OOO++++++++++@####====####@++++++++++OOO##&&X       ",
"       X&&##OO++++++++++++############++++++++++++OO##&&X       ",
"       X&&##OO+++$$$$$$$$+OOOOOOOOOOOO+$$$$$$$$+++OO##&&X       ",
"       X&&##OO++$$$$$$$$$$++++++++++++$$$$$$$$$$++OO##&&X       ",
"       X&&##OO++$$$$$$$$$$$$$$$$$$$$$$$$$$$$$$$$++OO##&&X       ",
"       X&&##OO++$$$$$$$$$$$$$$$$$$$$$$$$$$$$$$$$++OO##&&X       ",
"       X###@OO++++++++++++++++++++++++++++++++++++OO@###X       ",
"       X##@@oOO++++++++++++++++++++++++++++++++++OOo@@##X       ",
"       X################################################X       ",
"       X@##############################################@X       ",
"       X@@@@@@@@@@@@@@@@@@@@@@@@@@@@@@@@@@@@@@@@@@@@@@@@X       ",
"       XXXXXXXXXXXXXXXXXXXXXXXXXXXXXXXXXXXXXXXXXXXXXXXXXX       "
};
