/* XPM */
static char *_575043521870[] = {
/* columns rows colors chars-per-pixel */
"64 64 22 1 ",
"  c black",
". c #0C0C0C",
"X c #241614",
"o c #2A1B18",
"O c #33211F",
"+ c #202020",
"@ c #2A2525",
"# c #3B2824",
"$ c #36302F",
"% c #3A3533",
"& c gray22",
"* c #520D0C",
"= c #591C1C",
"- c #442E2A",
"; c #47312C",
": c #602323",
"> c #632626",
", c #464646",
"< c gray30",
"1 c #5D5D5D",
"2 c #6D6D6D",
"3 c #8D8989",
/* pixels */
"                                                                ",
"                                                                ",
"                                                                ",
"                                                                ",
"                                                                ",
"                                                                ",
"                                                                ",
"                                                                ",
"                                                                ",
"                                                                ",
"                                                                ",
"                                                                ",
"                                                                ",
"                                                                ",
"                                                                ",
"                                                                ",
"                                                                ",
"                                                                ",
"                                                                ",
"                                                                ",
"                                                                ",
"                                                                ",
"                                                                ",
"                                                                ",
"                                                                ",
"                                                                ",
"                                                                ",
"                                                                ",
"                                                                ",
"                                                                ",
"                                                                ",
"                                                                ",
"                                                                ",
"                                                                ",
"                                                                ",
"                                                                ",
"                                                                ",
"                                                                ",
"                                                                ",
"                                                                ",
"                                                                ",
"                 ++++++++++++++++++++++++++++                   ",
"                +1221,#----#,1221,#----#,1221+                  ",
"                +2332<-;;;;-<2332<-;;;;-<2332+                  ",
"                +2332<-;;;;-<2332<-;;;;-<2332+                  ",
"                +2332<-;;;;-<2332<-;;;;-<2332+                  ",
"                +1221,#----#,1221,#----#,1221+                  ",
"                +<11<&O####O&<11<&O####O&<11<+                  ",
"                +<11<&O####O&<11<&O####O&<11<+                  ",
"                +,<<,&oOOOOo&,<<,&oOOOOo&,<<,+                  ",
"                +,<<,&oOOOOo&,<<,&oOOOOo&,<<,+                  ",
"                +&,,&&XooooX&&,,&&XooooX&&,,&+                  ",
"                +<111<111111<1111<111111<111<+                  ",
"                +,<<<<<<<<<<<<<<<<<<<<<<<<<<,+                  ",
"                +,,,,,,,,,,,,,,,,,,,,,,,,,,,,+                  ",
"                 +&&Xoooooo&&&..&&&ooooooX&&+                   ",
"                 +,&oo,,%oo&,,..,,&oo,,%oo&:+                   ",
"                 +<,oO$$@OO&,,11,,&OO$$@O*,>+                   ",
"                 +<,oO@@@##oooooooo##@@@Oo,<+                   ",
"                 +<,oOXXX############XXXOo,<+                   ",
"                 +,&oOOOOOOOOOOOOOOOOOOOOo&:+                   ",
"                 +,,,,,,,,,,,,,,,,,,,,,,::::+                   ",
"                 +&&&&&&&&&&&&&&&&&&&&======+                   ",
"                  ++++++++++++++++++++++++++                    "
};
