/* XPM */
static char *_575303564353[] = {
/* columns rows colors chars-per-pixel */
"64 64 7 1 ",
"  c black",
". c #070101",
"X c #080000",
"o c #090100",
"O c #0A0001",
"+ c #090003",
"@ c gray12",
/* pixels */
"                                                                ",
"                                                                ",
"                                                                ",
"                                                                ",
"                                                                ",
"                                                                ",
"                                                                ",
"                                                                ",
"                                                                ",
"                                                                ",
"                                                                ",
"                                                                ",
"                                                                ",
"                                                                ",
"                                                                ",
"                                                                ",
"                                                                ",
"                                                                ",
"                                                                ",
"                                                                ",
"                                                                ",
"                                                                ",
"                                                                ",
"                                                                ",
"                                                                ",
"                                                                ",
"                                                                ",
"                                                                ",
"                                                                ",
"                                                                ",
"                                                                ",
"                                                                ",
"                                                                ",
"                                                                ",
"                                                                ",
"                                                                ",
"                                                                ",
"                                                                ",
"                                                                ",
"                                                                ",
"                         XXXX      XXXX                         ",
"                         XXXX      XXXX                         ",
"                       XX@@@@oo  ..@@@@XX                       ",
"                       X.@@@@X.  ..@@@@XX                       ",
"                     XX@@...X@@XX@@....@@XX                     ",
"                     XX@@...o@@.X@@....@@OX                     ",
"                   XX@@o.......@@X......X@@XX                   ",
"                   XX@@o.......@@X......X@@XX                   ",
"                   XX@@o................o@@XX                   ",
"                   XX@@o.................@@oX                   ",
"                   XX@@o.................@@oX                   ",
"                   XX@@o.................@@oX                   ",
"                     XX@@..............@@++                     ",
"                     XX@@..............@@.+                     ",
"                       Xo@@..........@@.X                       ",
"                       Xo@@..........@@..                       ",
"                         XX@@......@@XX                         ",
"                         XX@@......@@XX                         ",
"                           XX@@..@@XX                           ",
"                           XX@@..@@XX                           ",
"                             +X@@..                             ",
"                             X.@@..                             ",
"                               XX                               ",
"                               XX                               "
};
