/* XPM */
static char *_575291465058[] = {
/* columns rows colors chars-per-pixel */
"64 64 11 1 ",
"  c black",
". c #070101",
"X c #080000",
"o c #090100",
"O c #0A0001",
"+ c #090003",
"@ c gray12",
"# c #2A354E",
"$ c #506495",
"% c #A4A7CA",
"& c white",
/* pixels */
"                                                                ",
"                                                                ",
"                                                                ",
"                                                                ",
"                                                                ",
"                                                                ",
"                                                                ",
"                                                                ",
"                                                                ",
"                                                                ",
"                                                                ",
"                                                                ",
"                                                                ",
"                                                                ",
"                                                                ",
"                                                                ",
"                                                                ",
"                                                                ",
"                                                                ",
"                                                                ",
"                                                                ",
"                                                                ",
"                                                                ",
"                                                                ",
"                                                                ",
"                                                                ",
"                                                                ",
"                                                                ",
"                                                                ",
"                                                                ",
"                                                                ",
"                                                                ",
"                                                                ",
"                                                                ",
"                                                                ",
"                                                                ",
"                                                                ",
"                                                                ",
"                                                                ",
"                                                                ",
"                         XXXX      XXXX                         ",
"                         XXXX      XXXX                         ",
"                       XX@@@@XX  ..@@@@XX                       ",
"                       XX@@@@XX  ..@@@@XX                       ",
"                     XX@@$$$$@@XX@@....@@XX                     ",
"                     XX@@$$$$@@.X@@....@@OX                     ",
"                   XX@@$$&&%%$$@@X......X@@XX                   ",
"                   XX@@$$&&%%$$@@X......X@@XX                   ",
"                   XX@@$$%%$$$$$$.......o@@XX                   ",
"                   XX@@$$%%$$$$$$........@@oX                   ",
"                   XX@@##$$$$$$o.........@@oX                   ",
"                   XX@@##$$$$$$+.........@@oX                   ",
"                     XX@@##$$$$$$......@@++                     ",
"                     XX@@##$$$$$$......@@.+                     ",
"                       XX@@##$$o.....@@.X                       ",
"                       Xo@@##$$o.....@@..                       ",
"                         XX@@##$$..@@XX                         ",
"                         XX@@##$$..@@XX                         ",
"                           XX@@##@@XX                           ",
"                           XX@@##@@XX                           ",
"                             +X@@..                             ",
"                             X.@@..                             ",
"                               XX                               ",
"                               XX                               "
};
