/* XPM */
static char *_575043510527[] = {
/* columns rows colors chars-per-pixel */
"64 64 15 1 ",
"  c black",
". c #080000",
"X c #322F2F",
"o c #670505",
"O c #572B2B",
"+ c #474242",
"@ c gray40",
"# c #9B0000",
"$ c #8D1B1B",
"% c #875307",
"& c #B38707",
"* c #8D8080",
"= c #929292",
"- c #AEA5A5",
"; c gray68",
/* pixels */
"                                                                ",
"                                                                ",
"                                                                ",
"                                                                ",
"                                                                ",
"                                                                ",
"                                                                ",
"                                                                ",
"                                                                ",
"                                                                ",
"                                                                ",
"                                                                ",
"                                                                ",
"                                                                ",
"                                                                ",
"                                                                ",
"                                                                ",
"                       ...................                      ",
"                      .....................                     ",
"                      ..;;;;;;;;;;;;;;;;;..                     ",
"                      ..@===============;..                     ",
"                      ..@===============;..                     ",
"                      ..@==O=O=====%%%==;..                     ",
"                      ..@=O$O$O===%&&&%=;..                     ",
"                      ..@=O$$$O=@=%&&&%=;..                     ",
"              .      ...@==O$O====%&&&%=;...                    ",
"             ...    ..=.@===O======%%%==;.=..                   ",
"            ..X..  ..=;.@===============;.;=..                  ",
"            ..X.. ..=;;.@@@@@@@@@@@@@@@@@.;;=..                 ",
"            ..X....=;;;...................;;;=..                ",
"            ..X...@====;;;;;;;;;;;;;;;;;;;====@.                ",
"            ......@@@@@@@@@@=@========@@@@@@@@@..               ",
"           ..+++..=============================..               ",
"          ..+***..=============================..               ",
"          ..*+++..==XXXXXXXXXXXXXXXXXXXXXXXXX==..               ",
"          ..++++..==X.......................X==..               ",
"          ..X+++..==X.......................X==..               ",
"           ..XXX..==X.......................X==..               ",
"           .......==Xo#####################oX==..               ",
"           ..XXX..==X#######################X==..               ",
"           ..XXX..==XoooooooooooooooooooooooX==..               ",
"            ......==XoooooooooooooooooooooooX==.....            ",
"             .....==XoooooooooooooooooooooooX==..+*+.           ",
"             .*...==XXXXXXXXXXXXXXXXXXXXXXXXX==....*+.          ",
"            .+. ..=============================..  .*.          ",
"            .*. ..=============================..   .+.         ",
"           .+.  ..XXXXXXXXX@@@@XXXXX@@@XXX@@XXX..   .*.         ",
"           .*.....X===========================X..   .+.         ",
"          .+....XX=;;;;;;;;;;;;;;;;;;;;;;;;;;;=XX.. .*.         ",
"         .*...XXX=;;;;;;;;;;;;;;;;;;;;;;;;;;;;;=XXX..+.         ",
"        .+. ..-X===;;;;;;;;;;;;;;;;;;;;;;;;;;;===X*.*.          ",
"        .*. ..*X=================================X*..           ",
"        .+. ..+++++++++++++++++++++*+****+*++++++++.            ",
"         .*...XX.@@@@@@@@@@@@@@@@@@@@@@@@@@@@@@@.XX.            ",
"         .+....*.===============================.*..            ",
"          .*+..-.=======@...............@=======.-..            ",
"           ....*.=======.................=======.*..            ",
"             ..+.=======.................=======.+..            ",
"             ..*.=======.................=======.*..            ",
"             ..*.=======.................=======.*..            ",
"             ..*.=======.................=======.*..            ",
"             ..*@@@@@@@@.................@@@@@@@@*..            ",
"              .....................................             ",
"               ...................................              "
};
