/* XPM */
static char *_575043530505[] = {
/* columns rows colors chars-per-pixel */
"64 64 17 1 ",
"  c black",
". c #080000",
"X c #291F10",
"o c #2C2112",
"O c #362818",
"+ c #3F2D1C",
"@ c #412E1E",
"# c #443120",
"$ c #4A3422",
"% c #4A3623",
"& c #553C28",
"* c #6E4D33",
"= c #776757",
"- c #895E43",
"; c #996943",
": c #BD8354",
"> c #998675",
/* pixels */
"                                                                ",
"                                                                ",
"                                                                ",
"                                                                ",
"                                                                ",
"                                                                ",
"                                                                ",
"                                                                ",
"                                                                ",
"                                                                ",
"                                                                ",
"                                                                ",
"                                                                ",
"                                                                ",
"                                                                ",
"                                                                ",
"                                                                ",
"                                                                ",
"                                                                ",
"                ........... .........   ......                  ",
"               ...................................              ",
"              ..+&********+.++++++++*...++++**.....             ",
"             ..&&&&&&&&&&&&*******&&&&&&&+**&*****..            ",
"             ...%XX+++X+&X+&X&+X+&XXX&X&+X+&X+&X&&..            ",
"              ..&X+X&X+X&XX+X&X+X&&X&&X&X+X&XX+X&&..            ",
"              ..&X+X&X+X&X+XX&XXX&&X&&X&X+X&X+XX&&.             ",
"             ..#&XX+&+X+@X&+X&X#X#&X&&X&+XO#X#OX##..            ",
"              ..&&&&&&&+@&&&&&&&&&&###&&&&&&&&&&&&..            ",
"              ..@@@@@@@++o@@+@@@@@@@@@@@@@@@@@@@@@..            ",
"             ..XXXXXXXXXXXXXXXXXXXXXXXXXXXXXXXXXXX..            ",
"              ..-&-----------------------&-&---&-..             ",
"             ..-&&&&&&&&&&&&&&&&&&&&&&&&&&&&&&&&&-..            ",
"             .......................................            ",
"             ..;;;;;;&;&;;;;;;;;;;;;:;:::::;;;;;;;..            ",
"              ..******&*************;*;;;;;*;****..             ",
"              ...&&&&&&+&&&&&&&&&&&&&&&&&&&&&&&&...             ",
"              ..+...............................+..             ",
"              ..++.............................++..             ",
"              ..;*...>>=>>....>>>>>....>>>>>...;*..             ",
"              ..&*..>>>X>>>..>=XX=>>..>>=XX=>..;*..             ",
"              ..;&..>>=X>>>..>X==X>>..>=X==X>..;*..             ",
"              ..;*..>>XX>>>..>X>>X>>..>X===X>..;*..             ",
"              ..;*..>>X=>>>..>X==X>>..>=XXXX>..;*..             ",
"              ..;*..>>X>>>>..>=XX=>>..>>>=XX>..;&..             ",
"              ..**..>>=>>>>..>>>>>>>..>=XXX=>..&*..             ",
"              ..**...>>>>>....>>>>>....>>>>>...**..             ",
"              ..**.............................**..             ",
"              ..*+.&&******;:::::::::;******&&.+*..             ",
"             ...++&*****&&::+.......+::&&*****&++...            ",
"            ..+++&***&****;:::::::::::;****&***&+++..           ",
"            ..:;+&&****&**+&&&&&&&&&&&+*&*****&&+:;..           ",
"            ..;;+;;;;;;;;;;;;;;;;;;:;::::;;;;;;;+;;..           ",
"            ..*********************;*;;;;*;********..           ",
"            ..++.+++++++++++++++++++++++++++++++.++..           ",
"            ..;;.%&&##&*&&&&&&&$&**&*&&*********.;;..           ",
"            ..::.+##&&&&+&&&&&$&&&&&&&&&&&&&&&&&.::..           ",
"            ..;;.%&&&&&&&$&&&%&&&&&&&&&&&&&&&&&$.;;..           ",
"            ..**.++++++++++++++++++++%&&&&&$++++.**..           ",
"            ..*;.%******$&***&*&&&&&$+++++++***&.;*..           ",
"            ..*;.&&&&&&&$&&&&&&&&&&&&&&$&&*%+$&&.;*..           ",
"            ..*;.%&&&&&&$&&&&&&&&&&&&&&$&&&&$+$%.;*..           ",
"             ..;+++++++++++++++++++++++++++++++++;..            ",
"              .....................................             ",
"               ...................................              "
};
