/* XPM */
static char *_574960865133[] = {
/* columns rows colors chars-per-pixel */
"64 64 114 2 ",
"   c black",
".  c #35261F",
"X  c #2B2220",
"o  c #332621",
"O  c #392A23",
"+  c #422C1E",
"@  c #46301F",
"#  c #5C3A1F",
"$  c #653B1B",
"%  c #442F21",
"&  c #473021",
"*  c #4A3221",
"=  c #42312B",
"-  c #4B342A",
";  c #563820",
":  c #5C3C26",
">  c #4F3A33",
",  c #543C32",
"<  c #583D31",
"1  c #603B24",
"2  c #6E431E",
"3  c #74441B",
"4  c #7B4A1D",
"5  c #544033",
"6  c #5D4531",
"7  c #5A413A",
"8  c #5F493B",
"9  c #654126",
"0  c #684125",
"q  c #6D4A2D",
"w  c #7C4B26",
"e  c #7C4D2D",
"r  c #7E5128",
"t  c #674435",
"y  c #6B4735",
"u  c #6D4D35",
"i  c #634B39",
"p  c #694D38",
"a  c #714E34",
"s  c #75533C",
"d  c #7B5539",
"f  c #6C5141",
"g  c #765746",
"h  c #7A5742",
"j  c #86501B",
"k  c #B64A01",
"l  c #B94D02",
"z  c #BC5205",
"x  c #BE5708",
"c  c #80532D",
"v  c #8A572B",
"b  c #955B24",
"n  c #975A2B",
"m  c #985F2C",
"M  c #845639",
"N  c #8B5C39",
"B  c #C55509",
"V  c #C8570A",
"C  c #C25D0C",
"Z  c #CC5B0B",
"A  c #DD5C04",
"S  c #D15E0E",
"D  c #D25F10",
"F  c #C76912",
"G  c #CA6B13",
"H  c #D56111",
"J  c #D86412",
"K  c #CD7416",
"L  c #CF7519",
"P  c #CF791A",
"I  c #D27B1B",
"U  c #EF6203",
"Y  c #F06202",
"T  c #F16906",
"R  c #F16D0A",
"E  c #F1720D",
"W  c #CD7B23",
"Q  c #D17E25",
"!  c #D5811F",
"~  c #D68224",
"^  c #D88526",
"/  c #DA8B25",
"(  c #D98428",
")  c #CE9B3B",
"_  c #D19E3C",
"`  c #F28E23",
"'  c #ED9229",
"]  c #F29326",
"[  c #F39629",
"{  c #D5A13D",
"}  c #DAA53E",
"|  c #DEA83F",
" . c #E2AB3F",
".. c #F5B53E",
"X. c #F5B83E",
"o. c #DCA641",
"O. c #E4AC41",
"+. c #E8AF41",
"@. c #EBB241",
"#. c #F3B741",
"$. c #F5B942",
"%. c #DBBD84",
"&. c #E6C588",
"*. c #EBC988",
"=. c #F0CC87",
"-. c #F9D287",
";. c #F7D289",
":. c #F8D389",
">. c #E6DCCD",
",. c #ECE1CF",
"<. c #F7E9CE",
"1. c #FCECCE",
"2. c #F3E6D0",
"3. c #FDEED1",
/* pixels */
"                                                                                                                                ",
"                                                                                                                                ",
"                                                                                                                                ",
"                                                                                                                                ",
"                                                                                                                                ",
"                                                                                                                                ",
"                                                                                                                                ",
"                                                                                                                                ",
"                                                                                                                                ",
"                                                                                                                                ",
"                                                                                                                                ",
"                                                                                                                                ",
"                                                                                                                                ",
"                                                                                                                                ",
"                                                                                                                                ",
"                                                                                                                                ",
"                                                                                                                                ",
"                                                                                                                                ",
"                                                                                                                                ",
"                                                                                                                                ",
"                                                                                                                                ",
"                                                                                                                                ",
"                                                                                                                                ",
"                                                                                                                                ",
"                                                                                                                                ",
"                                                                                                                                ",
"                                                                                                                                ",
"                                                                                                                                ",
"                                                                                                                                ",
"                                                                k                                                               ",
"                                                              k k                                                               ",
"                                                            k $.k                                                               ",
"                                                            Y $.Y                   k                                           ",
"                                                            Y $.Y                 k Y                                           ",
"                                                              Y G                 Y                                             ",
"                                                    l     I P P L z                                                             ",
"                                                  l U I ! ~ x T T T z I                                                         ",
"                                                z z T / / x T R R T T x !                                                       ",
"                                                z T T x x R R E R R R x z !                                                     ",
"                                              l z T R R C E E E E E R R x x                                                     ",
"                                              z T T R E E E E [ E E E R R x /                                                   ",
"                                              z T R R E E E [ [ [ E E E R x ^                                                   ",
"                                            L T R R E E E [ [ [ [ E E E R R x !                                                 ",
"                                            K U T R E [ [ $.$.$.[ [ E E E R R ! I                                               ",
"                                          F z U ] ] ] [ $.$.$.$.$.[ E E C E B z L                                               ",
"                                          z ] $.$.] ] [ $.$.3.$.$.$.E E E E ] ] U z                                             ",
"                                        l ` $.$.$.$.#.[ $.$.:.#.$.$.[ E [ [ X.$.$.] U k                                         ",
"                                        k $.$.$.#.o.O.@.' $.#.#.$.$.[ [ $.$.$.$.$.$.$.` k                                       ",
"                                        U $.$.$.{ O...$.@.' $.$.#.[ $.$.$.$.$.$.$.$.$...k                                       ",
"                                        Y $.$.) } X.....#.#.#.:.#.$.$.@.+. .} $.$.$.$.$.Y                                       ",
"                                        Y ` $.) { } ..X.X.#.;.3.:.#...#...O..._ $.$.$.$.Y                                       ",
"                                        Y Y ` $._ } }  .O.=.<.3.1.$.$.$...O.O.{ ) $.$.` Y                                       ",
"                                          U U ` ] { } | O.1.1.1.1.-.X.O.O.| } _ ) $.` Y                                         ",
"                                          Y U B P W { $...1.1.2.2.2.*.O.o.{ _ ) ` Y Y                                           ",
"                                            B D H W ~ ( O.&.,.,.,.,.O.} o.{ W W Y Y                                             ",
"                                            $ n D D J ~ ~ o.&.>.>.%.} { Q W V A Y                                               ",
"                                          + M e n n J S D ~ o.%.%.{ ~ Z Z V V 3 $                                               ",
"                                          . s a d c v m b Z ~ ) _ W Z j 4 3 w e 1 %                                             ",
"                                          o i h u d N N r 0 4 4 4 3 3 2 $ 0 : ; t - o                                           ",
"                                          X 8 p p p s a q # # # # # 9 ; : y < < = , X                                           ",
"                                          X 5 8 f g p 6 & & & @ & * * & > < - = < = X                                           ",
"                                            X 5 8 8 5 X o o       o o O O = , 7 = o X                                           ",
"                                              X X X X                 X X O O = o X                                             ",
"                                                                          X X X X                                               "
};
