/* XPM */
static char *_574960943857[] = {
/* columns rows colors chars-per-pixel */
"64 64 108 2 ",
"   c black",
".  c #3A231E",
"X  c #2C2220",
"o  c #332521",
"O  c #3B2520",
"+  c #41251E",
"@  c #4F231A",
"#  c #53241A",
"$  c #5B2C1F",
"%  c #6C2F1E",
"&  c #75311C",
"*  c #79331D",
"=  c #412720",
"-  c #432922",
";  c #552D22",
":  c #43302B",
">  c #4B312A",
",  c #5C3327",
"<  c #523128",
"1  c #553C33",
"2  c #583830",
"3  c #5F3F38",
"4  c #712F20",
"5  c #6C3324",
"6  c #62392E",
"7  c #693C2D",
"8  c #743321",
"9  c #7D3622",
"0  c #723C2F",
"q  c #7C3F2C",
"w  c #544033",
"e  c #5A4032",
"r  c #7E432E",
"t  c #6C4635",
"y  c #61483A",
"u  c #724533",
"i  c #7A4533",
"p  c #714D3D",
"a  c #7C5342",
"s  c #B61901",
"d  c #B91D03",
"f  c #89361C",
"g  c #BC2206",
"h  c #BE2608",
"j  c #8B3B26",
"k  c #C42309",
"l  c #CA270A",
"z  c #C22C0C",
"x  c #CD280C",
"c  c #D22C0E",
"v  c #D42E11",
"b  c #C73A12",
"n  c #CA3A13",
"m  c #D83112",
"M  c #EF2303",
"N  c #F02202",
"B  c #F02A06",
"V  c #F12E09",
"C  c #F1330C",
"Z  c #F1380F",
"A  c #8E442D",
"S  c #934125",
"D  c #9D4B2F",
"F  c #8B4732",
"G  c #814A36",
"H  c #964A32",
"J  c #CD4316",
"K  c #CF4619",
"L  c #D14719",
"P  c #D24C1C",
"I  c #D5511F",
"U  c #CC4E23",
"Y  c #D55324",
"T  c #D85725",
"R  c #DB5C25",
"E  c #D65629",
"W  c #DB582A",
"Q  c #EC5E28",
"!  c #F25522",
"~  c #F25B26",
"^  c #F35F28",
"/  c #CE753B",
"(  c #D1763C",
")  c #D5793D",
"_  c #DB7C3E",
"`  c #F36129",
"'  c #E17F3F",
"]  c #DE7E40",
"[  c #E4803F",
"{  c #F58C3E",
"}  c #E68240",
"|  c #ED8541",
" . c #F18741",
".. c #F58942",
"X. c #D9A583",
"o. c #DEA884",
"O. c #E4AC87",
"+. c #E9AE86",
"@. c #F9B787",
"#. c #F5B388",
"$. c #F9B589",
"%. c #E5D5CC",
"&. c #E8D7CD",
"*. c #ECDACE",
"=. c #F3DDCF",
"-. c #EEDBD1",
";. c #FDE2CE",
":. c #FCE1D1",
/* pixels */
"                                                                                                                                ",
"                                                                                                                                ",
"                                                                                                                                ",
"                                                                                                                                ",
"                                                                                                                                ",
"                                                                                                                                ",
"                                                                                                                                ",
"                                                                                                                                ",
"                                                                                                                                ",
"                                                                                                                                ",
"                                                                                                                                ",
"                                                                                                                                ",
"                                                                                                                                ",
"                                                                                                                                ",
"                                                                                                                                ",
"                                                                                                                                ",
"                                                                                                                                ",
"                                                                                                                                ",
"                                                                                                                                ",
"                                                                                                                                ",
"                                                                                                                                ",
"                                                                                                                                ",
"                                                                                                                                ",
"                                                                                                                                ",
"                                                                                                                                ",
"                                                                                                                                ",
"                                                                                                                                ",
"                                                                                                                                ",
"                                                                                                                                ",
"                                                                                                                                ",
"                                                                  s                                                             ",
"                                                                s s                                                             ",
"                                                              s ..s                                                             ",
"                                                              N ..N                   s                                         ",
"                                                              N ..M                 s N                                         ",
"                                                                N n                 N                                           ",
"                                                      d     P L L L d                                                           ",
"                                                    g N P I Y g B B B g P                                                       ",
"                                                  d d B Y R h V V C B B g P                                                     ",
"                                                  d B B h h C C C V C V z g Y                                                   ",
"                                                g g B V V z C C C C C C V h g                                                   ",
"                                                d B V V C C Z Z ` C C C C V h T                                                 ",
"                                                d V V V C Z Z ` ` ` Z C C C h T                                                 ",
"                                              K B V V C C Z ` ` ` ` Z C C C V g Y                                               ",
"                                              J B V C C ` ` ......` ` Z C C V V I P                                             ",
"                                            b g B ~ ~ ~ ` ..........` Z Z z V h g L                                             ",
"                                            d ! ....~ ~ ^ ....:.......Z Z C C ~ ~ N d                                           ",
"                                          d ! ......_ ' Q  ...#.......` Z ^ ^ ..{ ..~ M s                                       ",
"                                          d ......) ' { ..Q .. ... ...^ ` ..............! s                                     ",
"                                          M ....( ] { { { ..Q ......^ .. .} ' _ ..........s                                     ",
"                                          N ..../ ) _ { ..{  ...$..... .....} { ) ........N                                     ",
"                                          N ! ....( _ ' } | | #.:.$.....{ { ' ] ) ( ......N                                     ",
"                                          N N ~ ....) _ ' } @.;.:.=.....| } ' ] ) / ....! N                                     ",
"                                            M N U U ( ] { { ;.;.=.:.#. .} } _ ) ( ....! N                                       ",
"                                            N k v E Y ] ] } -.=.=.=.=.+.} ) ] / / ~ N N                                         ",
"                                              k v c E W T ' O.-.&.*.&._ ) ) / U ! N N                                           ",
"                                            @ F j v v m E E [ O.%.%.o.) ) Y U l k k                                             ",
"                                            + i r A S c v x E ) X.X.) Y x l l x j 4 #                                           ",
"                                            . t i i F H D S l U ( ( U l f * 9 8 5 0 ; .                                         ",
"                                            o y p t u G r r & * & & * 9 4 8 q 7 6 < 2 o                                         ",
"                                            X w y p a t 7 ; $ $ $ % $ ; ; , 6 < > 3 : X                                         ",
"                                              X w y y e O O .       - = - = > 1 3 : o X                                         ",
"                                                X X X X                 o o o : : o X                                           ",
"                                                                            X X X X                                             "
};
