/* XPM */
static char *_575485501203[] = {
/* columns rows colors chars-per-pixel */
"64 64 6 1 ",
"  c black",
". c #080000",
"X c gray20",
"o c #535353",
"O c #777777",
"+ c white",
/* pixels */
"                                                                ",
"                                                                ",
"                                                                ",
"                                                                ",
"                                                                ",
"                                                                ",
"                                                                ",
"                                                                ",
"                                                                ",
"                                                                ",
"                                                                ",
"                                                                ",
"                                                                ",
"                                                                ",
"                                                                ",
"                                                                ",
"                                                                ",
"                                                                ",
"                                                                ",
"                                                                ",
"                                                                ",
"                                                                ",
"                                                                ",
"                                                                ",
"                                                                ",
"                                                                ",
"                                                                ",
"                                                                ",
"                                                                ",
"                                                                ",
"                                                                ",
"                                                                ",
"                                                                ",
"                                                                ",
"                                                                ",
"                                                                ",
"                                                                ",
"                                                                ",
"                                                                ",
"                                                                ",
"                                                                ",
"                                                                ",
"                                                                ",
"                              .....                             ",
"                            .........                           ",
"                           ...oOOOo...                          ",
"                          ..oO+++OOOo..                         ",
"                         ..oO+++OOOOOo..                        ",
"                        ..oOOOOOOOOOOOo..                       ",
"                        ..+o...oO....oO..                       ",
"                       ..oO.ooo.O.oOOOOo..                      ",
"                       ..OO.OOo.O.oOOOOo..                      ",
"                       ..OOOo..oO....oOo..                      ",
"                       ..oOo.ooOOOOOo.oo..                      ",
"                       ..oO.oOOOOOOOo.oo..                      ",
"                       ...o.....o....oo...                      ",
"                       ...ooooOOOOooooo...                      ",
"                        .X.ooooooooo+o.X.                       ",
"                        ..X.ooo+oo++o.X..                       ",
"                         ..X..ooooo..X..                        ",
"                          ..XX.....XX..                         ",
"                           ...XXXXX...                          ",
"                            .........                           ",
"                              .....                             "
};
