/* XPM */
static char *_575485590338[] = {
/* columns rows colors chars-per-pixel */
"64 64 4 1 ",
"  c black",
". c #080000",
"X c #FF9797",
"o c white",
/* pixels */
"                                                                ",
"                                                                ",
"                                                                ",
"                                                                ",
"                                                                ",
"                                                                ",
"                                                                ",
"                                                                ",
"                                                                ",
"                                                                ",
"                                                                ",
"                                                                ",
"                                                                ",
"                                                                ",
"                                                                ",
"                                                                ",
"                                                                ",
"                                                                ",
"                                                                ",
"                                                                ",
"                                                                ",
"                                                                ",
"                                                                ",
"                                                                ",
"                                                                ",
"                                                                ",
"                                                                ",
"                                                                ",
"                                                                ",
"                                                                ",
"                                                                ",
"                                                                ",
"                                                                ",
"                                                                ",
"                                                                ",
"                                                                ",
"                                                                ",
"                                                                ",
"                                                                ",
"                                                                ",
"                                                                ",
"                                                                ",
"                                                                ",
"                                                                ",
"                                                                ",
"                                                                ",
"                                                                ",
"                                                                ",
"                                                                ",
"                                                                ",
"                                                                ",
"                                                                ",
"                                                                ",
"                           ...           ...                    ",
"                         ......        ......                   ",
"                      ...... ..  ......... ..                   ",
"                     ........   .........                       ",
"                    ..ooXXXo.. ..oXXooX..                       ",
"                    ..XX..XX.....XX..XX..                       ",
"                    ..Xo..XX.....XX..oX..                       ",
"                    ..XXXXoo.. ..oXXXXX..                       ",
"                     ........   ........                        ",
"                      ......     ......                         ",
"                       ....       ....                          "
};
