/* XPM */
static char *_575485582844[] = {
/* columns rows colors chars-per-pixel */
"64 64 9 1 ",
"  c black",
". c #080000",
"X c #651D1D",
"o c gray39",
"O c #972323",
"+ c #E70000",
"@ c #979797",
"# c #FF9797",
"$ c #CBCBCB",
/* pixels */
"                                                                ",
"                                                                ",
"                                                                ",
"                                                                ",
"                                                                ",
"                                                                ",
"                                                                ",
"                                                                ",
"                                                                ",
"                                                                ",
"                                                                ",
"                                                                ",
"                                                                ",
"                                                                ",
"                                                                ",
"                                                                ",
"                                                                ",
"                                                                ",
"                                                                ",
"                                                                ",
"                                                                ",
"                                                                ",
"                                                                ",
"                                                                ",
"                                                                ",
"                                                                ",
"                                                                ",
"                                                                ",
"                                                                ",
"                                                                ",
"                                                                ",
"                                                                ",
"                                                                ",
"                                                                ",
"                                                                ",
"                                                                ",
"                                                                ",
"                                                                ",
"                                                                ",
"                                                                ",
"                                 .                              ",
"                                ...                             ",
"                               ..+..                            ",
"                              ..++..                            ",
"                              ..+#+..                           ",
"                             ..++#+..                           ",
"                              ..++..                            ",
"                               ....                             ",
"                               ....                             ",
"                              ......                            ",
"                             ..OOOO..                           ",
"                             ..XO.OO..                          ",
"                             ...O.OO..                          ",
"                             ...O.OO..                          ",
"                        ..   ..X.OO..                           ",
"                       ....  ..XXXO..                           ",
"                      ..@$.. ..XXXO..                           ",
"                     ..@..@....XXXO.. ..                        ",
"                     ..@..@....XXXO......                       ",
"                     ..@oo............@@..                      ",
"                      ..o@@@$@@@@$@$$@@@..                      ",
"                       ..ooooooooooooooo..                      ",
"                        .................                       ",
"                         ...............                        "
};
