/* XPM */
static char *_575485586843[] = {
/* columns rows colors chars-per-pixel */
"64 64 5 1 ",
"  c black",
". c #080000",
"X c #FF9797",
"o c #CCC9D2",
"O c white",
/* pixels */
"                                                                ",
"                                                                ",
"                                                                ",
"                                                                ",
"                                                                ",
"                                                                ",
"                                                                ",
"                                                                ",
"                                                                ",
"                                                                ",
"                                                                ",
"                                                                ",
"                                                                ",
"                                                                ",
"                                                                ",
"                                                                ",
"                                                                ",
"                                                                ",
"                                                                ",
"                                                                ",
"                                                                ",
"                                                                ",
"                                                                ",
"                                                                ",
"                                                                ",
"                                                                ",
"                                                                ",
"                                                                ",
"                                                                ",
"                                                                ",
"                                                                ",
"                                                                ",
"                                                                ",
"                                                                ",
"                                                                ",
"                                                                ",
"                                                                ",
"                      oo    oooooo      o                       ",
"                     ooo   oooooo      oo                       ",
"                    oooo   oo          oo                       ",
"                    oooo   ooooooo    oooo                      ",
"                      oo    ooooooo  oo ooo                     ",
"                      oo    oooooooo o   oo                     ",
"                      oo    o     oo o                          ",
"                      oo          oo oo                         ",
"                      oo          oo  oooo                      ",
"                      oo    oo   ooo   oo                       ",
"                    ooooo   ooooooo    o                        ",
"                    ooooo     oooo                              ",
"                                                                ",
"                                                                ",
"                                                                ",
"                                                                ",
"                           ...           ...                    ",
"                         ......        ......                   ",
"                      ...... ..  ......... ..                   ",
"                     ........   .........                       ",
"                    ..OOXXXO.. ..OXXOOX..                       ",
"                    ..XX..XX.....XX..XX..                       ",
"                    ..XO..XX.....XX..OX..                       ",
"                    ..XXXXOO.. ..OXXXXX..                       ",
"                     ........   ........                        ",
"                      ......     ......                         ",
"                       ....       ....                          "
};
