/* XPM */
static char *_575485567812[] = {
/* columns rows colors chars-per-pixel */
"64 64 10 1 ",
"  c black",
". c #080000",
"X c #54253A",
"o c #632A43",
"O c #654859",
"+ c #8D2C53",
"@ c #886379",
"# c #CBCBCB",
"$ c #CCC9D2",
"% c gray92",
/* pixels */
"                                                                ",
"                                                                ",
"                                                                ",
"                                                                ",
"                                                                ",
"                                                                ",
"                                                                ",
"                                                                ",
"                                                                ",
"                                                                ",
"                                                                ",
"                                                                ",
"                                                                ",
"                                                                ",
"                                                                ",
"                                                                ",
"                                                                ",
"                                                                ",
"                                                                ",
"                                                                ",
"                                                                ",
"                                                                ",
"                                                                ",
"                                                                ",
"                                                                ",
"                                                                ",
"                                                                ",
"                       $$$$$    $$$$$     $                     ",
"                      $$$$$$$  $$$$$$$   $$                     ",
"                      $$   $$  $$   $$   $$                     ",
"                     $$$   $$ $$$   $$  $$$$                    ",
"                     $$$   $$ $$$   $$ $$ $$$                   ",
"                      $$$$$$$  $$$$$$$ $   $$                   ",
"                       $$$$$$   $$$$$$ $                        ",
"                           $$       $$ $$                       ",
"                           $$       $$  $$$$                    ",
"                           $$       $$   $$                     ",
"                           $$       $$   $                      ",
"                           $$       $$                          ",
"                                                                ",
"                                                                ",
"                                                                ",
"                                                                ",
"                          .............                         ",
"                         ...............                        ",
"                         ..%%%%%%%####..                        ",
"                         ..%%%%%%%####..                        ",
"                         ..#%%%%%%####..                        ",
"                         ...............                        ",
"                          ...OOOOOOO...                         ",
"                         ..O@@@@@@OOOO..                        ",
"                        ..O@@@@@@@@OOOO..                       ",
"                        ..O@@............                       ",
"                        ..O@.%%%%%%%###..                       ",
"                        ..O@.%.%.%..#.#..                       ",
"                        ..O@.%%%%%%%###..                       ",
"                        ..O@.oooooooXXX..                       ",
"                        ..O@.o++++++ooX..                       ",
"                        ..O@.oooooooXXX..                       ",
"                        ..O@@............                       ",
"                        ..O@@@@@@@@OOOO..                       ",
"                        ..OOOOOOOOOOOOO..                       ",
"                         ...............                        ",
"                          .............                         "
};
