/* XPM */
static char *_575043556229[] = {
/* columns rows colors chars-per-pixel */
"64 64 6 1 ",
"  c black",
". c #080000",
"X c gray74",
"o c #87A5C9",
"O c gray86",
"+ c white",
/* pixels */
"                                                                ",
"                                                                ",
"                                                                ",
"                                                                ",
"                                                                ",
"                                                                ",
"                                                                ",
"                                                                ",
"                                                                ",
"                                                                ",
"                                                                ",
"                                                                ",
"                                                                ",
"                                                                ",
"                                                                ",
"                                                                ",
"                                                                ",
"                                                                ",
"                                                                ",
"                                                                ",
"                                                                ",
"                                                                ",
"                                                                ",
"                                                                ",
"                                                                ",
"                                                                ",
"                                                                ",
"                                                                ",
"                                                                ",
"                                                                ",
"                                                                ",
"                                                                ",
"                                                                ",
"                                                                ",
"                                                                ",
"                                                                ",
"                                                                ",
"                                                                ",
"                                                                ",
"                                                                ",
"                                                                ",
"                                                                ",
"                                                                ",
"                         ..........                             ",
"                       .............                            ",
"                      ....XOOOOOOX...                           ",
"                     ...X.........XX..                          ",
"                    ...X.o+++ooooo.XX.+.                        ",
"                    ..X.o+++++...oo.X+...                       ",
"                   ....o++++++....oo+OX...                      ",
"                   ..X.o+++++......o.OOX..                      ",
"                   ..O.o.+++.......o.OOO...                     ",
"                   ..O.o...........o.OOOX..                     ",
"                   ..O.o...........o.OOOX..                     ",
"                   ..O.oo........++o.OOOX..                     ",
"                   ..OX.o.......+++o.OOOX..                     ",
"                   ..XO.ooo.....++o.XOOOX..                     ",
"                   ...OX..oooooooo.XOOOXX..                     ",
"                    ..XO+X........XOOOOX...                     ",
"                     ..++OOOOOOOOOOOOOXX..                      ",
"                      ++XOOOOOOOOOOXXXX...                      ",
"                       ...XXXXXXXXXXX....                       ",
"                        ................                        ",
"                         .............                          "
};
