/* XPM */
static char *_575456286704[] = {
/* columns rows colors chars-per-pixel */
"64 64 12 1 ",
"  c black",
". c #080000",
"X c #434343",
"o c #9B0000",
"O c #FF4B4B",
"+ c #FFF300",
"@ c #336B8B",
"# c #6FC3EF",
"$ c #BBBBBB",
"% c #FFFF87",
"& c #CCC9D2",
"* c white",
/* pixels */
"                                                                ",
"                                                                ",
"                                                                ",
"                                                                ",
"                                                                ",
"                                                                ",
"                                                                ",
"                                                                ",
"                                                                ",
"                                                                ",
"                                                                ",
"                                                                ",
"                                                                ",
"                                                                ",
"                                                                ",
"                                                                ",
"                                                                ",
"                                                                ",
"                                                                ",
"                                                                ",
"                                                                ",
"                                                                ",
"                                                                ",
"                                                                ",
"                                                                ",
"                                                                ",
"                                                                ",
"                                                                ",
"                                                                ",
"                                                                ",
"                                                                ",
"                                                                ",
"                                                                ",
"                       &&    &&&&&&      &                      ",
"                      &&&   &&&&&&      &&                      ",
"                     &&&&   &&          &&                      ",
"                     &&&&   &&&&&&&    &&&&                     ",
"                       &&    &&&&&&&  && &&&                    ",
"                       &&    &&&&&&&& &   &&                    ",
"                       &&    &     && &                         ",
"                       &&          && &&                        ",
"                       &&          &&  &&&&                     ",
"                       &&    &&   &&&   &&                      ",
"                     &&&&&   &&&&&&&    &                       ",
"                     &&&&&     &&&&                             ",
"                                                                ",
"                       ...................                      ",
"                      .....................                     ",
"                     ..+%%%%+.$***$.@####@..                    ",
"                      ..%%%+.$*****$.@###..                     ",
"                      ..+%+.$$.....$$.@#@..                     ",
"                       ..+.$$X$XX.$X$$.@..                      ",
"                        ..$*X.*XX.*.X*$..                       ",
"                        ..X$$X$...$X$$X..                       ",
"                         ..X$$.....$$X..                        ",
"                          ..X$*****$X..                         ",
"                          ...X$$$$$X...                         ",
"                           ...........                          ",
"                            .oOOOOOo.                           ",
"                            ..oOOOo..                           ",
"                             ..oOo..                            ",
"                              ..o..                             ",
"                               ...                              ",
"                                .                               "
};
