/* XPM */
static char *_575485564612[] = {
/* columns rows colors chars-per-pixel */
"64 64 8 1 ",
"  c black",
". c #080000",
"X c #335FB3",
"o c #3B6BCB",
"O c #5787E7",
"+ c #7FA7EF",
"@ c #ABC7F3",
"# c #DBE7FB",
/* pixels */
"                                                                ",
"                                                                ",
"                                                                ",
"                                                                ",
"                                                                ",
"                                                                ",
"                                                                ",
"                                                                ",
"                                                                ",
"                                                                ",
"                                                                ",
"                                                                ",
"                                                                ",
"                                                                ",
"                                                                ",
"                                                                ",
"                                                                ",
"                                                                ",
"                                                                ",
"                                                                ",
"                                                                ",
"                                                                ",
"                                                                ",
"                                                                ",
"                                                                ",
"                                                                ",
"                                                                ",
"                                                                ",
"                                                                ",
"                                                                ",
"                                                                ",
"                                                                ",
"                                                                ",
"                                                                ",
"                                                                ",
"                                #                               ",
"                                #      #                        ",
"                                ##    ##                        ",
"                     #         ###   ##                         ",
"                     ##       ..... ###                         ",
"                      ##     .......##                          ",
"                       ###  ..#####..#   ###                    ",
"                       #####..X###X..######                     ",
"                        ##....@X#X+....##                       ",
"                        #.....@@X++.....                        ",
"                        ..@X@@@@X++++X@..                       ",
"                   #####..@@X@@@X+++X@@..                       ",
"                     ###..@@@XXXXXXX@@@..                       ",
"                        ..@@X+++XOOOX@@..                       ",
"                        ..@XOO++XOOooX@..                       ",
"                        #.....++XOO.....                        ",
"                        ##....++XOO....#                        ",
"                      ######..++XOO..####                       ",
"                     ####   ..++XOO.. ####                      ",
"                    ##      ..+XOXO..   ###                     ",
"                           #..XOOOX..     ##                    ",
"                           #..ooooo..#                          ",
"                          ###.......###                         ",
"                         ###  .....  ##                         ",
"                        ##    ####    #                         ",
"                               ##                               ",
"                               ##                               ",
"                               #                                ",
"                               #                                "
};
