/* XPM */
static char *_575485507083[] = {
/* columns rows colors chars-per-pixel */
"64 64 12 1 ",
"  c black",
". c #080000",
"X c #4F1713",
"o c #6F2B1F",
"O c #644228",
"+ c #7F5433",
"@ c #777777",
"# c #974B33",
"$ c #A66E43",
"% c #A7A7A7",
"& c #CCC9D2",
"* c white",
/* pixels */
"                                                                ",
"                                                                ",
"                                                                ",
"                                                                ",
"                                                                ",
"                                                                ",
"                                                                ",
"                                                                ",
"                                                                ",
"                                                                ",
"                                                                ",
"                                                                ",
"                                                                ",
"                                                                ",
"                                                                ",
"                                                                ",
"                                                                ",
"                                                                ",
"                                                                ",
"                                                                ",
"                                                                ",
"                                                                ",
"                                                                ",
"                                                                ",
"                                                                ",
"                                                                ",
"                        &&    &&&&&&      &                     ",
"                       &&&   &&&&&&      &&                     ",
"                      &&&&   &&          &&                     ",
"                      &&&&   &&&&&&&    &&&&                    ",
"                        &&    &&&&&&&  && &&&                   ",
"                        &&    &&&&&&&& &   &&                   ",
"                        &&    &     && &                        ",
"                        &&          && &&                       ",
"                        &&          &&  &&&&                    ",
"                        &&    &&   &&&   &&                     ",
"                      &&&&&   &&&&&&&    &                      ",
"                      &&&&&     &&&&                            ",
"                                                                ",
"                                                                ",
"                                                                ",
"                                                                ",
"                             .....                              ",
"                          ...........                           ",
"                         ....@%%%@....                          ",
"                        ..@%@.....@%@..                         ",
"                       ..@...XXXXX...@..                        ",
"                       ..%.XXX....oX.%..                        ",
"                       ..@....ooo##o.@..                        ",
"                       ...%@.o#**##.@...                        ",
"                       ..@...o#**##..@..                        ",
"                       ..+%%%.#####.%+..                        ",
"                       ..++++.o###o.++..                        ",
"                       ..+$$$+.ooo.+$+..                        ",
"                       ..+OO$$+...+$$+...                       ",
"                       ..+O$O$OO++OO$+.o..                      ",
"                       ..+O$OO$$OO$$$+.#..                      ",
"                       ..+OO$O$$OO$O$+.*#..                     ",
"                       ..+$$$$OO$$OO$+.###..                    ",
"                       ..@++$$$$$$$++%.#**#..                   ",
"                       ..@%%+++++++%%@.###o..                   ",
"                        ..@@%%%%%%%@@.oooo..                    ",
"                         ....@@@@@.........                     ",
"                          ........... ....                      "
};
