/* XPM */
static char *_575485575035[] = {
/* columns rows colors chars-per-pixel */
"64 64 6 1 ",
"  c black",
". c #080000",
"X c #834A46",
"o c gray53",
"O c #BBBBBB",
"+ c gray86",
/* pixels */
"                                                                ",
"                                                                ",
"                                                                ",
"                                                                ",
"                                                                ",
"                                                                ",
"                                                                ",
"                                                                ",
"                                                                ",
"                                                                ",
"                                                                ",
"                                                                ",
"                                                                ",
"                                                                ",
"                                                                ",
"                                                                ",
"                                                                ",
"                                                                ",
"                                                                ",
"                                                                ",
"                                                                ",
"                                                                ",
"                                                                ",
"                                                                ",
"                                                                ",
"                                                                ",
"                                                                ",
"                                                                ",
"                                                                ",
"                                                                ",
"                                                                ",
"                                                                ",
"                                                                ",
"                                                                ",
"                                                                ",
"                                                                ",
"                                                                ",
"                                                                ",
"                                                                ",
"                                                                ",
"                      ............   ......                     ",
"                      ............   ......                     ",
"                      ............   ......                     ",
"                   ...oooOOO++++++...XXX...                     ",
"                   ...oooOOO++++++...XXX...                     ",
"                   ...oooOOO++++++...XXX...                     ",
"                      ......oooOOO+++...                        ",
"                      ......oooOOO+++...                        ",
"                      ......oooOOO+++...                        ",
"                            ...oooOOO+++...                     ",
"                            ...oooOOO+++...                     ",
"                            ...oooOOO+++...                     ",
"                         ...XXX...ooo+++...                     ",
"                         ...XXX...ooo+++...                     ",
"                         ...XXX...ooo+++...                     ",
"                      ...XXX...   ...OOO...                     ",
"                      ...XXX...   ...OOO...                     ",
"                      ...XXX...   ...OOO...                     ",
"                   ...XXX...      ...ooo...                     ",
"                   ...XXX...      ...ooo...                     ",
"                   ...XXX...      ...ooo...                     ",
"                   ......            ...                        ",
"                   ......            ...                        ",
"                   ......            ...                        "
};
