/* XPM */
static char *_575456289957[] = {
/* columns rows colors chars-per-pixel */
"64 64 7 1 ",
"  c black",
". c #080000",
"X c gray74",
"o c #87A5C9",
"O c #CCC9D2",
"+ c gray86",
"@ c white",
/* pixels */
"                                                                ",
"                                                                ",
"                                                                ",
"                                                                ",
"                                                                ",
"                                                                ",
"                                                                ",
"                                                                ",
"                                                                ",
"                                                                ",
"                                                                ",
"                                                                ",
"                                                                ",
"                                                                ",
"                                                                ",
"                                                                ",
"                                                                ",
"                                                                ",
"                                                                ",
"                                                                ",
"                                                                ",
"                                                                ",
"                                                                ",
"                                                                ",
"                                                                ",
"                                                                ",
"                                                                ",
"                                                                ",
"                                                                ",
"                                                                ",
"                       OO    OOOOOO      O                      ",
"                      OOO   OOOOOO      OO                      ",
"                     OOOO   OO          OO                      ",
"                     OOOO   OOOOOOO    OOOO                     ",
"                       OO    OOOOOOO  OO OOO                    ",
"                       OO    OOOOOOOO O   OO                    ",
"                       OO    O     OO O                         ",
"                       OO          OO OO                        ",
"                       OO          OO  OOOO                     ",
"                       OO    OO   OOO   OO                      ",
"                     OOOOO   OOOOOOO    O                       ",
"                     OOOOO     OOOO                             ",
"                                                                ",
"                         ..........                             ",
"                       .............                            ",
"                      ....X++++++X...                           ",
"                     ...X.........XX..                          ",
"                    ...X.o@@@ooooo.XX.@.                        ",
"                    ..X.o@@@@@...oo.X@...                       ",
"                   ....o@@@@@@....oo@+X...                      ",
"                   ..X.o@@@@@......o.++X..                      ",
"                   ..+.o.@@@.......o.+++...                     ",
"                   ..+.o...........o.+++X..                     ",
"                   ..+.o...........o.+++X..                     ",
"                   ..+.oo........@@o.+++X..                     ",
"                   ..+X.o.......@@@o.+++X..                     ",
"                   ..X+.ooo.....@@o.X+++X..                     ",
"                   ...+X..oooooooo.X+++XX..                     ",
"                    ..X+@X........X++++X...                     ",
"                     ..@@+++++++++++++XX..                      ",
"                      @@X++++++++++XXXX...                      ",
"                       ...XXXXXXXXXXX....                       ",
"                        ................                        ",
"                         .............                          "
};
