/* XPM */
static char *_574960886972[] = {
/* columns rows colors chars-per-pixel */
"64 64 22 1 ",
"  c black",
". c #003915",
"X c #222222",
"o c #203930",
"O c #412921",
"+ c #55362B",
"@ c #00491D",
"# c #554039",
"$ c #684236",
"% c #784C3E",
"& c #674B41",
"* c #78564B",
"= c #796158",
"- c #905E4E",
"; c #865F52",
": c #A66B59",
"> c #886A61",
", c #9C6F61",
"< c #957267",
"1 c #AF7B6B",
"2 c #A88073",
"3 c #B98A7C",
/* pixels */
"                                                                ",
"                                                                ",
"                                                                ",
"                                                                ",
"                                                                ",
"                                                                ",
"                                                                ",
"                                                                ",
"                                                                ",
"                                                                ",
"                                                                ",
"                                                                ",
"                                                                ",
"                                                                ",
"                                                                ",
"                                                                ",
"                                                                ",
"                                                                ",
"                                                                ",
"                                                                ",
"                                                                ",
"                                                                ",
"                                                                ",
"                                                                ",
"                                                                ",
"                                                                ",
"                                                                ",
"                                                                ",
"                                                                ",
"                                                                ",
"                                                                ",
"                                                                ",
"                                                                ",
"                                                                ",
"                                                                ",
"                                                                ",
"                                                                ",
"                             XXXXXX                             ",
"                          XXX%-,22<XXX                          ",
"                        XX%-:::133332<XX                        ",
"                       X%-::::::1333332<X                       ",
"                      X%-::::::::113333,%X                      ",
"                     X%-111::::::::1111:-%X                     ",
"                    X%-13331:::::::::::::-%X                    ",
"                    X-1333331::::::::111::-X                    ",
"                   X-13333331::::::113331::-X                   ",
"                   X,23333331:::::13333331--X                   ",
"                  X%,22333331::::133333332,-%X                  ",
"                  X%;2222331:::::133333222,%%X                  ",
"                  X$%;<222,-:::::13322222<;%$X                  ",
"                  X+$%;;;,--------,2222<<<;$+X                  ",
"                  XO+$%%%%%%------,2<<<<<<*+OX                  ",
"                   XO+$$$%%%%%%%%%%;<<<>>*+OX                   ",
"                   XOO+++$$$$$$$$$$$*>>=&+OOX                   ",
"                    XXOOO++++++++++++&&#OOXX                    ",
"                      XXXXXOOOOOOOOOOXXXXX                      ",
"                           XXXXXXXXXXX                          ",
"                           X#########Xo                         ",
"                           X*#######**X  @                      ",
"                     o  . X<333333333<X @                       ",
"                        ooX<<33333<<<*X..                       ",
"                         oX*<<<<<<<<*X                          ",
"                           XX*<<<*XXX                           ",
"                             XXXXX                              "
};
