/* XPM */
static char *_574960897328[] = {
/* columns rows colors chars-per-pixel */
"64 64 19 1 ",
"  c black",
". c #1E1A19",
"X c #222222",
"o c #272221",
"O c #2C2B36",
"+ c #3A3947",
"@ c #43424B",
"# c #474657",
"$ c #4D4B58",
"% c #525164",
"& c #575564",
"* c #5B5A69",
"= c #5F5D6E",
"- c #66647A",
"; c #6D6B7E",
": c #777685",
"> c #74728C",
", c #838198",
"< c #9190A4",
/* pixels */
"                                                                ",
"                                                                ",
"                                                                ",
"                                                                ",
"                                                                ",
"                                                                ",
"                                                                ",
"                                                                ",
"                                                                ",
"                                                                ",
"                                                                ",
"                                                                ",
"                                                                ",
"                                                                ",
"                                                                ",
"                                                                ",
"                                                                ",
"                                                                ",
"                                                                ",
"                                                                ",
"                                                                ",
"                                                                ",
"                                                                ",
"                                                                ",
"                                                                ",
"                                                                ",
"                                                                ",
"                                                                ",
"                                                                ",
"                                                                ",
"                                                                ",
"                                                                ",
"                                                                ",
"                                                                ",
"                                                                ",
"                                                                ",
"                             XXXXXX                             ",
"                           XX%->>-%XXX                          ",
"                         XX%>>>>>>>>-%X                         ",
"                        X%->>>>>>,,,>-%X                        ",
"                       X%->>>>>>,<<<,>-%X                       ",
"                       X->>>>>>,<<<<<,>-X                       ",
"                      X%>>,,>>>,<<<<<<,>%X                      ",
"                      X->,<<,>>,<<<<<<,>-X                      ",
"                     X%-,<<<,>>>,<<<<<,>>X                      ",
"                     X%-,<<,>>>>>,,<<,>>>%X                     ",
"                     X#--,,>>>>>>>>,,>>>-%X                     ",
"                     X#%->>>>>>>>>>>>>>>-#X                     ",
"                     X+%-->>>>>>>>>>>>>-%#X                     ",
"                     XO#%--->>>>>>>>>---%+X                     ",
"                      X+#%-------;;;---%#OX                     ",
"                      XO+#%%----;;;;-%%#+X                      ",
"                       XO+##%%%=====%##+OX                      ",
"                        XO++###&&&&#+++OX                       ",
"                        XXXOO++$$$++OOXX                        ",
"                        X@@XXXOOOOOXXX                          ",
"                       X*@@@@@XXXXX@@X                          ",
"                       X:<*@@@@@@@@@@*X o                       ",
"                       X:<<<<*@@@@@*<<Xo                        ",
"                       X*:<<<<<<<<<<:*X.                        ",
"                        X:::<<<<<<<::X.                         ",
"                        X*::::::::::*X.                         ",
"                         XX*:::::::*X                           ",
"                           XXXXXXXXX                            "
};
