/* XPM */
static char *_575290289130[] = {
/* columns rows colors chars-per-pixel */
"64 64 10 1 ",
"  c black",
". c #080000",
"X c #2A2A2A",
"o c #393939",
"O c #4B4B4B",
"+ c #959595",
"@ c #BF8B88",
"# c gray76",
"$ c gray92",
"% c white",
/* pixels */
"                                                                ",
"                                                                ",
"                                                                ",
"                                                                ",
"                                                                ",
"                                                                ",
"                                                                ",
"                                                                ",
"                                                                ",
"                                                                ",
"                                                                ",
"                                                                ",
"                                                                ",
"                                                                ",
"                                                                ",
"                                                                ",
"                                                                ",
"                                                                ",
"                                                                ",
"                                                                ",
"                                                                ",
"                                                                ",
"                                                                ",
"                                                                ",
"                                                                ",
"                                                                ",
"                                                                ",
"                  ...                      ...                  ",
"                  ....                    ....                  ",
"                 ......                  ......                 ",
"                 ..o....                ....o..                 ",
"                 ..o.o...   ........   ...o.o..                 ",
"                ..oOo.o..................o.oOo..                ",
"                ..OOo.Ooo...oooooooo...ooO.oOO..                ",
"                ..OOOo.OOoooOOOOOOOOoooOO.oOOO..                ",
"                ..OOOo.OOOOOOOOOOOOOOOOOO.oOOO..                ",
"                ..oOoo.OOOOOOOOOOOOOOOOOO.ooOo..                ",
"                 ..oo.oOOOOOOOOOOOOOOOOOOo.oo..                 ",
"                 ....oOOOOOOOOO##OOOOOOOOOo....                 ",
"                  ..oOOOOOOOOOO$$OOOOOOOOOOo..                  ",
"                  ..oOOOOOOOOOO$$OOOOOOOOOOo..                  ",
"                  ..oOOOOOOOOOO$$OOOOOOOOOOo..                  ",
"                  ..oOO....OOOO$$OOOO....OOo..                  ",
"                  ..oO.%%...OO#$$#OO.%%...Oo..                  ",
"                  ..oO.%%...OO$$$$OO.%%...Oo..                  ",
"                  ..Xo......O#@@@@#O......oX..                  ",
"                   ..o......#$@@@@$#......o..                   ",
"                   ..Xo....#$$$@@$$$#....oX..                   ",
"                    ..oOOO#$$$$$$$$$$#OOOo..                    ",
"                    ..XoOO#.$$$..$$$.#OOoX..                    ",
"                     ..Xo#$$...XX...$$#oX..                     ",
"                      ..+#$$$$OOOO$$$$#+..                      ",
"                       ...+#$$$$$$$$#+...                       ",
"                        ....+######+....                        ",
"                         ..............                         ",
"                        ..oO........Oo..                        ",
"                       ..oOOooo$$oooOOo..                       ",
"                       ..oO.oOO$$OOo.Oo..                       ",
"                       ..oO.OOOOOOOO.Oo..                       ",
"                        ....OOo..oOO....                        ",
"                         ...OOO..oOO...                         ",
"                          ...OO..oO...                          ",
"                           ..........$                          ",
"                            ...  ...                            "
};
