/* XPM */
static char *_575043568045[] = {
/* columns rows colors chars-per-pixel */
"64 64 8 1 ",
"  c black",
". c gray1",
"X c #535353",
"o c gray33",
"O c #767676",
"+ c gray47",
"@ c #A7A7A7",
"# c gray66",
/* pixels */
"                                                                ",
"                                                                ",
"                                                                ",
"                                                                ",
"                                                                ",
"                                                                ",
"                                                                ",
"                                                                ",
"                                                                ",
"                                                                ",
"                                                                ",
"                                                                ",
"                                                                ",
"                                                                ",
"                                                                ",
"                                                                ",
"                                                                ",
"                                                                ",
"                                                                ",
"                                                                ",
"                                                                ",
"                                                                ",
"                                                                ",
"                                                                ",
"                                                                ",
"                                                                ",
"                                                                ",
"                                                                ",
"                                                                ",
"                                                                ",
"                             ..  ...                            ",
"                             . ... ..                           ",
"                        .   +O+O++OO   .                        ",
"                       .. O@@#@###@@#+. .                       ",
"                       .+#@@#@@##@@@###+ .                      ",
"                       O##@@@@@@#@@@####+.                      ",
"                      +##@##@@@@##o+O@@@@O                      ",
"                    . ####@@@@@@###o +O#@@                      ",
"                   . +##O+@@@@#@@@#    oO@+.                    ",
"                   . ##+  O#@@@@@@#..  O###..                   ",
"                  . +#O ...+##@@#@@O  +@@@@O..                  ",
"                   .O#+    +#O@#O#@#@@oXO@@+ .                  ",
"                   .O##o  o##@X#X@@@@@@@@@@O .                  ",
"                  . O#oO+O@#O+   + O@#O@@@#O..                  ",
"                   .X++#@@@+. .    .+#+#@@+o .                  ",
"                     +@@@#O  ..  . . +#+@@+                     ",
"                     oO###+  .....   +#+@OX                     ",
"                      +@##+. . .  .. +#o@O                      ",
"                    . o+##o    . .  o##o+o..                    ",
"                      .oO#@+o .   o+@##oo                       ",
"                      ..XOO@@OO++#@@@O+o..                      ",
"                       .  XO@####++OoX.                         ",
"                        o   o+++O++o. .+..                      ",
"                     . ++o       .    o++                       ",
"                     .  o+ X.  .  ..o +o. .                     ",
"                    . +O o +oooooooo+ o ++ .                    ",
"                   ..+@#+ XOOoooooo++o O#@O                     ",
"                   . +#@+ XXO+++OO++oo +##+ .                   ",
"                     +###+oXoO+++OO  X+##Oo .                   ",
"                    .o+##Oooo   . .ooXO@#+o.                    ",
"                    . o+@+X   .. ... o+#+o..                    ",
"                       oOo  .      .  o+o                       ",
"                      . ..              ..                      ",
"                       .              ..                        "
};
