/* XPM */
static char *_575553069996[] = {
/* columns rows colors chars-per-pixel */
"64 64 8 1 ",
"  c black",
". c #080000",
"X c gray32",
"o c gray33",
"O c #777777",
"+ c gray47",
"@ c gray65",
"# c gray66",
/* pixels */
"                                                                ",
"                                                                ",
"                                                                ",
"                                                                ",
"                                                                ",
"                                                                ",
"                                                                ",
"                                                                ",
"                                                                ",
"                                                                ",
"                                                                ",
"                                                                ",
"                                                                ",
"                                                                ",
"                                                                ",
"                                                                ",
"                                                                ",
"                                                                ",
"                                                                ",
"                                                                ",
"                                                                ",
"                                                                ",
"                                                                ",
"                                                                ",
"                                                                ",
"                                                                ",
"                                                                ",
"                                                                ",
"                                                                ",
"                                                                ",
"                            ........                            ",
"                          ............                          ",
"                        ....O+++O+O+....                        ",
"                       ...O#@#@##@###O...                       ",
"                      ..O@@###@#@@#@@#@+..                      ",
"                     ..O##@@#@#@@@@#@#@#+..                     ",
"                    ..O@@@##@#####X++@@@@O..                    ",
"                    ..@@@#@##@@#@@@o.O+##@..                    ",
"                   ..O##OO#@@@#@@##....XO@O..                   ",
"                   ..#@+..+##@##@##....O@@@..                   ",
"                  ..O@O....O@@@@##@+..O@@#@+..                  ",
"                  ..O@O....O@+@#+@#@#@Xo+@@O..                  ",
"                  ..O#@X..o#@@o@X@@#@###@#@+..                  ",
"                  ..O#X+++@@+O...O.O@#O@#@@O..                  ",
"                  ..XO+##@#O........O@O@#@+X..                  ",
"                   ..O@@@@O..........+#O@@+..                   ",
"                   ..oO#@#+..........+@+@OX..                   ",
"                    ..+@#@O..........+#X#+..                    ",
"                    ..oO##X.........X#@oOo..                    ",
"                     ..XO@@Oo.....X+@##oo..                     ",
"                      ..XOO@#OOOO@@##O+X..                      ",
"                       ...XO@@@@@OO+oX...                       ",
"                      ..o...XOOOO+Oo...+..                      ",
"                     ..++X............X+O..                     ",
"                     ...X+.X........X.Oo...                     ",
"                    ..+O.X.OoXoXXooXO.X.OO..                    ",
"                   ..O##+.X+OXXoXooOOX.O#@+..                   ",
"                   ..O#@+.XXOO+OOOOOXo.O@#O..                   ",
"                   ..O@@@+XoX+O++OO..XO@@+X..                   ",
"                   ..oO@@OooX......ooXO#@+o..                   ",
"                    ..XO#OX..........XO@Oo..                    ",
"                     ..XOo...      ...o+o..                     ",
"                      .....          .....                      ",
"                       ...            ...                       "
};
