/* XPM */
static char *_575290293339[] = {
/* columns rows colors chars-per-pixel */
"64 64 10 1 ",
"  c black",
". c #080000",
"X c #673707",
"o c #535353",
"O c #777777",
"+ c #875307",
"@ c #979797",
"# c #A7A7A7",
"$ c #BBBBBB",
"% c None",
/* pixels */
"                               .X.                              ",
"                               .+.                              ",
"                               .X.                              ",
"                               .+.                              ",
"                               .X.                              ",
"                               .+.                              ",
"                               .X.                              ",
"                               .+.                              ",
"                               .X.                              ",
"                               .+.                              ",
"                               .X.                              ",
"                               .+.                              ",
"                               .X.                              ",
"                               .+.                              ",
"                               .X.                              ",
"                               .+.                              ",
"                               .X.                              ",
"                               .+.                              ",
"                               .X.                              ",
"                               .+.                              ",
"                               .X.                              ",
"                               .+.                              ",
"                               .X.                              ",
"                               .+.                              ",
"                               .X.                              ",
"                               .+.                              ",
"                               .X.                              ",
"                               .+.                              ",
"                               .X.                              ",
"                               .+.                              ",
"                               .X.                              ",
"                            ........                            ",
"                          ............                          ",
"                        ....OOOOOOOO....                        ",
"                       ...O##########O...                       ",
"                      ..O##############O..                      ",
"                     ..O################O..                     ",
"                    ..O##################O..                    ",
"                    ..#############O######..                    ",
"                   ..O#OO###########.oO###O..                   ",
"                   ..#O...O#########O..oO##..                   ",
"                  ..O#.....####O####.....oOO..                  ",
"                  ..O#.....####o##o#....O##O..                  ",
"                  ..O#O...O####.O.##O..O###O..                  ",
"                  ..Oo..O#####O..O#########O..                  ",
"                  ..oO###o###O.....O######Oo..                  ",
"                   ..O####oOO.......######O..                   ",
"                   ..oO###O.........#####Oo..                   ",
"                    ..O#O...........##O##O..                    ",
"                    ..oO##O.........O#O#Oo..                    ",
"                     ..oO##O...O..OO.#oOo..                     ",
"                      ..O####O##O.###Ooo..                      ",
"                       ...oO#####o##Oo...                       ",
"                        ....oOOOOOOo....                        ",
"                        ................                        ",
"                       ..O.+........X.O..                       ",
"                       ..@O.+X+X+X+X.O@..                       ",
"                       ..@$..........$@..                       ",
"                       ..@$.@OOOOOO@.$@..                       ",
"                        ....$$@..@@$....                        ",
"                         ...$$$..@$$...                         ",
"                          ...$$..@$...                          ",
"                           ..........                           ",
"                            ...%%...                            "
};
