/* XPM */
static char *_575047500668[] = {
/* columns rows colors chars-per-pixel */
"64 64 19 1 ",
"  c black",
". c gray1",
"X c #080000",
"o c #26264B",
"O c #26264C",
"+ c #333366",
"@ c #4E4E4E",
"# c #535353",
"$ c gray33",
"% c #727272",
"& c #747474",
"* c #777777",
"= c gray47",
"- c #9F9F9F",
"; c #A0A0A0",
": c gray63",
"> c #A7A7A7",
", c gray66",
"< c white",
/* pixels */
"                                                                ",
"                                                                ",
"                                                                ",
"                                                                ",
"                                                                ",
"                                                                ",
"                . .                                             ",
"           .. . . ... .                                         ",
"              :<<<<-                                            ",
"        .. :<<<<<<<<<<: ..                                      ",
"         :<<<<<<<<<<<<<<: .                                     ",
"        :<   <<- -<  :  <: .                                    ",
"     ..:<<<.<<< < < : : <<- .                                   ",
"     .:<<<< <<<   < <<< <<<: .                                  ",
"      <<<<   << < < <<< <<<< .                                  ",
"   . -<<<<<<<<<<<<<<<<<<<<<<: .                                 ",
"    .<<<<<<<<<<<<<<<<<<<<<<<< .                                 ",
"   ..<<   <  -<  -<   <  :<<<                                   ",
"   . << <<<.< < < < < < < <<<                                   ",
"     <<  <<  <<  << < <  <<<< .                                 ",
"   . :< <<< < < < < < < < <<: .                                 ",
"    . <.  < < < < <   <.< << .                                  ",
"    . :<<<<<<<<<<<<<<<<<<<<:..                                  ",
"        -<<<<<<<<<<<<<<<<: .                                    ",
"       ...:<<<<<<<<<<<<<- .                                     ",
"         .   :-<<<<<<<<<                                        ",
"          ... ....  ..:< .    XXXXXX                            ",
"             .    .    :.. XXX       XX                         ",
"                      . . XX          XX                        ",
"                       . XX            XX                       ",
"                        XX               X                      ",
"                                ..                              ",
"                         .                                      ",
"                         .          =>=                         ",
"                                   =>>,,=                       ",
"                                  =,>,,,,=   . .                ",
"                       =$       *>,$*=,,>>*   =                 ",
"                 .    .,,,,>>>>>>,,,# **>>> .=, .               ",
"                 .=. .*,,=*>>>>>>>,,..  #*,=. ,                 ",
"                  ,=  >>=  *>>>>>>,,    *>,,...                 ",
"                ..,. =,= ...=,>>>,>>*  *>>>>= .                 ",
"                   ..=>*   .==       *,##*>>= .                 ",
"                  .  *>>#  $   *##**   =>>>> .                  ",
"                     *>#*==  =##   #*=  >>>  .                  ",
"                   .  ==,,  =$ .    $== >>    .                 ",
"                        ,, =$ ..  .  $= *   .                   ",
"                    .      =  . ..   .= #                       ",
"                           =  .   ... =     .                   ",
"                     ..    $ . ...   $,    ..                   ",
"                       .    =$ .  .$=,                          ",
"                       .     =====,,,    .                      ",
"                        .              . .                      ",
"                        .$ .         .  = .                     ",
"                        *=$ . .   ..  .$==.                     ",
"                         #* O    . . O =$  .                    ",
"                     . ** @ +OO   OOO+ $.==..                   ",
"                    . &:-* o++OOOOOO++O *>>*                    ",
"                    . %::* oO++++++++OO.*>>*                    ",
"                    ..%:::%$Oo++++++  $=>>=$ .                  ",
"                     .$%-:%$oo  .. .OO$=,,=$..                  ",
"                     . $%-%# . .. ....$=,=$ .                   ",
"                        @%#  .      .  $=$ .                    ",
"                       . .              ...                     ",
"                        .              ..                       "
};
