/* XPM */
static char *_575553076424[] = {
/* columns rows colors chars-per-pixel */
"64 64 22 1 ",
"  c black",
". c #080000",
"X c #25254B",
"o c #26264B",
"O c #26264C",
"+ c #323265",
"@ c #333366",
"# c #4E4E4E",
"$ c #505050",
"% c gray32",
"& c gray33",
"* c #717171",
"= c gray45",
"- c #767676",
"; c gray47",
": c #9F9F9F",
"> c #A0A0A0",
", c #A2A2A2",
"< c gray65",
"1 c #A7A7A7",
"2 c gray66",
"3 c white",
/* pixels */
"                                                                ",
"                                                                ",
"                                                                ",
"                                                                ",
"                                                                ",
"                                                                ",
"              ......                                            ",
"           ............                                         ",
"         .....:3333:.....                                       ",
"        ...:3333333333:...                                      ",
"       ..:33333333333333:..                                     ",
"      ..:3...33:.:3..:..3:..                                    ",
"     ..:333.333.3.3.:.:.33:..                                   ",
"    ..:3333.333...3.333.333:..                                  ",
"    ..3333...33.3.3.333.3333..                                  ",
"   ..:3333333333333333333333:..                                 ",
"   ..333333333333333333333333..                                 ",
"   ..33...3..:3..:3...3..:333..                                 ",
"   ..33.333.3.3.3.3.3.3.3.333..                                 ",
"   ..33..33..33..33.3.3..3333..                                 ",
"   ..:3.333.3.3.3.3.3.3.3.33:..                                 ",
"    ..3...3.3.3.3.3...3.3.33..                                  ",
"    ..:33333333333333333333:..                                  ",
"     ...:3333333333333333:...                                   ",
"      ....:3333333333333:...                                    ",
"        .....::333333333..                                      ",
"          ............:3..    ......                            ",
"             ..........:.. ............                         ",
"                      ... ..............                        ",
"                       . ................                       ",
"                        ..................                      ",
"                        ...................                     ",
"                      .....................                     ",
"                     ...............-2-.....                    ",
"                    ...............-1122;...  .                 ",
"                    ..............-111111;......                ",
"                  . ...-%.......-12%-;1111-...-..               ",
"                 ......1111111111111&.--111..-1..               ",
"                ..;...;11--111111112....%-1-..1..               ",
"                ..2-..11;..;11111122....-111....                ",
"                ..2..;1-....;1111111;..;1111;..                 ",
"                 ....-1-....--.......-1%%;11-..                 ",
"                  ...-11%..&...-%&--...-1111...                 ",
"                   ..;2%;;-..;%&...%--..111....                 ",
"                   ...-;11..-&......&--.11.....                 ",
"                    ....11.;&........%;.-.....                  ",
"                    .......;..........;.%.....                  ",
"                     ......-..........;......                   ",
"                     ......%.........%2......                   ",
"                      ......-&.....%;2......                    ",
"                        .....;--;-111......                     ",
"                        ..................                      ",
"                       ..&..............;..                     ",
"                      ..;-%............%--..                    ",
"                      ...%-.o........O.-&...                    ",
"                     ..--.#.@oO...OOO@.&.-;..                   ",
"                    ..=,,-.X@@ooOOOO@@O.-11;..                  ",
"                    ..=,,=.oo@@@@@@@@OO.-11-..                  ",
"                    ..=:::-%oo@@@@@@..%;11;&..                  ",
"                    ..%=:,=#oo......OO%-11;%..                  ",
"                     ..#=:=$..........%;1-&..                   ",
"                      ..#=$...      ...&;&..                    ",
"                       .....          .....                     ",
"                        ...            ...                      "
};
