/* XPM */
static char *_575047497012[] = {
/* columns rows colors chars-per-pixel */
"64 64 7 1 ",
"  c black",
". c #272727",
"X c #7E5516",
"o c #A97601",
"O c #CD9002",
"+ c #F4AB02",
"@ c #F8CA60",
/* pixels */
"                                                                ",
"                                                                ",
"                                                                ",
"                                                                ",
"                                                                ",
"                                                                ",
"                                                                ",
"                                                                ",
"                                                                ",
"                                                                ",
"                                                                ",
"                                                                ",
"                                                                ",
"                                                                ",
"                                                                ",
"                                                                ",
"                                                                ",
"                                                                ",
"                                                                ",
"                                                                ",
"                                                                ",
"                                                                ",
"                                                                ",
"                                                                ",
"                                                                ",
"                                                                ",
"                                                                ",
"                                                                ",
"                                                                ",
"                                                                ",
"                                                                ",
"                                                                ",
"                                                                ",
"                                                                ",
"                                                                ",
"                                                                ",
"                                                                ",
"                                                                ",
"                                                                ",
"                                                                ",
"                                                                ",
"                                                                ",
"                                                                ",
"                                                                ",
"                                                                ",
"                                                                ",
"                                                                ",
"                                                                ",
"                                                                ",
"                                                                ",
"                                                                ",
"                                                                ",
"                              .....                             ",
"                            ..XO++o..                           ",
"                           .XOOo.O+@X.                          ",
"                           .oOo...O+@.                          ",
"                          .XOO.OOOOO+X.                         ",
"                          .oOO.OOOOOOo.                         ",
"                          .oOOo...OOOo.                         ",
"                          .XOOOo.OOOOX.                         ",
"                           .oOOOOOOO@.                          ",
"                           .XoOOOO++X.                          ",
"                            ..XoOOX..                           ",
"                              .....                             "
};
