/* XPM */
static char *_575290560538[] = {
/* columns rows colors chars-per-pixel */
"64 64 7 1 ",
"  c black",
". c #080000",
"X c #7E5516",
"o c #A97601",
"O c #CD9002",
"+ c #F4AB02",
"@ c #F8CA60",
/* pixels */
"                                                                ",
"                                                                ",
"                                                                ",
"                                                                ",
"                                                                ",
"                                                                ",
"                                                                ",
"                                                                ",
"                                                                ",
"                                                                ",
"                                                                ",
"                                                                ",
"                                                                ",
"                                                                ",
"                                                                ",
"                                                                ",
"                                                                ",
"                                                                ",
"                                                                ",
"                                                                ",
"                                                                ",
"                                                                ",
"                                                                ",
"                                                                ",
"                                                                ",
"                                                                ",
"                                                                ",
"                                                                ",
"                                                                ",
"                                                                ",
"                                                                ",
"                                                                ",
"                                                                ",
"                                                                ",
"                                                                ",
"                                                                ",
"                                                                ",
"                                                                ",
"                                                                ",
"                                                                ",
"                                                                ",
"                                                                ",
"                                                                ",
"                                                                ",
"                              ......                            ",
"                             ........                           ",
"                            ..X@@OoX..                          ",
"                           ..o@OOOOOo..                         ",
"                          ..X@X....XOX..                        ",
"                          ..oO......+o..                        ",
"                          ..oO......@o..                        ",
"                          ..XOX....X@X..                        ",
"                           ..oOOO+@@o..                         ",
"                            ..XoO@OX..                          ",
"                             ...O@O..                           ",
"                             ...O@O..                           ",
"                            ....O@O..                           ",
"                           ..X@@+@O..                           ",
"                           ..oOOO@O..                           ",
"                           ....XO@O..                           ",
"                          ..XO@@+@o..                           ",
"                          ..oOOOOoX..                           ",
"                           .........                            ",
"                            .......                             "
};
