/* XPM */
static char *_575306987375[] = {
/* columns rows colors chars-per-pixel */
"64 64 7 1 ",
"  c black",
". c #080000",
"X c #6B0000",
"o c #601A24",
"O c #912837",
"+ c #C03549",
"@ c #E7CCDE",
/* pixels */
"                                                                ",
"                                                                ",
"                                                                ",
"                                                                ",
"                                                                ",
"                                                                ",
"                                                                ",
"                                                                ",
"                                                                ",
"                                                                ",
"                                                                ",
"                                                                ",
"                                                                ",
"                                                                ",
"                                                                ",
"                                                                ",
"                                                                ",
"                                                                ",
"                                                                ",
"                                                                ",
"                                                                ",
"                                                                ",
"                                                                ",
"                                                                ",
"                                                                ",
"                                                                ",
"                                                                ",
"                                                                ",
"                                                                ",
"                                                                ",
"                                                                ",
"                                                                ",
"                                                                ",
"                                                                ",
"                                                                ",
"                                                                ",
"                                                                ",
"                                                                ",
"                                                                ",
"                                                                ",
"                                                                ",
"                                                                ",
"                                                                ",
"                                                                ",
"                                                                ",
"                                                                ",
"                                                                ",
"                                                                ",
"                                                                ",
"                                                                ",
"                                                                ",
"                              ....                              ",
"                            ..........                          ",
"                           ...OOX......                         ",
"                          ..O++O.OO++O..                        ",
"                         ..O++OoO+@@++O..                       ",
"                         ..O++OO+@++++O..                       ",
"                         ..OO+O++++++OO..                       ",
"                         ..oOOOO++++OOo..                       ",
"                          ..OOOOOOOOoo..                        ",
"                          ..oOOOOOoo...                         ",
"                           ..oOoo.....                          ",
"                            ........                            ",
"                             ....                               "
};
