/* XPM */
static char *_575557454073[] = {
/* columns rows colors chars-per-pixel */
"64 64 8 1 ",
"  c black",
". c #080000",
"X c gray39",
"o c #6A6A6A",
"O c gray58",
"+ c #C6C6C6",
"@ c #CCC9D2",
"# c gray89",
/* pixels */
"                                                                ",
"                                                                ",
"                                                                ",
"                                                                ",
"                                                                ",
"                                                                ",
"                                                                ",
"                                                                ",
"                                                                ",
"                                                                ",
"                                                                ",
"                                                                ",
"                                                                ",
"                                                                ",
"                                                                ",
"                                                                ",
"                                                                ",
"                                                                ",
"                                                                ",
"                                                                ",
"                                                                ",
"                                                                ",
"                                                                ",
"                                                                ",
"                                                                ",
"                                                                ",
"                                                                ",
"                                                                ",
"                          @@@@@@      @                         ",
"                         @@@@@@      @@                         ",
"                         @@          @@                         ",
"                         @@@@@@@    @@@@                        ",
"                          @@@@@@@  @@ @@@                       ",
"                          @@@@@@@@ @   @@                       ",
"                          @     @@ @                            ",
"                                @@ @@                           ",
"                                @@  @@@@                        ",
"                          @@   @@@   @@                         ",
"                          @@@@@@@    @                          ",
"                            @@@@                                ",
"                                                                ",
"                                                                ",
"                                                                ",
"                                                                ",
"                              ......                            ",
"                             ........                           ",
"                            ..X##+oX..                          ",
"                           ..o#OOOOOo..                         ",
"                          ..X#X....XOX..                        ",
"                          ..oO......+o..                        ",
"                          ..oO......#o..                        ",
"                          ..XOX....X#X..                        ",
"                           ..oOOO+##o..                         ",
"                            ..XoO#OX..                          ",
"                             ...O#O..                           ",
"                             ...O#O..                           ",
"                            ....O#O..                           ",
"                           ..X##+#O..                           ",
"                           ..oOOO#O..                           ",
"                           ....XO#O..                           ",
"                          ..XO##+#o..                           ",
"                          ..oOOOOoX..                           ",
"                           .........                            ",
"                            .......                             "
};
