/* XPM */
static char *_575306980711[] = {
/* columns rows colors chars-per-pixel */
"64 64 7 1 ",
"  c black",
". c #080000",
"X c #6B0000",
"o c #601A24",
"O c #912837",
"+ c #C03549",
"@ c #E7CCDE",
/* pixels */
"                                                                ",
"                                                                ",
"                                                                ",
"                                                                ",
"                                                                ",
"                                                                ",
"                                                                ",
"                                                                ",
"                                                                ",
"                                                                ",
"                                                                ",
"                                                                ",
"                                                                ",
"                                                                ",
"                                                                ",
"                                                                ",
"                                                                ",
"                                                                ",
"                                                                ",
"                                                                ",
"                                                                ",
"                                                                ",
"                                                                ",
"                                                                ",
"                                                                ",
"                                                                ",
"                                                                ",
"                                                                ",
"                                                                ",
"                                                                ",
"                                                                ",
"                                                                ",
"                                                                ",
"                                                                ",
"                                                                ",
"                                                                ",
"                                                                ",
"                                                                ",
"                                                                ",
"                                                                ",
"                                                                ",
"                                                                ",
"                                                                ",
"                                                                ",
"                                                                ",
"                                                                ",
"                                                                ",
"                                                                ",
"                                                                ",
"                                                                ",
"                                    ....                        ",
"                          ....  ..........                      ",
"                        .............OOO...                     ",
"                       ...OOX......oo.O++O..                    ",
"                      ..O++O.OO++O..oOoO++O..                   ",
"                     ..O++OoO+@@++O..OOOO+O..                   ",
"                     ..O++OO+@++++O..oOOOOo..                   ",
"                     ..OO+O++++++OO..oooOOo..                   ",
"                     ..oOOOO++++OOo..ooooo..                    ",
"                      ..OOOOOOOOoo.....ooo..                    ",
"                      ..oOOOOOoo...........                     ",
"                       ..oOoo.....    ....                      ",
"                        ........                                ",
"                         ....                                   "
};
