/* XPM */
static char *_575291433630[] = {
/* columns rows colors chars-per-pixel */
"64 64 15 1 ",
"  c black",
". c #070101",
"X c #080000",
"o c #090100",
"O c #0A0001",
"+ c #090003",
"@ c gray12",
"# c #790000",
"$ c #E40000",
"% c #E60100",
"& c #E60003",
"* c #E90101",
"= c #E80002",
"- c #F69679",
"; c white",
/* pixels */
"                                                                ",
"                                                                ",
"                                                                ",
"                                                                ",
"                                                                ",
"                                                                ",
"                                                                ",
"                                                                ",
"                                                                ",
"                                                                ",
"                                                                ",
"                                                                ",
"                                                                ",
"                                                                ",
"                                                                ",
"                                                                ",
"                                                                ",
"                                                                ",
"                                                                ",
"                                                                ",
"                                                                ",
"                                                                ",
"                                                                ",
"                                                                ",
"                                                                ",
"                                                                ",
"                                                                ",
"                                                                ",
"                                                                ",
"                                                                ",
"                                                                ",
"                                                                ",
"                                                                ",
"                                                                ",
"                                                                ",
"                                                                ",
"                                                                ",
"                                                                ",
"                                                                ",
"                                                                ",
"                         XXXX      XXXX                         ",
"                         XXXX      XXXX                         ",
"                       XX@@@@XX  ..@@@@XX                       ",
"                       XX@@@@XX  ..@@@@XX                       ",
"                     XX@@====@@XX@@====@@XO                     ",
"                     XX@@====@@XX@@====@@OO                     ",
"                   X+@@==;;--==@@==--&&==@@XX                   ",
"                   XX@@==;;--==@@==--&&&=@@XX                   ",
"                   XX@@==--*%&$&&&&======@@.X                   ",
"                   XX@@==--%%&$&&&&======@@oX                   ",
"                   XX@@##==**%%&&&&====##@@oX                   ",
"                   XX@@##==**%%&&&&====##@@oX                   ",
"                     XX@@##==&&==&&==##@@++                     ",
"                     XX@@##==&&==&&==##@@X+                     ",
"                       oo@@##==&&==##@@.X                       ",
"                       oo@@##==&&==##@@..                       ",
"                         XX@@##==##@@XX                         ",
"                         XX@@##==##@@XX                         ",
"                           XX@@##@@XX                           ",
"                           XX@@##@@XX                           ",
"                             Xo@@..                             ",
"                             X.@@..                             ",
"                               XX                               ",
"                               XX                               "
};
