/* XPM */
static char *_575557448016[] = {
/* columns rows colors chars-per-pixel */
"64 64 8 1 ",
"  c black",
". c #080000",
"X c #6B0000",
"o c #601A24",
"O c #912837",
"+ c #C03549",
"@ c #CCC9D2",
"# c #E7CCDE",
/* pixels */
"                                                                ",
"                                                                ",
"                                                                ",
"                                                                ",
"                                                                ",
"                                                                ",
"                                                                ",
"                                                                ",
"                                                                ",
"                                                                ",
"                                                                ",
"                                                                ",
"                                                                ",
"                                                                ",
"                                                                ",
"                                                                ",
"                                                                ",
"                                                                ",
"                                                                ",
"                                                                ",
"                                                                ",
"                                                                ",
"                                                                ",
"                                                                ",
"                                                                ",
"                                                                ",
"                                                                ",
"                                                                ",
"                                                                ",
"                                                                ",
"                                                                ",
"                                                                ",
"                                                                ",
"                                                                ",
"                                                                ",
"                          @@@@@@      @                         ",
"                         @@@@@@      @@                         ",
"                         @@          @@                         ",
"                         @@@@@@@    @@@@                        ",
"                          @@@@@@@  @@ @@@                       ",
"                          @@@@@@@@ @   @@                       ",
"                          @     @@ @                            ",
"                                @@ @@                           ",
"                                @@  @@@@                        ",
"                          @@   @@@   @@                         ",
"                          @@@@@@@    @                          ",
"                            @@@@                                ",
"                                                                ",
"                                                                ",
"                                                                ",
"                                                                ",
"                              ....                              ",
"                            ..........                          ",
"                           ...OOX......                         ",
"                          ..O++O.OO++O..                        ",
"                         ..O++OoO+##++O..                       ",
"                         ..O++OO+#++++O..                       ",
"                         ..OO+O++++++OO..                       ",
"                         ..oOOOO++++OOo..                       ",
"                          ..OOOOOOOOoo..                        ",
"                          ..oOOOOOoo...                         ",
"                           ..oOoo.....                          ",
"                            ........                            ",
"                             ....                               "
};
