/* XPM */
static char *_574960873070[] = {
/* columns rows colors chars-per-pixel */
"64 64 8 1 ",
"  c black",
". c #7C4600",
"X c #D88100",
"o c #D19106",
"O c #CFA316",
"+ c #E8BE40",
"@ c #F2D067",
"# c white",
/* pixels */
"                                                                ",
"                                                                ",
"                                                                ",
"                                                                ",
"                                                                ",
"                                                                ",
"                                                                ",
"                                                                ",
"                                                                ",
"                                                                ",
"                                                                ",
"                                                                ",
"                                                                ",
"                                                                ",
"                                                                ",
"                                                                ",
"                                                                ",
"                                                                ",
"                                                                ",
"                                                                ",
"                                                                ",
"                                                                ",
"                                                                ",
"                                                                ",
"                                                                ",
"                                                                ",
"                                                                ",
"                                                                ",
"                                                                ",
"                                                                ",
"                                                                ",
"                                                                ",
"                                                                ",
"                                                                ",
"                                                                ",
"                                                                ",
"                                                                ",
"                                                                ",
"                               .O                               ",
"                              .O.                               ",
"                             .O+O.                              ",
"                             .OOOo...                           ",
"                            .XoooXoOO..                         ",
"                           .OoXXXoO++OO.                        ",
"                          .O+@@+@##@+OO.                        ",
"                         .O+@##@@@@+OoXX.                       ",
"                         .O++@@++OOoXXoOO..                     ",
"                         .OOOOOOooXXoO+@@OO.                    ",
"                        .XXooooXXXoO@+@#@+O.                    ",
"                       .OOoXXXXoO++@@O#@@+OO.                   ",
"                      .OO+@#@@@@++##@OO++OOO.                   ",
"                      .O++@@###@@+@@+OoOOOOo.                   ",
"                      .O+o+@@@@@+o+++ooooooXX.                  ",
"                      .ooooXooooXXXooXXXXXXOo.                  ",
"                     .XXooXXXooXXXXXXoO++@+OO.                  ",
"                    .oOoXXXXXXXO+@@+##@@+++Ooo.                 ",
"                    .O+@#+@##@+@##@+@@@++oOOoo.                 ",
"                    .O++@+@@@@+@@@@O+++OooOooo.                 ",
"                    .XooooOOOoooOOOooooooXooXX.                 ",
"                     .XooXooooXoooooooXoXXoXX.                  ",
"                      .XXXXooXXXoooooXXXXXXX.                   ",
"                       ...XXXXXXXXXXXXXXXX..                    ",
"                         .....XXXXXXXX.....                     ",
"                             ..........                         "
};
