/* XPM */
static char *_574940368093[] = {
/* columns rows colors chars-per-pixel */
"64 64 15 1 ",
"  c black",
". c #240D0D",
"X c #331111",
"o c #51110F",
"O c #57110F",
"+ c #58100F",
"@ c #5E100E",
"# c #4A1210",
"$ c #650F0E",
"% c #7D1816",
"& c #921C1A",
"* c #A02220",
"= c #BB6766",
"- c #B46F6F",
"; c #DAB7B7",
/* pixels */
"                                                                ",
"                                                                ",
"                                                                ",
"                                                                ",
"                                                                ",
"                                                                ",
"                                                                ",
"                                                                ",
"                                                                ",
"                                                                ",
"                                                                ",
"                                                                ",
"                                                                ",
"                                                                ",
"                                                                ",
"                                                                ",
"                                                                ",
"                                                                ",
"                                                                ",
"                                                                ",
"                                                                ",
"                                                                ",
"                                                                ",
"                                                                ",
"                                                                ",
"                                                                ",
"                                                                ",
"                                                                ",
"                                                                ",
"                                                                ",
"                                                                ",
"                                                                ",
"                                                                ",
"                                                                ",
"                                                                ",
"                                                                ",
"                                                                ",
"                                                                ",
"                                 XXXXXXX                        ",
"                               XX%%%$$$$X                       ",
"                        XXX   X%%&&&%%$$$X                      ",
"                      XX%%$X X%%-;*&%%$$$X                      ",
"                     X%&&%$$X$%&;=&%%$$$$$X                     ",
"                    X%&;*&%$$#$%&&%%$$$$$$X                     ",
"                    X%%&&%%$$##$%%%$%%%$$$#X                    ",
"                   X$%%%%%$$###$$$$$%%$$$##X                    ",
"                   X$$%%$$$$##$$%%$$$$$$$##X                    ",
"                   X$$$$$$%%$$$%&&%$#$$$$###X                   ",
"                   X$$$$$%&&%$%&*&&%$#$$####X                   ",
"                   X$$$$%-;&&$%&&&&%$$######X                   ",
"                    .$$%&;=&&%%%%%%%$$$#XXXX                    ",
"                     X%&**&&%%%$%%%%$$$$#X                      ",
"                     X&&&&%%%%%%$%%$$$$$$#X                     ",
"                    X%%&&%%%%%%%$$$$o$$$$$$X                    ",
"                    X%%%%%%%%%%%$$$$$o$$$$$$X                   ",
"                   X$%%%%%%%%%%$$$$$$@#@O@$$X                   ",
"                   X$%%%%%%%%$$$$$$$@O#+$$$$X                   ",
"                   X$%%%$$$###$$$$$@O$@#$$$$X                   ",
"                   X$%%%%%%%$$$#$$@$$$$#o$$#X                   ",
"                   X$$%%%%%%$$$##$$$$$+##+##X                   ",
"                    X$$$%%%$$$$#####$+#####X                    ",
"                    X$$$$$$$$$############X                     ",
"                     XX######XXXXXXX####XX                      ",
"                       XXXXXX       XXXX                        "
};
