/* XPM */
static char *_574940360190[] = {
/* columns rows colors chars-per-pixel */
"64 64 8 1 ",
"  c black",
". c #161616",
"X c gray10",
"o c #1E1E1E",
"O c #222222",
"+ c gray15",
"@ c #2A2A2A",
"# c #343434",
/* pixels */
"                                                                ",
"                                                                ",
"                                                                ",
"                                                                ",
"                                                                ",
"                                                                ",
"                                                                ",
"                                                                ",
"                                                                ",
"                                                                ",
"                                                                ",
"                                                                ",
"                                                                ",
"                                                                ",
"                                                                ",
"                                                                ",
"                                                                ",
"                                                                ",
"                                                                ",
"                                                                ",
"                                                                ",
"                                                                ",
"                                                                ",
"                                                                ",
"                                                                ",
"                                                                ",
"                                                                ",
"                                                                ",
"                                                                ",
"                                                                ",
"                                                                ",
"                                                                ",
"                                                                ",
"                                                                ",
"                                                                ",
"                                                                ",
"                                                                ",
"                                                                ",
"                                                                ",
"                                                                ",
"                                                                ",
"                               ...                              ",
"                          .....X@@..                            ",
"                        ..X@@@@@#@@@.                           ",
"                      ..X@@@@@@#@###@.                          ",
"                     .X@@@@@@@@@#@#@#@.                         ",
"                    .X@@@@@@@@@@@#@###X.                        ",
"                    .@@@@@@@@@@@#X#@#XXX.                       ",
"                    .@@@@@@@@@@@@#@#XXXXX.                      ",
"                    .@@@@@@@@@@@@@#XXXXXX.                      ",
"                   .X@@@@@@@@@@@##XXXXXXXX.                     ",
"                   .X@@@@@@@@@#XXXXXXXXXXX.                     ",
"                   .@@@@@@@@@#XXXXXXXXXXXX.                     ",
"                   .@@@@@#@@#XXXXXXXXXXXXXX.                    ",
"                   .@@@@@@@#XXXXXXXXXXXXXXX.                    ",
"                  .@@@@@@@#XXXXXXXXXXXXXXXX.                    ",
"                  .#@@@@@#XXXXXXOXXXXOXXXXX.                    ",
"                  .X#@@@#XXXXXXXXOoXOoXXXXX.                    ",
"                  .XX#@#XXXXXXXXXX@@@XXXXXX.                    ",
"                  .XXXXXXXXXXXXXXO@++oXXXXX.                    ",
"                   .XXXXXXXXXXXXXO+OXXoXXX.                     ",
"                    ..XXXXXXXXXXoXXXXXXX..                      ",
"                      ....XXXXXXXXXXXX..                        ",
"                          ............                          "
};
