/* XPM */
static char *_574940350902[] = {
/* columns rows colors chars-per-pixel */
"64 64 5 1 ",
"  c black",
". c #21150E",
"X c #2F1E13",
"o c #472C1C",
"O c #583622",
/* pixels */
"                                                                ",
"                                                                ",
"                                                                ",
"                                                                ",
"                                                                ",
"                                                                ",
"                                                                ",
"                                                                ",
"                                                                ",
"                                                                ",
"                                                                ",
"                                                                ",
"                                                                ",
"                                                                ",
"                                                                ",
"                                                                ",
"                                                                ",
"                                                                ",
"                                                                ",
"                                                                ",
"                                                                ",
"                                                                ",
"                                                                ",
"                                                                ",
"                                                                ",
"                                                                ",
"                                                                ",
"                                                                ",
"                                                                ",
"                                                                ",
"                                                                ",
"                                                                ",
"                                                                ",
"                                                                ",
"                                                                ",
"                                                                ",
"                                                                ",
"                                                                ",
"                                   .....                        ",
"                                ...XooXX.                       ",
"                             ...XooooooXX.                      ",
"                           ..XooooooooOXX.                      ",
"                          .XooooooooOOXXXX.                     ",
"                          .oooooooOOXXXXXX.                     ",
"                          .XOoooOOXXXXXXXXX.                    ",
"                       ...XoXOOOXXooXXXXXXX.                    ",
"                      .XooooOXXXoooooXXXXXX.                    ",
"                     .XooooooXXXoooooXXXXXXX.                   ",
"                     .oooooooOXoooooOXXXXXXX.                   ",
"                    .XooooooooXoooooXXXXXXXX.                   ",
"                    .oooooooooXooooOXXXXXXoX.                   ",
"                   .XooooooooOXoooOXXXXXXoXX.                   ",
"                   .ooooooooooXXOOXXXXXXXXoXX.                  ",
"                   .oooooooooOXXXXXXXXXXXXXXX.                  ",
"                   .oooooooooOXXXXXXXXXXXXXXX.                  ",
"                   .oooooooooOXXXXXXXXXXXXXXX.                  ",
"                   .oOoooooooXXXXXXXXXXXXXXXX.                  ",
"                   .ooooooooOXXXXXXXXXXXXXXXX.                  ",
"                   .oooOoooOXoXXXXXXXXXXXXXXX.                  ",
"                    .OooooOXXXXXXXXXXXXXXXXXX.                  ",
"                    .XOoOXXoXXXXXXXXXXXXXXXX.                   ",
"                     .XXXXoXoXXXXXXXXXXXXX..                    ",
"                      ..XXXXXXXXXXXXXX....                      ",
"                        ..............                          "
};
