/* XPM */
static char *_574940355045[] = {
/* columns rows colors chars-per-pixel */
"64 64 7 1 ",
"  c black",
". c #202020",
"X c #252020",
"o c #2B2626",
"O c #312B2A",
"+ c #3D3534",
"@ c #4B4140",
/* pixels */
"                                                                ",
"                                                                ",
"                                                                ",
"                                                                ",
"                                                                ",
"                                                                ",
"                                                                ",
"                                                                ",
"                                                                ",
"                                                                ",
"                                                                ",
"                                                                ",
"                                                                ",
"                                                                ",
"                                                                ",
"                                                                ",
"                                                                ",
"                                                                ",
"                                                                ",
"                                                                ",
"                                                                ",
"                                                                ",
"                                                                ",
"                                                                ",
"                                                                ",
"                                                                ",
"                                                                ",
"                                                                ",
"                                                                ",
"                                                                ",
"                                                                ",
"                                                                ",
"                                                                ",
"                                                                ",
"                                                                ",
"                                                                ",
"                                                                ",
"                                                                ",
"                                  .....                         ",
"                               ...X++XX.                        ",
"                            ...X++++++XX.                       ",
"                          ..X++++++++@XX.                       ",
"                         .X++++++++@@XXXX.                      ",
"                         .+++++++@@XXXXXX.                      ",
"                         .X@+++@@XXXXXXXXX.                     ",
"                      ...X+X@@@XX++XXXXXXX.                     ",
"                     .X++++@XXX+++++XXXXXX.                     ",
"                    .X++++++XXX+++++XXXXXXX.                    ",
"                    .+++++++@X+++++@XXXXXXX.                    ",
"                   .X++++++++X+++++XXXXXXXX.                    ",
"                   .+++++++++X++++@XXXXXX+X.                    ",
"                  .X++++++++@X+++@XXXXXX+XX.                    ",
"                  .++++++++++XX@@XXXXXXXX+XX.                   ",
"                  .+++++++++@XXXXXXXXXXXXXXX.                   ",
"                  .+++++++++@XXXXXXXXXXXXXXX.                   ",
"                  .+++++++++@XXXXXXXXXXXXXXX.                   ",
"                  .+@+++++++XXXOXXXXOXXXXXXX.                   ",
"                  .++++++++@XXXXOoXOoXXXXXXX.                   ",
"                  .+++@+++@X+XXXXOOOXXXXXXXX.                   ",
"                   .@++++@XXXXXXXOoooXXXXXXX.                   ",
"                   .X@+@XX+XXXXXOoXXXoXXXXX.                    ",
"                    .XXXX+X+XXXoXXXXXXXXX..                     ",
"                     ..XXXXXXXXXXXXXX....                       ",
"                       ..............                           "
};
