/* XPM */
static char *_574960927378[] = {
/* columns rows colors chars-per-pixel */
"64 64 8 1 ",
"  c black",
". c #3A241B",
"X c #4F3327",
"o c #593C2F",
"O c #644537",
"+ c #92695A",
"@ c #B48170",
"# c #D6C79C",
/* pixels */
"                                                                ",
"                                                                ",
"                                                                ",
"                                                                ",
"                                                                ",
"                                                                ",
"                                                                ",
"                                                                ",
"                                                                ",
"                                                                ",
"                                                                ",
"                                                                ",
"                                                                ",
"                                                                ",
"                                                                ",
"                                                                ",
"                                                                ",
"                                                                ",
"                                                                ",
"                                                                ",
"                                                                ",
"                                                                ",
"                                                                ",
"                                                                ",
"                                                                ",
"                                                                ",
"                                                                ",
"                                                                ",
"                                                                ",
"                                                                ",
"                                                                ",
"                                                                ",
"                                                                ",
"                                                                ",
"                                                                ",
"                                                                ",
"                                                                ",
"                         ...                                    ",
"                       ..O+O.                                   ",
"                      .O@#@+O.      ...                         ",
"                      .+#@@@+O.    .O+O.                        ",
"                      .O@@@@@+.   .O+#@O.                       ",
"                      ..O+@@@@.  .O+#@@+O.                      ",
"                     ....O+@@@.  .+@@@@+O.                      ",
"                   ..O++O.O+@+O..O+@@++OO.                      ",
"                  .O+##@+O.O+OO..O+++OOo.                       ",
"                  .+##@@@+O.OOO.oOOOOoX.                        ",
"                 .O@#@@@@+O.OOo.XoooX....                       ",
"                 .+@@@@@@Oo.OO...XXX.O++O.                      ",
"                 .O@@@@@+O.oOo.oo...O+#@+O.                     ",
"                 .o+@@+OOo.OoX.@Oo.O+#@@@+o.                    ",
"                  .oOOOoo.oOX.XOOO.+@@@@+Oo.                    ",
"                  .XoooX.Xoo.Xoooo.O+@@+OoX.                    ",
"                   .XXX...XX...Xoo.oOOOOoX..                    ",
"                    .X.O++..O+O.XX.XooooXX.                     ",
"                     .+@+.O+@++O..XXXXXX..                      ",
"                    .O@+.O+@++++O.XXX....                       ",
"                    .o+O.O++++++O....O++O.                      ",
"                    .ooo.oO++++Oo.ooO+@++O.                     ",
"                     .Xo.XoOOOOoXXXXoO++OO.                     ",
"                     .XXX.XoOooXXXX.XoOOOo.                     ",
"                      ....XXXXXXXX..XXoooX.                     ",
"                          .XXXXXX.  .XXXX.                      ",
"                           ......    ....                       "
};
