/* XPM */
static char *_575402578450[] = {
/* columns rows colors chars-per-pixel */
"64 64 11 1 ",
"  c #08080A",
". c #161413",
"X c #181819",
"o c #1D1A19",
"O c #1F1F20",
"+ c #282423",
"@ c #272728",
"# c #2E2928",
"$ c #323435",
"% c #3B3533",
"& c #4D4542",
/* pixels */
"+%%###%+++++++%%%+++###%%##+++++#%%%+++++++++%%#####++++++++++++",
"&&&%%#%%&%%&%&&&&&&&%#%%%%%%&&&%#%%%%&&&%&&&%%%#%%%&&&&&&&&&&&%&",
"&&&&&#%%&&&&&&&&&&&&%#&%&%%&&&%&%%&&%%%%%%&&&&%%%%&&&&&&&&&&&%%&",
"&&&&%#%%%&&&&&&&&&&&%#&&&&&%&&&&#&&&&&&&%%%%&&&#%&&&&&&&&&&&&%&&",
"##+##+#%%%%%%%&%&&&&%#%&&&&&&&&&#&&&&&&&&&&&&%&%%%&&&&&&&&&%%&&&",
"+++++#+++##++###%%%%%#%%&%&&%%&%#&%%%%%%&%&&&&%#%%%&&&&&%%%%%&##",
"+++++#+++++++++o###+++++++++##+++##+#####+++++++++##++++##+++###",
"+++++o+++++++++++++#+#+++++++++##++%+++++++++++.++++++++++++++++",
"++%++o++++++++%++++++#++++++++++.++++++++++++++#++++++++++++++++",
"+++++o+++++++++++++++o++++++++++o++++++++++++++.++++++++++++++++",
"+++++.++++++++++%++++o++++++++++.++++++++++++++.++++++++++++++++",
"++++o.+++++++++++++++o++++++++++.++++++++++++++.o+++%+++++++++++",
"o+++o.o++++++++++++++.o+++++++++.o++++++++++++o.o+++++++++++++o+",
".oo+.o.+++++++++++++.o.o+++++++.o.oo++++++++oo.o.oo+++++++++oo.o",
"$...o@o...oooooooo..o@@........ooo..ooo+++oo..o@o..o+++++++o..o.",
"$$@@@$$$$$...oooo.$@@$.@@$@@@$@$$@$o..oooo..o$$$$oo.ooooooo.o$$$",
"$$$@@@@@@$$$$....@@@@@.$$@@@@@@@@$@@$o....oo@@@@@$@o.......@@$$$",
"@@$$@@@@@@@$O@@@@@@O@.@@@@@@@@@@@@@@@$@@@@O@@@@@@@@@@@$@@@@@@@$@",
"@@@@@@@$@@@@@O@@@@@.@.@@@@@@@@@@@@@@$@@@@@@@@@@@@@@$@@@@@@@O@@@@",
"@@@@@@@@$@@@@@@@@@@$.$@@@@@@@@@$@@@@@@@@@@@@@@@@@@@$@@@@@@@O@@@@",
"O@@@@@@@@@@@@@@@@@@@$@@@@@@@@@@@@@@@@@@@@@@@@@@@@@$@@@@@@@O$@@@@",
"OO@@O@@@@@@@@@@@@@@@@$@@@@@@@@@@@@@@@@@@@@@@@@@@@@@@@@@@@O$@@@@O",
"OO@@OO@@@O@@O@@@@@@@@@@@@@@@@@@@@@@O@@@@@@@@@@@@@OO@@@@@XO@@@OOO",
"OOOOOOOOOO@OO@O@@@@O@O@@@@@OO@O@@@OO@@@@@@@@@O@OOOOOOO@X@OOOO@OO",
"OOOOOOOOOOOOOOO@O@OOOO@@@@OOOOOO@OOOOOOOOOOOOOOOOOOOOOOX@OOOO@OO",
"OOOOO@OOOOOOOOOOOO@OOOO@OOOOOOOOOOOO@OOOOOOOOOOOOOOOOOX@OOOOOOOO",
"OOOOOO@OOOOOOOOOOOOOOOOOOOOOOOOOOOOOOOOOOOOOOOOOOOOOOOX@OOOOOOO@",
"OOOOOO@OOOOOOOOOOOOOOOOOOOOOOOOOOOOOOOOOOOOOOOOOOOOOOOX@OOOOOOOO",
"OO@XOOOOOOOOOOOOOOOOOOOOOO@OOOOOOOOOOOOOOOOOOOOOOOOOOX@OOOOOOOOO",
"OOO$XOOOOOOOOOOOOOOOOOOOOOOOOOOOOOOOOOOOOOOOOOOOOOOOOX@OOOOOOOOO",
"OOOO@XOOOOOOOOOOOOOOOOOOO@OOOOOOOOOOOOOOOOOOOOOOOOOOX@OOOOOOOOOO",
"OOOO@XOOOOOOOO@OOOOOOOOOOOOOOOOOOOOOOOOOOOOOOOOOOOXX@OOOOOOOOOOO",
"OOOOO@XOOOOOOOOOOOOOOOOOOOOOOOOOOOOOOOOOOOOOOOOOXX@@OOOOOOOOOOOO",
"OOOOO@XOOOOOOOOOOOOOOOOOOOOOOOOOOOOOO@OOOOOOOOOX@@OOOOOOOOOO@OOO",
"OOOOOO@XOOOOOOOOOOOOOOOOOOOOOOOOOOOOOOOOOOOOOOX@OOOOOOOOOOOOOOOO",
"XOOOOO@XOOOOOOOOOOOOOOOOOOOOOOOOXOOOOOOOOOOOOX@OOOOOOOOOOOOOOOOO",
"XXOXXOO@XOOOOOOOOOOOOOOOOOOOOOOOXOOOOOOOOOOOOXOOOOOOOOOOOOOOOOOO",
"XXXXXOO@XOOOOOOOOOOOOOOOOOOOOOOX@OOOOOOOOOOOX@OOOOOOOOOOOOOOOOOO",
"XXXXXXXOXOXOOXXOOOOOOOOOXXOOOOX@OOOOOOOOOOO@XOOOOOOOOOOOOOOOOOOO",
"XXXXXXXXX XXXXXXOOXOXOOXOXXXOOX@OOOOOOOOOOXX OOOOXOOXOOXXOOXXOOX",
"XXXXXXXXXXXXXXX@XXXXXXOXXXXXXX OOOOOOOOOXXX XXOOOXOOXXOOXXOOXXXX",
"XXXXOXXXXXXXXXXXXXXXXXXXXXXXXX OOXXOOOOOXXXXXXXOXXOOOXXOXXXOOXXX",
" XXXXXXXXXXXXXXXXXXXXXXXXXXXX OXXXXXOOXOOXXXXXXXXXXOOXXXXXXXOXXX",
" XXXXXXXXXXXXXXXXXXXXXXXXXXXX XXXXXXOXXXXOXXXXXXXXXXOXXXXXXXXOXX",
"  XXXXXXXXOXXXXXXXXXXXXXXXXX OOXXXXXXXXXXXXXXXXXXXXXXXXXXOXXXXXX",
"  XXXXXXXXXXXXXXXXXXXXXXXXXX XXOXXXXXXXXXXXXXXXOXXXXXXXXXXXXXXX ",
"  XXXXX XXXXXXXXXXXXOXXXXXX OXXXXXXXXXXXXXXXXXXXXXXXXXXXXXXXXXX ",
"   XXXX  XX XXXXXXXXXXXXXXX XXXXXXXX XXXXXXXXXXXX XXXXXX XXXXX  ",
"    XX        XXXXXXXXXXXX XXXXXXXXX XXXXXXXXXXXX XXXXXX XXXXX  ",
"                XXXXXX      XXXXXXXX  XXXXXXXXXXX XXXXX  XXXX   ",
"                  XX             XXX    XXXXXXX             X   ",
"                 X                        XXXXX                 ",
"                                           XXX                  ",
"                           X                                    ",
"                                                                ",
"                                         X              X       ",
"                                        X                       ",
"                                                          X     ",
"                                                                ",
"                                                                ",
"                                                                ",
"                                     X              X           ",
"    X X                           X X                           ",
"XX X X  X                        X X X          X              X"
};
