/* XPM */
static char *_575465657585[] = {
/* columns rows colors chars-per-pixel */
"64 64 11 1 ",
"  c #281D19",
". c #2E1F19",
"X c #2F221C",
"o c #30221D",
"O c #382720",
"+ c #3A2720",
"@ c #3D2A23",
"# c #422D25",
"$ c #54392F",
"% c #795041",
"& c #B0735D",
/* pixels */
" oooooooooooooooooooooooooooooooooooooooooooooooooooooooooooooo ",
"o#%$$$$$$$$$$$$.$$$$$$$$$$$$$$$$$$$$$$$$$$$$$$$.$$$$$$$$$$.$$$%o",
"o#%&&&&&&&&&&&%%$%%%%%&&&&&&&&&&&&&&&&&&&&&&&&&&$&&&&&&&&&&&&&%o",
"o$%&&&&&&&&&&&&&&&&&&&&&&&&&&&&&&&&&&&&&&&&&&&&&%&&&&&&&&&&&&$%o",
"o#o%&&&&&&&&&&&&&&&&&&&&&&&&&&&&&&&&&&&&&&&&&&&#&&&&&&&&&&%&&%+o",
"o%%&&&&&&&&&&&&&&&&&&&&&&&&&&&&&&&&&&&&&&&&+%%%&&&&&&&&&&%&&&%#o",
"o$$$%%%%%%$$$$%%$$$$$$$$$%%%%%%%%%%%%%%%$$$$$$$%%%%%%%%%%%%%%$$o",
"o#########################################ooo##################o",
" ooooooo oooooooooooooooooooooooooooooooooooooooooooooo ooooooo ",
"o#######o                                              o#######o",
"o$$$####o                                              o####$$$o",
"o$%%%###o                                              o###$$$$o",
"o%%%%%##o                                              o##$$%%%o",
"o%%%%%##o                                              o##$$%%%o",
"o%%%%%##o                                              o##$$%%%o",
"o$%%%%##o                                              o##$$%%%o",
"o$%%%%##o                                              o##$$%%%o",
"o%%%%%##o                                              o##$$%%%o",
"o%%%%%##o                                              o##$$%%%o",
"o%%%%$##o                                              o##$%%%$o",
"o%%%%$##o                                              o##$%%%$o",
"o%%%%%##o                                              o##$%%%$o",
"o%%%%%##o                                              o##%%%%$o",
"o%%%%%##o                                              o##%%%%$o",
"o$%%%%##o                                              o##%%%%$o",
"o$%%%%##o                                              o##%%%$%o",
"o$%%%###o                                              o##%%%$%o",
"o$%%%###o                                              o##%%%$%o",
"o$%%%%##o                                              o##%%%$%o",
"o$%%%%##o                                              o##%%%$%o",
"o$%%%%##o                                              o##%%%%%o",
"o$%%%%##o                                              o###%%%%o",
"o$%%%%##o                                              o##%%%%%o",
"o$%%%%##o                                              o##%%%%%o",
"o$%%%%##o                                              o##%%%%%o",
"o%%%%%##o                                              o##%%%%%o",
"o%%%%%##o                                              o##%%%%$o",
"o%%%%%##o                                              o##%%%%$o",
"o$%%%%##o                                              o##%%%%%o",
"o$%%%%##o                                              o##$%%%%o",
"o$%%%%##o                                              o##$%%%%o",
"o$%%%%##o                                              o##$%%%%o",
"o$%%%%##o                                              o##$%%%%o",
"o%%%%%##o                                              o##$%%%%o",
"o%%%%$##o                                              o##$%%%%o",
"o%%%%%##o                                              o##$%%%%o",
"o%%%%%##o                                              o##$%%%%o",
"o%%%%%##oXXXXXXXXXXXXXXXXXXXXXXXXXXXXXXXXXXXXXXXXXXXXXXo##$%%%%o",
"o%%%%%##oXXXXXXXXXXXXXXXXXXXXXXXXXXXXXXXXXXXXXXXXXXXXXXo##$%%%%o",
"o%%%%%##oXXXXXXXXXXXXXXXXXXXXXXXXXXXXXXXXXXXXXXXXXXXXXXo##$%%%%o",
"o%%%%%##oXXXXXXXXXXXXXXXXXXXXXXXXXXXXXXXXXXXXXXXXXXXXXXX##$%%%%o",
"o$%%%%##oXXXXXXXXXXXXXXXXXXXXXXXXXXXXXXXXXXXXXXXXXXXXXXX##%%%%%o",
"o$%%%%##oXXXXXXXXXXXXXXXXXXXXXXXXXXXXXXXXXXXXXXXXXXXXXXX##$%%%%o",
"o$$%%%##oOOOOOOOOOOOOOOOOOOOOOOOOOOOOOOOOOOOOOOO++OOOO+X##$%%%%o",
"o$$%%%##oOOOOOOOOOOOOOOOOOOOOOOOOOOOOOOOOOOOOOOOOOOOOOOX##%%%%%o",
"o$$%%%##oOOOOOOOOOOOOOOOOOOOOOOOOOOOOOOOOOOOOOOOOOOOOOOX##%%%%$o",
"o$%%%%##oOOOOOOOOOOOOOOOOOOOOOOOOOOOOOOOOOOOOOOOOOOOOO+o##%%%%%o",
"o$%%%%##oOOOOOOOOOOOOOOOOOOOOOOOOOOOOOOOOOOOOOOOOOOOOOOo##%%%%%o",
"o%%%%%##oOOOOOOOOOOOOOOOOOOOOOOOOOOOOOOOOOO+OOOOOOOOOO+X##%%%%%o",
"o%%%%%##o@@@@@@@@@@@@@@@@@@@@@@@@@@@@@@@@@@@@@@@@@@@@@@o##%%%%%o",
"o%%%%###o@@@@@@@@@@@@@@@@@@@@@@@@@@@@@@@@@@@@@@@@@@@@@@o###$%%%o",
"o%%%####o@@@@@@@@@@@@@@@@@@@@@@@@@@@@@@@@@@@@@@@@@@@@@@o####$$%o",
"o$%%####o@@@@@@@@@@@@@@@@@@@@@@@@@@@@@@@@@@@@@@@@@@@@@@o####$$$o",
" ooooooo ooooooooooooooooooooooooooooooXooooooooooXXooo ooooooo "
};
