/* XPM */
static char *_575402561831[] = {
/* columns rows colors chars-per-pixel */
"64 64 6 1 ",
"  c #271E0F",
". c #412E1E",
"X c #553C28",
"o c #61442D",
"O c #6E4D33",
"+ c #895E43",
/* pixels */
"                                                                ",
"....   ....................X.............  .....................",
"XXXX. ..XXXXXXXXXXXXXXXXX....XXXXXXXXXXXX. XXXXXXXXXXXXXXXXXXXXX",
"XXXXX..XXXXXXXXXXXXXXXXXXX..XXXXXXXXXXXXXX.XXXXXXXXXXXXXXXXXXXXX",
"OOOOX.XOOOOOOOOOOOOOOOOOOXXXOOOOOOOOOOOOOO.XOOOOOOOOOOOOOOOOOOOO",
"+++++.+++++++++++++++++++OOOO++++++++++++OOOO+++++++++++++++++++",
"+++O+..++OO+++++O++++++++++O+++OOOO+++++++O++OOO++++++++++++++++",
"++OOOX.++++++++++++++++O+++O++++++++++O+++OXX++++++++++++++++O++",
"OOOOOXXOOOOOOOOOOO++++OOO+OO++++++++++OO++OXX+++++++O++OO+++O+O+",
"OOOOX...X....XXXOOOOOOOOXOOOOOOOOOOOO.X....X..OOOOOOOOOOOOOOOOOO",
"OOOOX....XX...XXOOOOOOOOOOOOOOOOOOXXXXXXXXXXX.....XX..XOOOOOOOOO",
"XXX.....XXXX...XOOOOOOOOOOOOOOOOOOOOOOOOOOOO..XXOOOOOOOOOOOOOOOO",
"OOOOOX..OOOOOOOOOOOOOOOOOOOOOOOOOOOOOOOOOOOOX.XXOOOOOOOOOXX.OOOO",
"OOOOOO..OOOOOOOOOOOOOOOOOOOOOOOOOOOOOOOOOOOOX.XXXOOOOOOOOOOOOOOO",
"OOOOOX...OOOOOOOOOOXXXX..XOOOOOOOOXOOOOOOOOOO.XXXOOOOOOOOOOOOOOO",
"OOOOXX..OOOOOOOOOOOOOOOOOOOOOOOOOOOOOOOOOOOOO.XXXOOOOOOOOOOOOOOO",
"OOOOXX..OOOOOOOOOOOOOOOOOOOOOOOOOOOOOOOOOOOOO.XXXOOOOOOOOOOOOOOO",
"XOOXX.OOOOOOOOOOOOOOOOOOOOOOOOOOOOOOOOOOOOOOO.XXXOOOOXOOOOOOOOOX",
"X.O.X.OOOOOOOOX....XXXXXOXXXXXX.OOOOOOOXOOOOO.XXXXXOOOOOOOOOOOXX",
"XX .X.OOOOXXXXXXXXXX..........XOOOOOOOOOXOOOO .XXXXXOOOOOOOOXXXX",
"X    XXXXXXX..........XXXXX   XXXXXXXX   XXX   .XXXXXXXXXXXXXXXX",
" .............        ..................................     .. ",
"XXX+++++++ooXXoo. .oXX+++++++++++++++Xo++++++++++++++.. .+++++++",
"ooooooooooooX+oo. oooX+ooooooooooooooooooooooooooooooX. XooooooX",
"ooooooooooooooooo oooooooooooo.oooooooooooooooooXoooooX.Xooooooo",
"ooooooooooooooooo ooooooooooooooooooooooooooooooooooooXX.ooooooo",
"oooooooooXooooooo ooooooooooooooooooooooooooooooooooooX.Xooooooo",
"ooooooooooooooooo ooooooooooooooooooooooooooooooooooooX.Xooooooo",
"ooooooooooooooooo oooooooXooooooooooooooooooooooooooooX Xooooooo",
"   XXXooooooooooo ooooooooooooooooooooooooooooooooooooX XoXX.X  ",
"ooooooooooooooooo ooooooooooXXX..XX.X  XooooooooooooooX XXoooooo",
"ooooooooooooooooo ooooooooooooooooooooooooooooooooooo.   .XXoooo",
"XXXoooooooooooooo oooooooXXXoooooooooooooooooooooooo..     ..XXX",
"..XXXooooooooooo. ooooXXXXXXXXXXXXXXXXXooooooooooo.....    .....",
"  ...Xooooooooo.. .o...          ..........XXo.........     .   ",
"                                                                ",
"+++++++XXXo XXXXXXXXo++++++++++++XXX .+++++++++oo ooo       ++++",
"ooooooooooooooooooooooooooooooooo+oX  .oooooooooooooo+XX...XXooo",
"oooooooooooooooooooooooooooooooooooX . ooooooooooooooooXXX.Xoooo",
"ooooooooooooooooooooooooooooooooooo. . oooooooooooooooooooXooooo",
"ooooooooooooooooooooooooooooooooooo.  .ooooooooooooooooooooooooo",
"ooooooooooooooooooooooooXooooooooooo  .ooooooooooooooooooooooooo",
"oooooooooooooooooooooooooooooooooooo .oooooooooooooooooooooooooo",
"X.XXooooooooooooooooooooooooooooooo. .ooooooXXXX.XXXXX     .XXXX",
"ooooooooooooooooooooooooooooooooooo.  ooooooooooooXXXXXXoooooooo",
"ooooooooooooooooooooooooooooooooooo.  oooooooooooooooooooooooooo",
"oooooooooooXX..XX    XXXooooooooooo. .oooooooooooooooooooooooooo",
"ooooooooooooooooooooooooooooooooooo ..oooooooooooooooooooooooooo",
"oooooooooooooooooooooooooooooooooo. .ooooooooooooooooooooooooooo",
"ooooooooooooXXXXXXXXooooooooooooo.. ..oooooooooooooXooooooooXooo",
"oooooooXXXXXX.......XXXXXXXXXXXX.... .ooooXXXXXXXXX.XXXooooooooo",
".... ........       ...XXXXXXXX.....  .oX.......... ....XXoooooo",
"                                                                ",
". ...OOOOOO OOOOOOOOOOOOOOOOOOOOO.... ................O....    .",
"OXXXX.X. XX XXXXXXXXXXXXXXXXXXXXXXXXXOOOOOOOOO.XXXXXXXXOOOOOOOOO",
"X....XXXXXX  XXXXXXXXXXXXXXXXXXXXXXXXXXXXXXXXXXXXXXXXXXXXXXXXXXX",
"XX...XXXXXXX XXXXXXXXXXXXXXXXXXXXXXXXXXXXXXXXXXXXX.XXXXXXXXXXXXX",
"XXXXXXXXXXXX  ....X.. XXXX....     .....XXXXXXXXXXXXXXXXXXXXXXXX",
". .X.XXXXXXX   ..XXXXXXXXXXXXXXXXXXXXXXXXX.XXXXXXXXXXXXXXXXXXX..",
"XXXXXXXXXXX. ..XXXXXXXX.XXXXXXXXXXXXXXXXXXXXX.XXXXXXX.....XXXXXX",
"XXXXXXXXXX..   XXXXXXX..XXXXXXXXXXXXXXXXXXX.  .XXXXXXXXXXX...XXX",
"...........    ........ ....................  ............. ....",
"                                                                ",
"                                                                "
};
