/* XPM */
static char *_575402565903[] = {
/* columns rows colors chars-per-pixel */
"64 64 10 1 ",
"  c #1A1310",
". c #1E1A18",
"X c #1F1B19",
"o c #261B16",
"O c #27211E",
"+ c #35231D",
"@ c #332A28",
"# c #452C27",
"$ c #423836",
"% c #5C433D",
/* pixels */
"......        ....     .....       ..      ..............  .....",
".......      .....      o....      ...     .............    ...o",
"........     ......      ....      ...       ..........      ...",
" .......     o.....      o.        .....      o.......          ",
"   o....      o...                ......        o...            ",
"    o...                         ........                      o",
"oo   ....                      ..........                 oooooo",
"ooooo     ..                   o.......                 oooooooo",
"oooooo   ........    ......     .......    .....    oooooooooooo",
"oooooo   .........   o.......    o....   .. .....  ooooooooooooo",
"oooooo   o........    o......            ........   oooooooooooo",
"ooooooo   o........    o......          ........       ooooooooo",
"ooooooo                   o...   ooo    ......o     o      ooooo",
"ooooooo     ooooooo          o  oooo   ......o     ooo      oooo",
"ooooooooo  oooooooooo            oooo  o...      oooooo        o",
" oooooooo  ooooooooooo    ooo    oooo          oooooooooo       ",
" #ooooooo   ooooooooooo  o ooo    oo          ooooooooooooo     ",
"o ooooooo  oooooooooooo  oo oooo     oooooo  ooooooooooooo##   o",
"+o  #oooo  ooo#   oooo    o oooo    oooooo# oooooo#oooooo#  ooo+",
"##+oo#oooo #oo  oo  oo    ooooooo  #ooooo# o+####+o#oooo#  o+++#",
"###++  #oo  ## o++oo++ooo #oooooo      ## o+######+o ##    o###+",
"#####oo #oo  oo++#####+++o ##oooo    oooooo+#######+oo o  o+####",
"#####++o #o o+++#####+###+o  ooo   oo++++++%########++o#oo+#####",
"####+##+o   +++##########+o  #oo  oooooooo+++%%########+oo######",
"##++####o  o++############+o  #ooo+#+o oooooo++%%#####%ooo######",
"########o o+++#############+o  o# o+#+o ooooooooo+%%%%+o++######",
"#######%o o++###############+oo   o##%+o oooooooooooooo+##++####",
"#######+o o++#################+o  o###%+o oooooooo ooo+#########",
"#####%+oo o++#################%+o o##%%+o  ooooo  o+%%##########",
"####+oooo o++#################+oo o%+oooo   oo    oo++%%#######%",
"##%+ooooo ooo+%##############+ooo oooooo    oo   ooooo++%#####%+",
"+%ooooooo ooooo+%##########%+oooo oooooo     o  oooooooo+%%%%%+o",
"ooooooooo ooooooo%%%%%%%%+%ooooo  oooooo  ..   Xooooooooo+++++oo",
"oooooooo   ooooooooooooooooooooo  oooo  .XOO.   oooooooooooooooo",
"oooooooo    ooooooooooooooooooo  oooo   XX@@O..  ooooooooooooooo",
"ooooooo        oooooooooooo    o ooo  o.XO@@@O.  oooooo#oooooooo",
"oooooo   ++++   ooooooooo  oooo+ooo .oOOO@O@@@OX  oo#o#ooooooooo",
"ooooo   +####+++  ooooooo o+++++o  XOO@@@@O@@@@O. ooo#oooooooooo",
"oooo   +####+###++ ooooo o+###++o XO@@@@@@@O@@@@X oo#o#ooooooooo",
"ooooo +###########+  oo  o+####+oXXX@@@@@@@@@@@OX o#oooooooooooo",
"oooo +%############+    o+#####+oXXXO@%@@@@@@%O.   ooooooooooooo",
"oooo o+%############+   o+#####+oXXXXOO@@%$@OO.     oooooooooo  ",
"oXXX  oo%+%%%%#####%+  o+######+o XXXXXOOO@@XX.     oooooooooo  ",
"XOOOX   oo+++++%%%++o o+#######+o XXXXXXXXXXX.       ooooooo    ",
"O@@@OXX  oooooo+++ooo o+%%%####+o oXXXXXXXXXX   oooo  ooooo    X",
"@@@@@OOX  ooooooooooo oo+++%###%@o .XXXXXXX.X  o++++oo oooo   XO",
"@@@@@@@OX  ooooooooo  ooooo+%%##+o .XXXXX... Xo+####++o oo   XO@",
"@@@@@@@@OX oooooooo   oooooo++#%%+o XXXXX.  X@@#######+o o XXO@@",
"@@@@@@@@@OX   Ooooo  ooooooooo+++++o       o+##+######%o XOOO@@@",
"@@@@@@@@@@OX    oo    oooooooooooooo      o+%%####%%%%+o O@@@@@@",
"@@@@@@@@@@@OX  o##oo   oooooooooooooooo  ooo+++%%%+++++oXXO@@@@@",
"@@@@@@@@@@@@OXo#####oo   ooooooooooooooo oooooo+++ooooo XXO@@@@@",
"@@@@@@@@@@@@@OX%######o   oooooooooooooo  ooooooooooooo XX@@@@@@",
"@@@@@@@@@@@@@OXo%######o   ooooooooooooo   oooooooooooo XXXO$$@@",
"@@@@@@@@@@@@@OX o%#####oo    oooooooooo  oo      ooooo XXXXXOO$$",
"@$$$@@@@@@$$$XX  o%######oo    oooooooooo++ooooo   ooo XXXXX.OOO",
"XOOO$$$$$$OOOXXX ooo%%#####oo     oooooo+##+++++o     XXXXXXXXXX",
"XXXXOOOOO$XXXXXX  oooo%######oooo  ooo oo%######+oo   XXXXXXXXXX",
"XXXXXXXXXO$XXXXX  ooooo%########%o     oo++#######+oo  XXXXXXXXX",
"XXXXXXXXXXOXXXXX  ooooooo%%%##%%ooo    oooo%++#####%+o  XXXXXXXX",
"XXXXXXXXXXXOXXXX oooooooooooooooooo     ooooooo+++++oo   XXXXXXX",
" XXXXXXXXXXXXXX oooooooooooooooooo      ooooooooooooooo    .XXXX",
"    XXXXXXXXXXX oo    ooooooooooo        ooooooooooo        XXXX",
"                                                            .XXX"
};
