/* XPM */
static char *_575465654185[] = {
/* columns rows colors chars-per-pixel */
"64 64 12 1 ",
"  c #211714",
". c #281D19",
"X c #30221D",
"o c #553402",
"O c #422D25",
"+ c #54392F",
"@ c #6A4103",
"# c #795041",
"$ c #AC7208",
"% c #F6B412",
"& c #FAD988",
"* c white",
/* pixels */
" XXXXXXXXXXXXXXXXXXXXXXXXXXXXXXXXXXXXXXXXXXXXXXXXXXXXXXXXXXXXXX ",
"X@@@@@@@@@@@@@@@@@@@@@@@@@@@@@@@@@@@@@@@@@@@@@@@@@@@@@@@@@@@@@@X",
"X$%%%%%%$$$$$$$%%%%%%%%%%$$$$%%%%%%%%%%%%$$$$$$$%%$%$$%%%%%%%%$X",
"X@$&***&&&&&&&*&&&&&&&&&&%%%%&***&&%%%%&&&&&&&&&&**&&**&&*&%%$@X",
"X@$%&&**&&&&&&&*&&&&****&&%%%%&&****&%%%&%%%%%%&&&&&&&&&&&&&%$@X",
"X@$%%%%%%%%%%%%%%%%%%%%%%%%$$$%%%%%$$$%%%%%%%%%%%%%%$$$%%%%%$@@X",
"X@@$$$$$$$$$$$$$$$$$$$$$$$$$X$$$$$$$X$$$$$$$$$$$$$$$$@@$$$$$@@@X",
"XooooooooooooooooooXoooooooX%XoooooX%XoooooooXoooooooooooooooooX",
" XXXXXXX XXXXXXXXXX%XXXXXXXXX       XXXXXXXXX%XXXXXXXXX XXXXXXX ",
"XoooooooX XXXXXXXXXX$XX XX$X XXXXXXX X$XX XX$XXXXXXXXX XoooooooX",
"X@@@ooooXXXXXXXXXXXXXXoXoXX XXXXXXXXX XXoXoXXXXXXXXXXXXXoooo@@@X",
"X@$$$oooXXXXXXXXXXXXXXXXXXXXXXXXXXXXXXXXXXXXXXXXXXXXXXXXooo@@@@X",
"X$$%%$ooXXOOOOOOOOOOOOOOOOOOOOOOXOOOOOOOOOOOOOOOOOOOOOXXoo@@%$$X",
"X$$%%%ooXOOOOOOOOOOOOOOOOOOOOOOOXOOOOOOOOOOOOOOOOOOOOOOXoo@@%$$X",
"X$$%%&ooXOOOOOOOOOOOOOOOOOOOOOOOXOOOOOOOOOOOOOOOOOOOOOOXoo@@$%$X",
"X@$%%$ooXOOOO+++++++++++O+++++++O++++++++++++++++++OOOOXoo@@$%%X",
"X@$$%$ooXOO+++++++++++++++++++++O++++++++++++++++++++OOXoo@@$%&X",
"X$$%%$ooXO++++++++++++++++++++++O+++++++++++++++++++++OXoo@@$%$X",
"X$$%$$ooXO++++++++++++++++++++++O+++++++++++++++++++++OXoo@@$%$X",
"X$$%$@ooX+++++++++++++++++++++++O++++++++++++++++++++++Xoo@$%%@X",
"X$%%$@ooX+++++##################+#################+++++Xoo@$%$@X",
"X$%%$$ooX+++####################+###################+++Xoo@$%$@X",
"X$%%$$ooX++#################+++++++++################++Xoo$$%$@X",
"X$%&$$ooX++###############++.........++##############++Xoo$%$$@X",
"X@%&%$ooX++##############+..$$$$$$$$$..+#############++Xoo$%$$@X",
"X@%&%$ooX+##############+.$$%%%%%%%%%$$.+#############+Xoo$%%@$X",
"X@%%&oooXO#############+.$$%$.......$%$$.+############OXoo%&&@$X",
"X@$%$oooXO#############+.$%$.........$%$.+############OXoo%&$@$X",
"X@$%$$ooXO+###########+.$%$...........$%$.+###########+Xoo&&$@$X",
"X@%%$$ooXO+###########+.$%$...........$%$.+###########OXoo&%$@$X",
"X@%%%$ooXO+###########+.$%.............%$.+###########+Xoo$%%$$X",
"X@%%%$ooXO+###########+.$%.............%$.+###########+Xooo$%$$X",
"X@%%&$ooXO+###########+.$%.............%$.+###########+Xoo$$%$$X",
"X@&&%$ooXO+###########+.$%.............%$.+###########+Xoo$$%%$X",
"X@%&%$ooXO+###########+.$%.............%$.+###########+Xoo$$%%$X",
"X$%%%$ooXO+###########+.$%.............%$.+###########OXoo$$%%$X",
"X$%%%$ooXO+###########+.$%$...........$%$.+###########OXoo$%%&@X",
"X$$%%$ooXO##############.$%$.........$%$.+###########+OXoo$%%$@X",
"X@$%$$ooXO###############.$$.........$$.+############+OXoo$$%$$X",
"X@$%$$ooXO###############+.%$.......$%.+#############+OXoo@%%$$X",
"X@$%$$ooXO###############+.$%$.....$%$.+##############OXoo@%%$$X",
"X@$%$$ooX+##############+.$%$.......$%$.+#############OXoo@$%&$X",
"X@$%$$ooX+##############+.$$.........$$.+#############OXoo@$%&$X",
"X$&%$$ooX+##############+.$$.........$$.+############+OXoo@$%&$X",
"X$%&%@ooXO##############+.@$.........$@.+#############OXoo@$&&$X",
"X%&&%$ooX+##############+.@$.........$@.+############+OXoo@$&%$X",
"X%&&%$ooX+##############+.@$@.......@$@.+############+OXoo@$&%$X",
"X%&&&$ooXO###############+.@$@.....@$@.+##############OXoo@$&&$X",
"X$%&%$ooXO###############+.@@$$$$$$$@@.+##############+Xoo@$&%$X",
"X$%%%$ooXO################+..@@@@@@@..+###############+Xoo@$%%%X",
"X$$%$$ooXO#################++.......++################+Xoo@$%%$X",
"X@$%$$ooXO####################+++++###################+Xoo$$%%$X",
"X@$$$$ooXO######################+#####################+Xoo@$%%$X",
"X@@$$$ooXO######################+#####################OXoo@$$%$X",
"X@@$$$ooXO+#####################+#####################OXoo$$%%$X",
"X@@$%%ooXO######################O+####################OXoo$%%$@X",
"X@$%&$ooXO######################O#####################OXoo$%&$$X",
"X@$&%$ooXO+####################+O+###################+OXoo$&%%$X",
"X$$&%$ooXO+####################+X+###################+OXoo$&%%$X",
"X$%%%$ooXO++##################+OXO+#################++OXoo$$&%$X",
"X$%$$oooXXO+#################+OOXOO+################+OXXooo@$$$X",
"X$$$ooooXXO++##############++OOOXOOO++#############++OXXoooo@@$X",
"X@$$ooooXXXXOOOOOOOOOOOOOOOOOOOOXOOOOOOOOOOOOOOOOOOOXXXXoooo@@@X",
" XXXXXXX XXXXXXXXXXXXXXXXXXXXXXXXXXXXXXXXXXXXXXXXXXXXXX XXXXXXX "
};
