/* XPM */
static char *_575465645997[] = {
/* columns rows colors chars-per-pixel */
"64 64 17 1 ",
"  c #0F0E0E",
". c #171514",
"X c #1E1A19",
"o c #380607",
"O c #281D19",
"+ c #2F221C",
"@ c #272320",
"# c #382720",
"$ c #3D2A23",
"% c #38312E",
"& c #480809",
"* c #680B0D",
"= c #752C2B",
"- c #524742",
"; c gray44",
": c #981013",
"> c gray63",
/* pixels */
" .............................................................. ",
".X%@@@@@@@@@@@@X@@@@@@@@@@@@@@@@@@@@@@@@@@@@@@@X@@@@@@@@@@X@@@%.",
".X%-----------%%@%%%%%--------------------=-----@-------------%.",
".@%---------------------------------------------%------------@%.",
".XX%-------------------------------==---=------X----------%--%X.",
".%%-------------------------------=::------X%%%----------%---%X.",
".@@@%%%%%%@@@@*%@@@@@@@@@%%%%%%%%*******@@@@@@@%%%%%%%%%%%%%%@@.",
".XXXXXXXXXXXXooooXXXXXXXXXXXXXXooooooooooo...XXXooXXXXoXXXXXXXX.",
" ....... ;;.o;;;;;...;;;;;...;;**...**;;;;;;;...**;;;;;;....... ",
".XXXXXXX;;;OO;;;;;OOO;;;;;OOO;;;=OOOO*;;;;;;OOOOO*;;;;;;XXXXXXX.",
".@@@XXXX;;;OOO;;;;OOOO;;;;OOOO;;OOOOO=;;;;;OOOOOO*;;;;;;XXXX@@@.",
".@&&%XXX;;;*OO*;;OOOOO;;;;OOOO>;OOOOOO;;;;OOOOOOO*;;;;;;XXX@@@@.",
".&&%%%XX.O;;*O=;;OOOOO;;;*OOOOO;OOOOOO;;;;OOOOOO=;;;;;;;XX@@%%%.",
".%&%%%XX.OO>;OO;>OOOOO;;*OOOOOO>OOOOOO;;>OOOOOOO;;;;;OO.XX@@%%%.",
".%%*%%XX.OOO>OO>OOOOOO;>=OOOOOOOOOOOOO>;OOOOOOO>;;;OOOO.XX@@%%%.",
".@%%%%XX.OOOOOOOOOOOOO>OOOOOOOOOOOOOOOO>OOOOOOOOOOOOOOO;XX@@%%%.",
".@%%%%XX.OOOOOOOOOOOOOOOOOOOOOOOOOOOOOOOOOOOOOOOOOOOOO*;XX@@%%%.",
".%%%%%XX;OOOOOOOOOOOOOOOOOOOOOOOOOOOOOOOOOOOOOOOOOOOOO*;XX@@%%%.",
".%%%%%XX;;OOOOOOOOOOOOOOOOOOOOOOOOOOOOOOOOOOOOOOOOOOO;;;XX@@%%%.",
".%%%%@XX;;;OOOOOOOOOOOOOOOOOOOOOOOOOOOOOOOOOOOOOOOOO=;;;XX@%%%@.",
".%%%%@XX;;;;OOOOOOOOOOOOOOOOOOOOOOOOOOOOOOOOOOOOOOO=;;;;XX@%%%@.",
".%%%%%XX;;;;*OOOOOOOOOOOOOOOOOOOOOOOOOOOOOOOOOOOOO;;;;;;XX@%%%&.",
".%%%%%XX;;;;=OOOOOOOOOOOOOOOOOOOOOOOOOOOOOOOOOOOOO;;;;;;XX%%%&&.",
".%%%%%XX;;;O>>OOOOOOOOOOOOOOOOOOOOOOOOOOOOOOOOOOO;;;>O;;XX%%%&*.",
".@%%%%XX.OOOOOOOOOOOOOOOOOOOOOOOOOOOOOOOOOOOOOOOO;>>OOO;XX%%%&*.",
".@%%%%XX.OOOOOOOOOOOOOOOOOOOOOOOOOOOOOOOOOOOOOOOO>OOOOO.XX%%&**.",
".@%%%XXX.OOOOOOOOOOOOOOOOOOOOOOOOOOOOOOOOOOOOOOOOOOOOOO.XX%%***.",
".@%%%XXX.OOOOOOOOOOOOOOOOOOOOOOOOOOOOOOOOOOOOOOOOOOOOOO.XX%%***.",
".@%%%%XX;OOOOOOOOOOOOOOOOOOOOOOOOOOOOOOOOOOOOOOOOOOOOOO.XX%%***.",
".@%%%%Xo;;OOOOOOOOOOOOOOOOOOOOOOOOOOOOOOOOOOOOOOOOOOOOO.XX%%&**.",
".@%%%%oo;;;*OOOOOOOOOOOOOOOOOOOOOOOOOOOOOOOOOOOOO>;OOOO.XX%%%&&.",
".@%%%&oo;;;;*>OOOOOOOOOOOOOOOOOOOOOOOOOOOOOOOOOOOO;;;OO.XXX%%%&.",
".@%%&&oo;;;;>OOOOOOOOOOOOOOOOOOOOOOOOOOOOOOOOOOOOO;;;;;;XX%%%%&.",
".@%%&&oo;;;;OOOOOOOOOOOOOOOOOOOOOOOOOOOOOOOOOOOOOO>;;;;;XX%%%%%.",
".@%&&&oo;;;OOOOOOOOOOOOOOOOOOOOOOOOOOOOOOOOOOOOOOOO>;;;;XX%%%%%.",
".%%&&&oo;;;OOOOOOOOOOOOOOOOOOOOOOOOOOOOOOOOOOOOOOOOO;;;;XX%%%%%.",
".%%&&&oo;;OOOOOOOOOOOOOOOOOOOOOOOOOOOOOOOOOOOOOOOOOO*;;;XX%%%%@.",
".%&&&&oo.OOOOOOOOOOOOOOOOOOOOOOOOOOOOOOOOOOOOOOOOOOOO=;;XX%%%%@.",
".@&&&&oo.OOOOOOOOOOOOOOOOOOOOOOOOOOOOOOOOOOOOOOOOOOOOO;;XX%%%%%.",
".@%*&&oo.OOOOOOOOOOOOOOOOOOOOOOOOOOOOOOOOOOOOOOOOOOOOO*;XX@%%%%.",
".@%%*&Xo.OOOOOOOOOOOOOOOOOOOOOOOOOOOOOOOOOOOOOOOOOOOOOO;XX@%%%%.",
".@%%*&Xo;;;OOOOOOOOOOOOOOOOOOOOOOOOOOOOOOOOOOOOOOOOOOOO.XX@%%%%.",
".@%%%*XX;;;**OOOOOOOOOOOOOOOOOOOOOOOOOOOOOOOOOOOOOOOOOO.XX@%%%%.",
".%%%%*XX;;;;;=>OOOOOOOOOOOOOOOOOOOOOOOOOOOOOOOO>;;;*=OO.XX@%%%%.",
".%%%%@XX;;;;;;;>OOOOOOOOOOOOOOOOOOOOOOOOOOOOOOOO;;;;;*;;XX@%%%%.",
".%%%%%XX;;;;;;;OOOOOOOOOOOOOOOOOOOOOOOOOOOOOOOOO;;;;;;;;XX@%%%%.",
".%%%%%XX;;;;OOOOOOOOOOOOOOOOOOOOOOOOOOOOOOOOOOOO>;;;;;;;XX@%%%%.",
".%%%%%XX.++++++++++++++++++++++++++++++++++++++++>>;;;;;XX@%%%%.",
".%%%%%XX.++++++++++++++++++++++++++++++++++++++++++;;;;;XX@%%%%.",
".%%%%%XX;;++++++++++++++++++++++++++++++++++++++++++=*;;oX@%%%%.",
".%%%%%XX;;**++++++++++++++++++++++++++++++++++++++++++;;oX@%%%%.",
".@%%%%XX;;;;;>++++++++++++++++++++++++++++++++++++++++;;oX%%%%%.",
".@%%%%XX;;;;;;>++++++++++++++++++++++++++++++++++++++++;oX@%%%%.",
".@@%%%XX;;=############################################.oo@%%%%.",
".@@%%%XX;##############################################.oo%%%%%.",
".@@%%%XX.#######################################>;;####.oo%%%%@.",
".@%%%%XX.################################>#######>;;*##.oo&%%%%.",
".@%%%%XX.###>>#######>#########>#########;>#######;;;=#.oo&*%%%.",
".%%%%%XX.##;;#######>;#########;>########=;;######;;;;=.oo&&*%%.",
".%%%%%XX.$;;;$$$$$$*;;$$$$$$$$$;;*$$$$$$$$=;$$$$$$;;;;**oo&&*%%.",
".o%%%XXX;;;=$$$$$$$*;;$$$$$$$$;;;*$$$$$$$*;;;$$$$$$;;;;*ooX&&%%.",
".o&*XXXX;;;*$$$$$$;;;;$$$$$$$$;;;;$$$$$$$;;;;;$$$$$;;;;;ooXX&&*.",
".@&oXXXX;;;*$$$$$$;;;;$$$$$$$$;;;;*$$$$$$;;;;;$$$$$;;;;;oXXX&&&.",
" ooooooo...o&&&&&.....&....&&&...&&&&&&&&&&&&&&&&&&&&&&........ "
};
