/* XPM */
static char *_575465650416[] = {
/* columns rows colors chars-per-pixel */
"64 64 12 1 ",
"  c #211714",
". c #281D19",
"X c #2F221C",
"o c #30221D",
"O c #382720",
"+ c #3D2A23",
"@ c #553402",
"# c #6A4103",
"$ c #AC7208",
"% c #F6B412",
"& c #FAD988",
"* c white",
/* pixels */
" oooooooooooooooooooooooooooooooooooooooooooooooooooooooooooooo ",
"o##############################################################o",
"o$%%%%%%$$$$$$$%%%%%%%%%%$$$$%%%%%%%%%%%%$$$$$$$%%$%$$%%%%%%%%$o",
"o#$&***&&&&&&&*&&&&&&&&&&%%%%&***&&%%%%&&&&&&&&&&**&&**&&*&%%$#o",
"o#$%&&**&&&&&&&*&&&&****&&%%%%&&****&%%%&%%%%%%&&&&&&&&&&&&&%$#o",
"o#$%%%%%%%%%%%%%%%%%%%%%%%%$$$%%%%%$$$%%%%%%%%%%%%%%$$$%%%%%$##o",
"o##$$$$$$$$$$$$$$$$$$$$$$$$$o$$$$$$$o$$$$$$$$$$$$$$$$##$$$$$###o",
"o@@@@@@@@@@@@@@@@@@o@@@@@@@o%o@@@@@o%o@@@@@@@o@@@@@@@@@@@@@@@@@o",
" ooooooo oooooooooo%ooooooooo       ooooooooo%ooooooooo ooooooo ",
"o@@@@@@@o...........$.. ..$. ....... .$.. ..$..........o@@@@@@@o",
"o###@@@@o.............@.@.. ......... ..@.@............o@@@@###o",
"o#$$$@@@o..............................................o@@@####o",
"o$$%%$@@o..............................................o@@##%$$o",
"o$$%%%@@o..............................................o@@##%$$o",
"o$$%%&@@o..............................................o@@##$%$o",
"o#$%%$@@o..............................................o@@##$%%o",
"o#$$%$@@o..............................................o@@##$%&o",
"o$$%%$@@o..............................................o@@##$%$o",
"o$$%$$@@o..............................................o@@##$%$o",
"o$$%$#@@o..............................................o@@#$%%#o",
"o$%%$#@@o..............................................o@@#$%$#o",
"o$%%$$@@o..............................................o@@#$%$#o",
"o$%%$$@@o..............................................o@@$$%$#o",
"o$%&$$@@o..............................................o@@$%$$#o",
"o#%&%$@@o..............................................o@@$%$$#o",
"o#%&%$@@o..............................................o@@$%%#$o",
"o#%%&@@@o..............................................o@@%&&#$o",
"o#$%$@@@o..............................................o@@%&$#$o",
"o#$%$$@@o..............................................o@@&&$#$o",
"o#%%$$@@o..............................................o@@&%$#$o",
"o#%%%$@@o..............................................o@@$%%$$o",
"o#%%%$@@o..............................................o@@@$%$$o",
"o#%%&$@@o..............................................o@@$$%$$o",
"o#&&%$@@o..............................................o@@$$%%$o",
"o#%&%$@@o..............................................o@@$$%%$o",
"o$%%%$@@o..............................................o@@$$%%$o",
"o$%%%$@@o..............................................o@@$%%&#o",
"o$$%%$@@o..............................................o@@$%%$#o",
"o#$%$$@@o..............................................o@@$$%$$o",
"o#$%$$@@o..............................................o@@#%%$$o",
"o#$%$$@@o..............................................o@@#%%$$o",
"o#$%$$@@o..............................................o@@#$%&$o",
"o#$%$$@@o..............................................o@@#$%&$o",
"o$&%$$@@o..............................................o@@#$%&$o",
"o$%&%#@@o..............................................o@@#$&&$o",
"o%&&%$@@o..............................................o@@#$&%$o",
"o%&&%$@@o..............................................o@@#$&%$o",
"o%&&&$@@oXXXXXXXXXXXXXXXXXXXXXXXXXXXXXXXXXXXXXXXXXXXXXXo@@#$&&$o",
"o$%&%$@@oXXXXXXXXXXXXXXXXXXXXXXXXXXXXXXXXXXXXXXXXXXXXXXo@@#$&%$o",
"o$%%%$@@oXXXXXXXXXXXXXXXXXXXXXXXXXXXXXXXXXXXXXXXXXXXXXXo@@#$%%%o",
"o$$%$$@@oXXXXXXXXXXXXXXXXXXXXXXXXXXXXXXXXXXXXXXXXXXXXXXo@@#$%%$o",
"o#$%$$@@oXXXXXXXXXXXXXXXXXXXXXXXXXXXXXXXXXXXXXXXXXXXXXXo@@$$%%$o",
"o#$$$$@@oXXXXXXXXXXXXXXXXXXXXXXXXXXXXXXXXXXXXXXXXXXXXXXo@@#$%%$o",
"o##$$$@@oOOOOOOOOOOOOOOOOOOOOOOOOOOOOOOOOOOOOOOOOOOOOOOo@@#$$%$o",
"o##$$$@@oOOOOOOOOOOOOOOOOOOOOOOOOOOOOOOOOOOOOOOOOOOOOOOo@@$$%%$o",
"o##$%%@@oOOOOOOOOOOOOOOOOOOOOOOOOOOOOOOOOOOOOOOOOOOOOOOo@@$%%$#o",
"o#$%&$@@oOOOOOOOOOOOOOOOOOOOOOOOOOOOOOOOOOOOOOOOOOOOOOOo@@$%&$$o",
"o#$&%$@@oOOOOOOOOOOOOOOOOOOOOOOOOOOOOOOOOOOOOOOOOOOOOOOo@@$&%%$o",
"o$$&%$@@oOOOOOOOOOOOOOOOOOOOOOOOOOOOOOOOOOOOOOOOOOOOOOOo@@$&%%$o",
"o$%%%$@@o++++++++++++++++++++++++++++++++++++++++++++++o@@$$&%$o",
"o$%$$@@@o++++++++++++++++++++++++++++++++++++++++++++++o@@@#$$$o",
"o$$$@@@@o++++++++++++++++++++++++++++++++++++++++++++++o@@@@##$o",
"o#$$@@@@o++++++++++++++++++++++++++++++++++++++++++++++o@@@@###o",
" ooooooo oooooooooooooooooooooooooooooooooooooooooooooo ooooooo "
};
