/* XPM */
static char *_576005165558[] = {
/* columns rows colors chars-per-pixel */
"64 64 2 1 ",
"  c black",
". c #CCC9D2",
/* pixels */
"  .....    .....     .                                          ",
" .......  .......   ..                                          ",
" ..   ..  ..   ..   ..                                          ",
"...   .. ...   ..  ....                                         ",
"...   .. ...   .. .. ...                                        ",
" .......  ....... .   ..                                        ",
"  ......   ...... .                                             ",
"      ..       .. ..                                            ",
"      ..       ..  ....                                         ",
"      ..       ..   ..                                          ",
"      ..       ..   .                                           ",
"      ..       ..                                               ",
"                                                                ",
"                                                                ",
"                                                                ",
"                                                                ",
"                                                                ",
"                                                                ",
"                                                                ",
"                                                                ",
"                                                                ",
"                                                                ",
"                                                                ",
"                                                                ",
"                                                                ",
"                                                                ",
"                                                                ",
"                                                                ",
"                                                                ",
"                                                                ",
"                                                                ",
"                                                                ",
"                                                                ",
"                                                                ",
"                                                                ",
"                                                                ",
"                                                                ",
"                                                                ",
"                                                                ",
"                                                                ",
"                                                                ",
"                                                                ",
"                                                                ",
"                                                                ",
"                                                                ",
"                                                                ",
"                                                                ",
"                                                                ",
"                                                                ",
"                                                                ",
"                                                                ",
"                                                                ",
"                                                                ",
"                                                                ",
"                                                                ",
"                                                                ",
"                                                                ",
"                                                                ",
"                                                                ",
"                                                                ",
"                                                                ",
"                                                                ",
"                                                                ",
"                                                                "
};
