/* XPM */
static char *_575402557839[] = {
/* columns rows colors chars-per-pixel */
"64 64 2 1 ",
"  c black",
". c #777280",
/* pixels */
"   .....   .       ..  ......   ....... ..........              ",
" ........  ..      .. .......  ........ ..........              ",
"...    ..  ..      ..    ..    ..           ...                 ",
"..      .  ..      ..   ...    ..           ...                 ",
"......     ..      ..   ...    .. ...       ...                 ",
" .......   ..........   ...    ......       ...                 ",
"      ...  ..........   ...    ......       ...                 ",
".      ... ..      ..    ..    ..           ...                 ",
"..     ... ..       .    ..    ..           ...                 ",
"..     ..  ..       .   .....  ..           ...                 ",
".........  ..       . ........ ...           ..                 ",
" .......    .          .....    ..           ..                 ",
"                                                                ",
"                                                                ",
"                                                                ",
"                                                                ",
"                                                                ",
"                                                                ",
"                                                                ",
"                                                                ",
"                                                                ",
"                                                                ",
"                                                                ",
"                                                                ",
"                                                                ",
"                                                                ",
"                                                                ",
"                                                                ",
"                                                                ",
"                                                                ",
"                                                                ",
"                                                                ",
"                                                                ",
"                                                                ",
"                                                                ",
"                                                                ",
"                                                                ",
"                                                                ",
"                                                                ",
"                                                                ",
"                                                                ",
"                                                                ",
"                                                                ",
"                                                                ",
"                                                                ",
"                                                                ",
"                                                                ",
"                                                                ",
"                                                                ",
"                                                                ",
"                                                                ",
"                                                                ",
"                                                                ",
"                                                                ",
"                                                                ",
"                                                                ",
"                                                                ",
"                                                                ",
"                                                                ",
"                                                                ",
"                                                                ",
"                                                                ",
"                                                                ",
"                                                                "
};
